<svg width="224" height="141" viewBox="0 0 224 141" fill="none" xmlns="http://www.w3.org/2000/svg">
<path d="M102.73 18.9198C99.7344 16.8295 97.5534 14.3237 96.2591 12.6001C95.4957 11.5819 94.8816 10.4816 94.3995 9.33511C93.0564 6.12396 89.6672 -2.20656 81.0061 0.991763C71.9204 4.34654 76.9138 13.6209 79.181 18.8557C80.4379 21.7616 83.058 22.3233 86.6367 21.1384C87.8219 20.746 89.1334 21.3461 89.429 22.4439C90.3674 25.9474 89.7791 29.5176 89.6385 33.7214C95.4355 31.8439 101.189 27.2349 102.73 18.9198Z" fill="#AD6359"/>
<path d="M92.6431 138.396H91.2427C90.8839 138.396 90.7118 138.004 90.9758 137.786C93.2831 135.89 94.6893 133.136 94.5659 130.091C94.3535 124.934 89.6585 120.727 83.8874 120.527C77.5394 120.307 72.3164 124.841 72.3164 130.466C72.3164 133.362 73.7025 135.967 75.9122 137.786C76.1763 138.004 76.007 138.396 75.6482 138.396H74.2478C73.6595 138.396 73.1314 138.778 73.074 139.302C73.0051 139.902 73.5361 140.412 74.1961 140.412H92.6977C93.3548 140.412 93.8858 139.902 93.8198 139.302C93.7595 138.778 93.2314 138.396 92.6431 138.396Z" fill="black"/>
<path d="M83.5575 135.594C86.7258 135.594 89.2942 133.299 89.2942 130.467C89.2942 127.635 86.7258 125.34 83.5575 125.34C80.3892 125.34 77.8208 127.635 77.8208 130.467C77.8208 133.299 80.3892 135.594 83.5575 135.594Z" fill="#274D76"/>
<path d="M173.858 138.396H172.458C172.099 138.396 171.927 138.004 172.191 137.786C174.498 135.89 175.905 133.136 175.781 130.091C175.569 124.934 170.874 120.727 165.103 120.527C158.755 120.307 153.532 124.841 153.532 130.466C153.532 133.362 154.918 135.967 157.128 137.786C157.392 138.004 157.222 138.396 156.864 138.396H155.463C154.875 138.396 154.347 138.778 154.289 139.302C154.22 139.902 154.751 140.412 155.411 140.412H173.913C174.57 140.412 175.101 139.902 175.035 139.302C174.975 138.778 174.447 138.396 173.858 138.396Z" fill="black"/>
<path d="M121.909 29.8537C117.829 24.837 111.948 23.334 106.961 21.2616C105.408 20.6153 103.996 19.8048 102.731 18.9199C101.19 27.2351 95.4327 31.844 89.6386 33.7189C89.4894 38.233 89.8567 43.4755 93.1857 50.1414L94.4914 52.9576L108.941 65.7919L129.342 63.8427C129.342 63.8452 126.556 35.5656 121.909 29.8537Z" fill="#FFF3A1"/>
<path d="M164.775 135.594C167.944 135.594 170.512 133.299 170.512 130.467C170.512 127.635 167.944 125.34 164.775 125.34C161.607 125.34 159.039 127.635 159.039 130.467C159.039 133.299 161.607 135.594 164.775 135.594Z" fill="#274D76"/>
<path d="M71.4871 78.4987L21.5757 114.252C17.1562 117.317 12.1685 116.732 7.2296 113.103C6.40597 112.498 4.02405 110.595 4.02405 110.595C3.38121 110.002 2.32513 109.987 1.65934 110.559L1.19443 110.962C0.85006 111.259 0.838578 111.751 1.17434 112.059L20.3216 129.792C20.732 130.172 21.4064 130.182 21.8311 129.815C22.2702 129.436 22.9733 129.385 23.4382 129.739C23.972 130.146 23.9863 130.864 23.4956 131.288L23.4554 131.321C23.0336 131.688 23.0192 132.291 23.4296 132.668L29.2208 138.038C31.3129 139.975 34.7079 140.175 37.064 138.5L114.362 82.746L109.764 78.4961H71.4871V78.4987Z" fill="#274D76"/>
<path d="M183.747 123.936H181.409V117.096C181.409 115.708 180.137 114.569 178.582 114.569H177.661C174.51 111.125 170.079 108.917 164.741 108.917H155.529C154.791 108.917 154.08 108.665 153.543 108.214L137.707 94.3279C134.419 91.5682 130.077 90.0293 125.565 90.0293H101.35C94.1382 90.0293 88.6368 91.876 84.0365 96.8389L66.5566 114.695V135.588C66.5566 135.588 67.2884 135.588 68.5339 135.588C69.3116 135.588 70.009 135.167 70.3103 134.524C72.1125 130.671 76.1963 125.978 83.4482 126.196C90.8179 126.416 94.0292 129.845 95.4124 132.498C96.302 134.203 96.5718 136.435 96.8042 136.783C97.2605 137.466 98.0956 137.925 99.0484 137.925H149.281C150.653 137.925 151.766 136.93 151.766 135.704V134.093C151.766 131.277 152.82 128.519 154.857 126.373C156.786 124.341 159.842 122.536 164.617 122.536C174.26 122.536 176.94 130.405 177.48 131.972C178.335 134.444 179.428 135.639 180.984 135.639H182.516C184.072 135.639 185.34 134.516 185.343 133.128C185.349 126.311 183.747 123.936 183.747 123.936Z" fill="#FFF3A1"/>
<path d="M138.867 132.397H110.594C107.793 132.397 105.517 130.361 105.517 127.86V98.1157C105.517 94.5532 108.76 91.6523 112.746 91.6523H126.24C129.003 91.6523 131.552 92.8911 133.056 94.9635L141.315 106.364C142.17 107.544 142.621 108.908 142.621 110.314H142.047C142.047 109.008 141.628 107.739 140.833 106.644L132.573 95.2431C131.176 93.3143 128.811 92.1653 126.24 92.1653H112.746C109.076 92.1653 106.091 94.8353 106.091 98.1157V127.86C106.091 130.078 108.111 131.884 110.594 131.884H138.867C140.62 131.884 142.044 130.609 142.044 129.045H142.618C142.621 130.894 140.936 132.397 138.867 132.397Z" fill="black"/>
<path d="M133.245 108.946H114.187C111.317 108.946 108.992 106.894 108.992 104.362V98.512C108.992 96.296 111.03 94.498 113.541 94.498H125.258C127.273 94.498 129.147 95.4137 130.217 96.9192L135.83 104.819C137.108 106.614 135.644 108.946 133.245 108.946Z" fill="#88C9FF"/>
<path d="M86.1515 108.946H97.7139C100.601 108.946 102.94 106.881 102.94 104.334V98.3427C102.94 96.2191 100.988 94.498 98.5834 94.498H96.3938C94.0578 94.498 90.924 96.2011 89.4317 97.7836C88.0915 99.2045 84.3091 103.639 84.3091 103.639C82.2314 105.691 83.0349 108.946 86.1515 108.946Z" fill="#88C9FF"/>
<path d="M179.762 127.213H177.87C177.463 127.213 177.133 126.915 177.133 126.554C177.133 126.189 177.466 125.895 177.87 125.895H179.762C180.169 125.895 180.499 126.192 180.499 126.554C180.502 126.918 180.169 127.213 179.762 127.213Z" fill="white"/>
<path d="M179.761 127.47H177.87C177.305 127.47 176.846 127.06 176.846 126.554C176.846 126.049 177.305 125.639 177.87 125.639H179.761C180.327 125.639 180.786 126.049 180.786 126.554C180.786 127.06 180.327 127.47 179.761 127.47ZM177.87 126.152C177.621 126.152 177.42 126.334 177.42 126.554C177.42 126.777 177.623 126.957 177.87 126.957H179.761C180.011 126.957 180.212 126.775 180.212 126.554C180.212 126.331 180.008 126.152 179.761 126.152H177.87Z" fill="black"/>
<path d="M182.195 124.77C180.752 124.77 179.569 123.713 179.569 122.423V116.727C179.569 116.198 180.051 115.768 180.643 115.768C182.941 115.768 184.821 117.448 184.821 119.502V122.421C184.821 123.713 183.642 124.77 182.195 124.77Z" fill="white"/>
<path d="M182.195 125.027C180.588 125.027 179.282 123.86 179.282 122.424V116.727C179.282 116.058 179.891 115.512 180.643 115.512C183.105 115.512 185.108 117.302 185.108 119.503V122.421C185.108 123.858 183.802 125.027 182.195 125.027ZM180.643 116.025C180.209 116.025 179.856 116.34 179.856 116.727V122.424C179.856 123.578 180.907 124.514 182.195 124.514C183.484 124.514 184.534 123.575 184.534 122.424V119.505C184.534 117.587 182.789 116.025 180.643 116.025Z" fill="black"/>
<path d="M162.153 111.277H78.9946V111.79H162.153V111.277Z" fill="black"/>
<path d="M173.457 114.475H76.3257V114.988H173.457V114.475Z" fill="black"/>
<path d="M102.171 126.646H101.597C101.597 121.98 97.3495 118.187 92.1322 118.187H73.269V117.674H92.1322C97.668 117.674 102.171 121.698 102.171 126.646Z" fill="black"/>
<path d="M144.354 97.8322C142.512 96.2548 140.204 94.303 136.548 94.4979C136.167 94.4979 135.949 94.8903 136.184 95.1622L145.855 106.381C146.805 107.484 148.271 108.127 149.83 108.127H153.331C154.16 108.127 147.167 100.241 144.354 97.8322Z" fill="#88C9FF"/>
<path d="M213.926 62.5188C223.612 55.1834 217.947 33.7672 197.884 31.9924C198.441 27.4706 191.66 19.8787 181.627 17.5242C167.519 14.2131 139.86 19.5376 139.866 41.5053C139.869 53.3573 154.215 62.0443 170.426 57.8636C172.845 68.187 179.638 72.5267 189.427 72.3241C186.201 75.0479 186.526 81.2291 189.154 83.8504C189.395 84.0915 189.24 84.4736 188.882 84.5121C180.02 85.4816 178.163 93.6223 178.183 98.0133C178.183 98.2621 177.836 98.3646 177.661 98.1697C176.435 96.8258 174.097 96.6462 171.901 98.1954C168.742 100.419 168.236 104.277 170.004 105.877C173.19 108.76 180.379 106.644 181.116 102.892C181.151 102.717 181.328 102.609 181.478 102.73C184.571 105.261 195.399 110.26 205.151 104.148C211.1 100.419 211.418 92.9965 209.826 89.0877C209.653 88.6645 209.969 88.2336 210.463 88.1515C230.135 84.8737 224.671 61.6108 213.926 62.5188ZM181.59 80.1339C181.125 78.5925 177.784 78.7823 178.088 81.0624C178.39 83.34 182.023 81.5625 181.59 80.1339ZM173.953 78.5207C176.395 77.3793 177.434 75.5121 176.849 74.181C176.407 73.1782 174.366 72.973 171.74 73.5501C170.108 73.9091 169.25 75.5147 169.204 76.6022C169.163 77.5537 169.697 78.4771 170.653 78.9003C171.761 79.3927 172.863 79.0285 173.953 78.5207ZM152.286 63.4883C148.18 63.7858 145.878 65.2118 145 66.8123C142.187 71.947 149.112 79.721 160.058 78.1462C171.115 76.556 167.975 62.3495 152.286 63.4883ZM212.523 26.6242C215.786 25.3059 218.756 19.2581 212.216 17.0267C208.769 15.8494 206.141 16.4393 204.106 17.1703C201.701 18.0346 200.186 19.2914 199.925 20.8482C198.938 26.7576 209.34 27.9092 212.523 26.6242ZM197.726 14.5106C199.331 13.695 199.629 12.4433 199.296 11.3533C198.963 10.2632 198.005 9.33478 195.396 9.16551C192.171 8.95519 189.817 10.73 189.731 12.2022C189.571 15.0697 194.518 16.1418 197.726 14.5106Z" fill="#88C9FF"/>
<path d="M169.888 91.3681L169.325 91.4648L173.551 111.133L174.115 111.036L169.888 91.3681Z" fill="black"/>
<path d="M55.8097 72.8991C49.0255 72.8991 44.3018 78.7032 43.7795 84.7511L38.4015 128.843C37.796 133.813 33.8586 136.612 27.5049 137.263C26.446 137.371 23.2576 137.579 23.2576 137.579C22.3336 137.579 21.5874 138.248 21.5874 139.071V139.651C21.5874 140.079 21.9748 140.428 22.4541 140.428L50.0299 140.451C50.6182 140.451 51.0975 140.025 51.0975 139.497C51.0975 138.951 51.5452 138.463 52.1536 138.41C52.8509 138.351 53.4392 138.84 53.4392 139.451V139.5C53.4392 140.025 53.9156 140.451 54.5039 140.454L62.8493 140.467C65.8597 140.469 68.3822 138.425 68.6721 135.747L72.9079 96.8108C73.3298 92.9174 76.9887 89.9474 81.3652 89.9474H121.841C128.421 89.9474 133.759 84.9485 133.759 79.0649V72.8965H55.8097V72.8991Z" fill="#74BAAB"/>
<path d="M58.8484 72.8981L45.7651 49.802C44.9673 48.3939 43.3487 47.5039 41.5838 47.5039H35.761C34.7279 47.5039 34.0678 48.4862 34.5499 49.2993L48.5316 72.8956C48.5316 72.8956 49.8316 76.7248 52.1963 76.7248H55.1665H61.0152H82.8744C84.1858 76.7248 85.2505 75.7733 85.2505 74.6012V72.8956H58.8484V72.8981Z" fill="#274D76"/>
<path d="M56.8169 76.7287H50.9682C48.2821 76.7287 45.8141 75.4027 44.5571 73.2791L30.3488 49.3032C29.8666 48.4876 30.5267 47.5078 31.5598 47.5078H37.3826C39.1504 47.5078 40.7661 48.3952 41.5639 49.8059L56.8169 76.7287Z" fill="#88C9FF"/>
<path d="M142.864 135.517C144.133 135.517 145.198 136.315 145.462 137.379H103.055C103.319 136.315 104.38 135.517 105.652 135.517H142.864ZM142.864 135.004H105.652C103.867 135.004 102.42 136.297 102.42 137.892H146.099C146.096 136.297 144.649 135.004 142.864 135.004Z" fill="black"/>
<path d="M56.3317 50.2423L57.8813 50.2372C60.0968 50.2295 62.2233 49.4446 63.8017 48.0571L66.4132 45.7616C66.5165 45.6718 66.6887 45.7487 66.6686 45.877L65.1276 55.8464C65.1276 55.8464 55.9069 57.9803 55.0661 51.5349C54.98 50.8501 55.5625 50.2474 56.3317 50.2423Z" fill="#AD6359"/>
<path d="M134.424 59.3803L124.851 30.6519C122.848 25.0067 116.104 21.8802 109.784 23.6704C101.958 25.889 98.2622 33.3552 100.745 40.3494L105.904 54.6047L77.571 44.0992C72.6292 42.2115 66.2841 43.3913 65.2911 48.1131C64.588 51.4576 58.4754 72.8559 62.4615 72.8738H66.6486C69.4237 72.4481 69.6188 70.5476 70.2674 67.0363C71.4038 67.2056 73.8316 67.6519 75.8204 66.8286C76.5666 67.598 79.5339 67.8083 81.6088 67.0363C83.19 67.4903 85.2505 67.3749 86.3812 66.7978C96.4858 71.8017 106.481 76.5031 112.152 78.914C116.979 80.9684 121.528 80.9043 126.162 79.9143C136.307 77.2007 137.013 66.6747 134.424 59.3803Z" fill="#AD6359"/>
<path d="M131.182 49.6546L124.851 30.6519C122.848 25.0067 116.104 21.8802 109.784 23.6704C101.958 25.889 98.2621 33.3552 100.745 40.3494L105.747 54.1635C107.801 53.5685 122.322 49.4648 131.182 49.6546Z" fill="#FFF3A1"/>
<path d="M186.368 133.127H181.116C180.895 133.127 180.7 133.004 180.622 132.822L179.262 129.577C179.133 129.27 179.388 128.941 179.756 128.941H186.368C187.432 128.941 188.293 129.711 188.293 130.662V131.406C188.293 132.358 187.432 133.127 186.368 133.127Z" fill="#88C9FF"/>
<path d="M118.54 59.5136C118.471 59.4905 111.483 57.059 105.79 54.8405L106.019 54.3711C111.701 56.5871 118.678 59.0134 118.747 59.0365L118.54 59.5136Z" fill="black"/>
<path d="M71.789 57.6766L70.5083 65.9102L71.0768 65.9808L72.3576 57.7472L71.789 57.6766Z" fill="black"/>
<path d="M76.7447 66.4048L76.2339 66.1714C76.5897 65.5482 76.8079 64.8787 76.8853 64.1837L77.4593 59.0977L78.0304 59.1489L77.4564 64.235C77.3703 64.9942 77.1293 65.7251 76.7447 66.4048Z" fill="black"/>
<path d="M82.5874 66.6124L82.0708 66.3893C82.3922 65.7942 82.5931 65.1582 82.6677 64.499L83.19 59.8516L83.7611 59.9029L83.2388 64.5503C83.1585 65.2685 82.9375 65.9609 82.5874 66.6124Z" fill="black"/>
<path d="M87.2996 66.5326L86.7974 66.2838C87.2135 65.6119 87.4689 64.8835 87.555 64.1191L87.951 60.5977L88.5221 60.649L88.1261 64.1704C88.0342 65.004 87.7559 65.7991 87.2996 66.5326Z" fill="black"/>
<path d="M24.3511 115.013L23.9316 115.363L36.6274 127.511L37.0468 127.161L24.3511 115.013Z" fill="white"/>
<path d="M69.6103 127.92H42.7979V128.433H69.6103V127.92Z" fill="black"/>
<path d="M80.6819 15.9803C80.4896 15.9803 80.2945 15.9419 80.1166 15.8675C79.7722 15.7213 79.5139 15.4494 79.4106 15.1186C79.2413 14.6056 77.8121 10.0659 79.7751 9.4375L79.9673 9.91969C78.8682 10.2711 79.3819 13.2078 79.9616 14.9749C80.0219 15.1647 80.1654 15.3186 80.3634 15.4007C80.5585 15.4828 80.7852 15.4853 80.9832 15.4084L82.266 14.9211L82.4899 15.393L81.21 15.8778C81.0406 15.947 80.8627 15.9803 80.6819 15.9803Z" fill="black"/>
<path d="M81.655 10.2689L81.4312 9.79698C82.5676 9.36866 83.397 9.10705 84.5449 9.33788L84.4186 9.83801C83.4687 9.64565 82.8173 9.83289 81.655 10.2689Z" fill="black"/>
<path d="M77.2324 12.3098L76.8105 11.9609C77.3156 11.4711 78.3975 10.9632 79.1121 10.7734L79.2757 11.2659C78.6329 11.4377 77.6571 11.8994 77.2324 12.3098Z" fill="black"/>
<path d="M91.5929 11.2482L91.3288 10.7916C91.9229 10.5146 92.2931 9.97346 92.2931 9.37586C92.2931 8.49612 91.4924 7.78054 90.5081 7.78054C89.7763 7.78054 89.1277 8.17296 88.8522 8.77826L88.3213 8.5859C88.6829 7.78567 89.5438 7.26758 90.5081 7.26758C91.8081 7.26758 92.867 8.214 92.867 9.37586C92.8642 10.1658 92.3763 10.884 91.5929 11.2482Z" fill="black"/>
<path d="M92.3936 5.25208C92.2559 5.01098 92.0693 4.7622 92.0665 4.74681C90.0031 1.67416 86.6081 -1.07789 81.0063 0.989348C77.8696 2.14608 76.4118 4.0107 75.9411 6.16771C75.7718 6.94228 76.9255 7.36291 77.4277 6.71402L77.4391 6.69863C78.3345 5.54446 84.1172 3.99788 86.611 4.20306C88.9212 4.39542 91.5298 5.06741 92.3936 5.25208Z" fill="#FFF3A1"/>
<path d="M76.1278 10.8617C75.815 7.15301 83.44 4.37275 91.7107 5.09859C88.3588 4.3471 81.8358 2.46196 78.6532 1.53606C77.4651 1.18981 76.1823 1.23085 75.0258 1.64635C70.48 3.27501 70.5977 9.06636 75.2094 10.5463C75.3788 10.6001 75.9958 10.8181 76.1278 10.8617Z" fill="#274D76"/>
<path d="M79.8011 18.6252C78.9602 18.6252 78.0936 18.2507 77.7808 17.3428L78.3289 17.1914C78.6073 18.0045 79.4653 18.184 80.1168 18.0891C80.8342 17.984 81.5976 17.5146 81.5775 16.7323C81.5746 16.6041 81.655 16.4887 81.787 16.4374C81.9133 16.3861 82.0596 16.4117 82.1572 16.4964C82.8861 17.1299 84.2177 16.9555 85.0873 16.4246C85.3972 16.2348 86.37 15.5346 85.8822 14.5112L86.4102 14.3086C86.8493 15.2268 86.4648 16.1989 85.4115 16.8452C84.4875 17.412 83.0985 17.6531 82.1141 17.1119C81.9247 17.9635 81.0437 18.4713 80.2115 18.5944C80.0766 18.6149 79.9417 18.6252 79.8011 18.6252Z" fill="black"/>
<path d="M89.0761 137.889H78.1221V138.402H89.0761V137.889Z" fill="white"/>
<path d="M170.128 137.889H159.174V138.402H170.128V137.889Z" fill="white"/>
<path d="M173.54 86.8239C172.105 87.124 169.913 88.8347 168.435 90.5275C164.641 94.8723 153.54 108.096 153.54 108.096C153.337 108.335 153.351 108.668 153.572 108.894L153.916 109.294C154.083 109.489 154.341 109.602 154.617 109.602H156.795L173.483 88.2089L174.045 87.4933C174.298 87.1676 173.97 86.7367 173.54 86.8239Z" fill="#FFF3A1"/>
<path d="M104.036 51.5603L99.9527 40.1982C97.7802 34.0759 100.581 27.3536 106.613 24.2168L106.903 24.6605C101.101 27.6793 98.4087 34.1478 100.501 40.0443L104.585 51.4064L104.036 51.5603Z" fill="black"/>
<path d="M64.4419 72.2351H61.9222V71.7221H64.4419C65.7218 71.7221 66.7606 70.7937 66.7606 69.6498C66.7606 68.5059 65.7218 67.5774 64.4419 67.5774H61.7959V67.0645H64.4419C66.0375 67.0645 67.3346 68.2238 67.3346 69.6498C67.3346 71.0733 66.0346 72.2351 64.4419 72.2351Z" fill="black"/>
<path d="M64.5968 48.4402L62.9756 56.0723L63.5394 56.1679L65.1606 48.5358L64.5968 48.4402Z" fill="black"/>
</svg>
