<svg width="274" height="229" viewBox="0 0 274 229" fill="none" xmlns="http://www.w3.org/2000/svg">
<path d="M117.223 147.266L116.719 150.354L116.181 153.673L111.244 183.939H103.174L108.106 153.673L108.649 150.354L109.153 147.266H117.223Z" fill="#88C9FF"/>
<path d="M116.054 147.266C115.626 150.332 115.171 153.393 114.71 156.449L113.284 165.627L111.792 174.789L111.024 179.364L110.223 183.939L110.881 179.342L111.567 174.75L113.01 165.578L114.502 156.416C114.99 153.36 115.506 150.31 116.054 147.266Z" fill="#C7C7C7"/>
<path d="M116.719 150.354L116.181 153.672H108.106L108.649 150.354H116.719Z" fill="#C7C7C7"/>
<path d="M157.073 147.266L157.577 150.354L158.115 153.673L163.052 183.939H171.122L166.19 153.673L165.647 150.354L165.143 147.266H157.073Z" fill="#88C9FF"/>
<path d="M158.269 147.266C158.691 150.332 159.152 153.393 159.613 156.449L161.033 165.627L162.526 174.789L163.299 179.364L164.1 183.939L163.442 179.342L162.756 174.75L161.33 165.578L159.838 156.416C159.327 153.36 158.812 150.31 158.269 147.266Z" fill="#C7C7C7"/>
<path d="M157.577 150.354H165.647L166.19 153.672H158.115L157.577 150.354Z" fill="#C7C7C7"/>
<path d="M116.927 138.752H110.53L111.326 132.783H116.131L116.927 138.752Z" fill="#C7C7C7"/>
<path d="M119.605 129.566C120.177 126.323 118.012 123.229 114.769 122.657C111.525 122.084 108.432 124.25 107.86 127.493C107.287 130.736 109.452 133.829 112.696 134.402C115.939 134.974 119.032 132.809 119.605 129.566Z" fill="#DBDBDB"/>
<path d="M118.143 129.568C118.721 127.13 117.213 124.685 114.775 124.107C112.337 123.53 109.892 125.038 109.314 127.476C108.736 129.914 110.245 132.359 112.683 132.937C115.121 133.514 117.566 132.006 118.143 129.568Z" fill="white"/>
<path d="M117.519 128.256C117.477 127.716 117.324 127.19 117.069 126.711C116.814 126.233 116.463 125.812 116.038 125.475C115.61 125.143 115.119 124.901 114.595 124.764C114.07 124.627 113.524 124.599 112.988 124.68C112.456 124.763 111.948 124.958 111.496 125.251C111.044 125.544 110.659 125.929 110.366 126.38C110.056 126.863 109.853 127.407 109.771 127.974C109.688 128.542 109.728 129.121 109.888 129.672C110.161 130.624 110.797 131.43 111.66 131.916C112.502 132.393 113.49 132.546 114.436 132.343C115.352 132.148 116.172 131.644 116.762 130.917C117.344 130.199 117.681 129.312 117.722 128.388C117.722 128.35 117.722 128.311 117.684 128.311C117.645 128.311 117.645 128.344 117.645 128.388C117.624 128.762 117.552 129.131 117.431 129.485C117.305 129.833 117.137 130.165 116.932 130.473C116.716 130.771 116.465 131.044 116.186 131.285C115.899 131.525 115.584 131.729 115.248 131.894C114.765 132.121 114.24 132.246 113.706 132.259C113.173 132.272 112.642 132.174 112.148 131.97C111.653 131.761 111.21 131.446 110.848 131.048C110.486 130.651 110.215 130.179 110.053 129.666C109.886 129.14 109.835 128.583 109.904 128.035C109.972 127.487 110.157 126.96 110.448 126.49C110.728 126.044 111.101 125.664 111.541 125.374C111.981 125.085 112.478 124.893 112.999 124.811C113.702 124.7 114.422 124.78 115.084 125.043C115.745 125.307 116.323 125.744 116.757 126.309C116.965 126.6 117.135 126.917 117.261 127.253C117.384 127.593 117.465 127.946 117.503 128.306C117.503 128.306 117.519 128.273 117.519 128.256Z" fill="#88C9FF"/>
<path d="M116.987 128.261C116.948 127.798 116.814 127.349 116.593 126.94C116.372 126.531 116.069 126.172 115.704 125.886C115.337 125.604 114.917 125.398 114.47 125.279C114.023 125.16 113.556 125.132 113.098 125.195C112.639 125.263 112.201 125.427 111.81 125.677C111.42 125.927 111.086 126.256 110.832 126.643C110.561 127.056 110.382 127.523 110.307 128.011C110.231 128.499 110.26 128.998 110.393 129.474C110.506 129.886 110.701 130.271 110.964 130.607C111.228 130.944 111.556 131.224 111.929 131.432C112.662 131.851 113.525 131.98 114.348 131.794C115.143 131.623 115.854 131.183 116.362 130.549C116.865 129.925 117.155 129.156 117.19 128.355C117.19 128.322 117.19 128.289 117.157 128.289C117.124 128.289 117.113 128.316 117.113 128.355C117.069 128.998 116.853 129.617 116.488 130.148C116.123 130.68 115.623 131.104 115.04 131.377C114.624 131.579 114.171 131.691 113.709 131.704C113.248 131.717 112.789 131.632 112.363 131.454C111.934 131.273 111.55 131 111.237 130.655C110.925 130.311 110.691 129.902 110.552 129.457C110.41 129.001 110.369 128.52 110.431 128.046C110.494 127.572 110.658 127.118 110.914 126.714C111.156 126.334 111.477 126.01 111.856 125.766C112.235 125.521 112.662 125.362 113.109 125.299C113.706 125.21 114.316 125.281 114.877 125.505C115.438 125.728 115.929 126.096 116.301 126.572C116.481 126.819 116.628 127.088 116.74 127.373C116.843 127.664 116.915 127.966 116.954 128.272L116.987 128.261Z" fill="#88C9FF"/>
<path d="M116.455 128.267C116.416 127.882 116.298 127.508 116.109 127.17C115.921 126.831 115.665 126.534 115.358 126.298C114.741 125.829 113.965 125.62 113.196 125.716C112.812 125.767 112.442 125.899 112.112 126.103C111.782 126.308 111.499 126.58 111.282 126.901C111.047 127.249 110.89 127.643 110.821 128.056C110.752 128.47 110.772 128.894 110.881 129.299C110.974 129.652 111.136 129.982 111.36 130.271C111.583 130.559 111.863 130.8 112.182 130.977C112.81 131.329 113.547 131.434 114.25 131.274C114.927 131.116 115.528 130.728 115.95 130.176C116.368 129.647 116.614 129.001 116.653 128.328C116.653 128.295 116.653 128.267 116.614 128.267C116.608 128.268 116.601 128.27 116.596 128.273C116.59 128.276 116.585 128.28 116.581 128.286C116.577 128.291 116.574 128.297 116.572 128.303C116.57 128.309 116.57 128.316 116.57 128.322C116.528 128.862 116.344 129.381 116.038 129.828C115.732 130.275 115.314 130.633 114.826 130.868C114.476 131.04 114.094 131.137 113.704 131.15C113.314 131.163 112.926 131.093 112.566 130.944C112.201 130.794 111.875 130.564 111.61 130.272C111.345 129.98 111.149 129.632 111.035 129.255C110.921 128.87 110.892 128.466 110.949 128.07C111.006 127.673 111.147 127.293 111.364 126.956C111.571 126.642 111.844 126.377 112.163 126.178C112.482 125.979 112.84 125.852 113.213 125.804C113.706 125.746 114.206 125.804 114.672 125.974C115.142 126.152 115.554 126.456 115.863 126.852C116.015 127.054 116.141 127.275 116.236 127.51C116.328 127.751 116.392 128.001 116.428 128.256C116.428 128.256 116.461 128.273 116.455 128.267Z" fill="#88C9FF"/>
<path d="M115.928 128.274C115.848 127.655 115.526 127.093 115.034 126.71C114.542 126.342 113.928 126.173 113.317 126.238C113.006 126.275 112.706 126.376 112.437 126.536C112.167 126.695 111.934 126.91 111.753 127.165C111.557 127.447 111.423 127.768 111.36 128.105C111.298 128.443 111.309 128.791 111.391 129.124C111.464 129.417 111.597 129.693 111.781 129.932C111.965 130.172 112.196 130.371 112.461 130.517C112.982 130.806 113.593 130.89 114.173 130.753C114.724 130.62 115.214 130.302 115.561 129.854C115.891 129.415 116.082 128.888 116.109 128.339C116.11 128.334 116.11 128.328 116.108 128.322C116.107 128.317 116.104 128.311 116.1 128.307C116.097 128.302 116.092 128.298 116.087 128.295C116.082 128.293 116.077 128.291 116.071 128.29C116.071 128.29 116.032 128.29 116.027 128.334C115.994 128.769 115.851 129.188 115.611 129.551C115.371 129.915 115.042 130.212 114.655 130.413C114.373 130.561 114.062 130.645 113.744 130.66C113.425 130.675 113.107 130.621 112.812 130.501C112.513 130.378 112.245 130.188 112.03 129.947C111.814 129.706 111.656 129.419 111.567 129.107C111.479 128.795 111.46 128.468 111.511 128.148C111.562 127.828 111.682 127.522 111.863 127.253C112.033 127.005 112.254 126.797 112.511 126.643C112.769 126.489 113.057 126.392 113.355 126.359C113.746 126.324 114.139 126.374 114.507 126.507C114.878 126.644 115.205 126.877 115.456 127.182C115.577 127.343 115.678 127.518 115.758 127.703C115.836 127.896 115.893 128.096 115.928 128.301V128.274Z" fill="#88C9FF"/>
<path d="M163.629 138.752H157.227L158.022 132.783H162.833L163.629 138.752Z" fill="#C7C7C7"/>
<path d="M166.422 129.046C166.916 125.785 164.673 122.742 161.413 122.248C158.152 121.753 155.109 123.996 154.615 127.257C154.121 130.517 156.363 133.561 159.624 134.055C162.884 134.549 165.928 132.306 166.422 129.046Z" fill="#DBDBDB"/>
<path d="M164.908 129.203C165.286 126.726 163.584 124.412 161.107 124.034C158.63 123.656 156.316 125.358 155.938 127.835C155.561 130.312 157.262 132.627 159.739 133.004C162.216 133.382 164.531 131.68 164.908 129.203Z" fill="white"/>
<path d="M164.221 128.256C164.178 127.716 164.024 127.19 163.77 126.712C163.515 126.233 163.164 125.812 162.74 125.475C162.312 125.143 161.821 124.901 161.297 124.764C160.772 124.628 160.226 124.599 159.69 124.679C159.158 124.763 158.65 124.958 158.198 125.251C157.746 125.544 157.361 125.929 157.068 126.38C156.756 126.862 156.551 127.405 156.469 127.974C156.387 128.542 156.428 129.121 156.59 129.672C156.861 130.625 157.498 131.431 158.362 131.915C159.204 132.394 160.192 132.546 161.138 132.343C162.054 132.147 162.875 131.644 163.464 130.917C164.047 130.198 164.383 129.312 164.424 128.388C164.424 128.349 164.424 128.311 164.386 128.311C164.347 128.311 164.347 128.344 164.342 128.388C164.32 128.761 164.25 129.13 164.133 129.485C164.008 129.834 163.838 130.166 163.629 130.473C163.2 131.084 162.619 131.573 161.945 131.893C161.463 132.122 160.939 132.248 160.406 132.261C159.873 132.274 159.343 132.175 158.851 131.97C158.355 131.761 157.91 131.446 157.547 131.049C157.185 130.651 156.912 130.179 156.749 129.666C156.584 129.139 156.534 128.582 156.603 128.034C156.672 127.486 156.859 126.959 157.15 126.49C157.43 126.044 157.803 125.663 158.243 125.374C158.683 125.084 159.18 124.892 159.701 124.811C160.404 124.699 161.124 124.78 161.786 125.043C162.447 125.307 163.025 125.744 163.459 126.309C163.665 126.601 163.835 126.918 163.963 127.252C164.084 127.593 164.163 127.946 164.199 128.306C164.199 128.306 164.221 128.273 164.221 128.256Z" fill="#88C9FF"/>
<path d="M163.689 128.261C163.647 127.799 163.512 127.35 163.291 126.942C163.071 126.533 162.769 126.174 162.405 125.886C162.038 125.604 161.619 125.398 161.172 125.279C160.724 125.16 160.258 125.132 159.799 125.195C159.34 125.262 158.9 125.426 158.509 125.676C158.118 125.926 157.783 126.255 157.528 126.643C157.258 127.056 157.079 127.523 157.003 128.011C156.927 128.499 156.957 128.998 157.089 129.474C157.203 129.886 157.397 130.271 157.661 130.607C157.924 130.944 158.252 131.224 158.625 131.432C159.359 131.85 160.221 131.979 161.045 131.794C161.841 131.624 162.554 131.184 163.064 130.549C163.564 129.923 163.854 129.155 163.892 128.355C163.892 128.322 163.892 128.289 163.854 128.289C163.815 128.289 163.815 128.316 163.81 128.355C163.766 128.997 163.551 129.616 163.187 130.148C162.824 130.679 162.325 131.104 161.741 131.377C161.326 131.579 160.873 131.691 160.411 131.704C159.95 131.717 159.49 131.632 159.064 131.454C158.634 131.274 158.249 131.002 157.935 130.657C157.622 130.312 157.387 129.902 157.249 129.457C157.108 129.001 157.068 128.52 157.13 128.046C157.193 127.573 157.356 127.119 157.611 126.714C157.853 126.335 158.175 126.012 158.554 125.768C158.932 125.523 159.359 125.363 159.805 125.299C160.404 125.208 161.016 125.277 161.579 125.501C162.142 125.725 162.636 126.094 163.009 126.572C163.19 126.818 163.337 127.087 163.448 127.373C163.555 127.663 163.627 127.965 163.662 128.272C163.667 128.272 163.672 128.271 163.676 128.27C163.681 128.268 163.685 128.265 163.689 128.261Z" fill="#88C9FF"/>
<path d="M163.157 128.267C163.115 127.882 162.996 127.509 162.808 127.171C162.619 126.833 162.365 126.536 162.059 126.297C161.442 125.829 160.667 125.621 159.898 125.716C159.515 125.768 159.148 125.901 158.82 126.105C158.492 126.309 158.21 126.58 157.994 126.901C157.76 127.249 157.603 127.642 157.533 128.056C157.463 128.469 157.482 128.893 157.588 129.298C157.683 129.651 157.848 129.981 158.072 130.269C158.296 130.557 158.576 130.798 158.894 130.977C159.521 131.328 160.256 131.434 160.957 131.273C161.635 131.116 162.238 130.728 162.663 130.176C163.082 129.647 163.326 129.001 163.36 128.327C163.36 128.294 163.36 128.267 163.327 128.267C163.32 128.267 163.314 128.269 163.308 128.273C163.302 128.276 163.297 128.28 163.293 128.285C163.289 128.29 163.286 128.296 163.284 128.302C163.283 128.309 163.282 128.315 163.283 128.322C163.239 128.861 163.055 129.38 162.749 129.826C162.443 130.273 162.026 130.632 161.538 130.867C161.189 131.04 160.806 131.136 160.417 131.149C160.027 131.163 159.639 131.093 159.278 130.944C158.914 130.793 158.587 130.564 158.323 130.271C158.058 129.979 157.862 129.632 157.748 129.254C157.634 128.87 157.605 128.466 157.661 128.069C157.718 127.672 157.86 127.293 158.077 126.956C158.282 126.642 158.553 126.376 158.872 126.177C159.19 125.978 159.548 125.851 159.92 125.804C160.415 125.745 160.916 125.803 161.385 125.974C161.854 126.152 162.266 126.455 162.575 126.851C162.728 127.053 162.853 127.275 162.948 127.51C163.035 127.752 163.1 128.002 163.14 128.256C163.144 128.261 163.15 128.265 163.157 128.267Z" fill="#88C9FF"/>
<path d="M162.624 128.273C162.587 127.967 162.489 127.671 162.336 127.403C162.184 127.135 161.979 126.899 161.736 126.71C161.243 126.342 160.63 126.174 160.019 126.238C159.707 126.272 159.406 126.372 159.136 126.532C158.867 126.692 158.634 126.908 158.455 127.165C158.259 127.447 158.125 127.767 158.062 128.105C158 128.443 158.01 128.79 158.093 129.124C158.166 129.417 158.298 129.692 158.482 129.932C158.666 130.172 158.898 130.371 159.163 130.517C159.682 130.805 160.291 130.89 160.869 130.753C161.421 130.618 161.912 130.301 162.262 129.853C162.593 129.415 162.784 128.887 162.811 128.339C162.813 128.334 162.813 128.328 162.812 128.322C162.811 128.317 162.809 128.311 162.806 128.307C162.803 128.302 162.799 128.298 162.794 128.295C162.789 128.292 162.784 128.29 162.778 128.29C162.766 128.29 162.755 128.294 162.747 128.303C162.739 128.311 162.734 128.322 162.734 128.334C162.694 128.771 162.542 129.19 162.294 129.551C162.045 129.912 161.707 130.203 161.313 130.396C161.032 130.543 160.721 130.627 160.404 130.642C160.087 130.657 159.77 130.603 159.475 130.484C159.176 130.361 158.909 130.172 158.693 129.93C158.477 129.689 158.319 129.402 158.23 129.091C158.142 128.779 158.123 128.451 158.174 128.131C158.226 127.811 158.346 127.506 158.526 127.237C158.696 126.989 158.917 126.78 159.174 126.626C159.432 126.472 159.72 126.375 160.019 126.342C160.407 126.307 160.798 126.358 161.165 126.49C161.536 126.626 161.864 126.859 162.114 127.165C162.238 127.325 162.342 127.5 162.421 127.686C162.499 127.879 162.556 128.08 162.591 128.284C162.591 128.284 162.63 128.279 162.624 128.273Z" fill="#88C9FF"/>
<path d="M177.36 135.711H96.9307V151.093H177.36V135.711Z" fill="#DBDBDB"/>
<path d="M113.465 135.711L107.628 151.093H97.2378L103.075 135.711H113.465Z" fill="#88C9FF"/>
<path d="M134.756 135.711L128.919 151.093H118.528L124.365 135.711H134.756Z" fill="#88C9FF"/>
<path d="M156.042 135.711L150.21 151.093H139.82L145.657 135.711H156.042Z" fill="#88C9FF"/>
<path d="M177.338 135.711L171.501 151.093H161.111L166.948 135.711H177.338Z" fill="#88C9FF"/>
<path d="M175.736 165.32H98.5601V175.058H175.736V165.32Z" fill="#DBDBDB"/>
<path d="M114.42 165.32L108.824 175.052H98.8564L104.458 165.32H114.42Z" fill="#88C9FF"/>
<path d="M134.855 165.32L129.254 175.052H119.28L124.881 165.32H134.855Z" fill="#88C9FF"/>
<path d="M155.279 165.32L149.678 175.052H139.71L145.311 165.32H155.279Z" fill="#88C9FF"/>
<path d="M175.709 165.32L170.108 175.052H160.14L165.741 165.32H175.709Z" fill="#88C9FF"/>
<path d="M256.631 62.4472H194.542C194.542 62.4472 200.697 45.6328 210.171 45.6328C219.645 45.6328 222.613 57.2355 222.613 57.2355C222.613 57.2355 229.004 50.9322 234.26 50.9322C239.515 50.9322 244.074 59.2653 244.074 59.2653C244.074 59.2653 251.496 54.7833 256.631 62.4472Z" fill="#88C9FF"/>
<path d="M90.227 23.0091H61.2119C61.2119 23.0091 67.6908 13.6172 72.8037 13.6172C77.9166 13.6172 79.4197 19.8766 79.4197 19.8766C79.4197 19.8766 83.0239 16.9581 86.3649 17.4793C89.7058 18.0004 90.227 23.0091 90.227 23.0091Z" fill="#88C9FF"/>
<path d="M246.746 90.6458H217.731C217.731 90.6458 224.215 81.2539 229.323 81.2539C234.43 81.2539 235.939 87.5133 235.939 87.5133C235.939 87.5133 239.543 84.5893 242.884 85.116C246.225 85.6426 246.746 90.6458 246.746 90.6458Z" fill="#88C9FF"/>
<path d="M74.186 46.5501H17.6646C17.6646 46.5501 25.4052 29.2695 33.6835 28.1887C41.9617 27.108 45.9226 41.0258 45.9226 41.0258C45.9226 41.0258 51.2658 36.0885 55.4626 36.0885C59.6593 36.0885 62.9015 42.5673 62.9015 42.5673C62.9015 42.5673 71.3169 38.1457 74.186 46.5501Z" fill="#88C9FF"/>
<path d="M19.7002 184.073L48.7866 183.941L77.8784 183.892L136.051 183.799L194.229 183.892L223.316 183.941L252.402 184.073L223.316 184.205L194.229 184.254L136.051 184.347L77.8784 184.254L48.7866 184.205L19.7002 184.073Z" fill="#263238"/>
<path d="M137.148 227.31C200.801 227.31 252.402 221.294 252.402 213.874C252.402 206.455 200.801 200.439 137.148 200.439C73.4954 200.439 21.8945 206.455 21.8945 213.874C21.8945 221.294 73.4954 227.31 137.148 227.31Z" fill="#88C9FF"/>
<path d="M152.218 216.38C153.359 216.764 186.022 216.879 187.273 216.095C187.75 215.798 188.041 211.042 188.233 205.287C188.277 204.042 188.31 202.758 188.343 201.447L190.987 184.029L169.153 183.887L167.09 201.315L167.172 205.156C167.172 205.156 154.648 210.707 153.37 211.711C152.092 212.715 151.082 215.99 152.218 216.38Z" fill="#EB9481"/>
<path d="M152.218 216.379C153.359 216.763 186.022 216.878 187.273 216.094C187.849 215.732 188.167 208.787 188.343 201.452L167.09 201.32L167.172 205.16C167.172 205.16 154.648 210.712 153.37 211.716C152.092 212.72 151.082 215.99 152.218 216.379Z" fill="white"/>
<path d="M152.218 216.38C153.359 216.764 186.022 216.879 187.273 216.095C187.75 215.799 188.041 211.042 188.233 205.288L167.172 205.15C167.172 205.15 154.648 210.702 153.37 211.706C152.092 212.71 151.082 215.991 152.218 216.38Z" fill="#1769FF"/>
<path d="M152.695 215.075C158.181 214.96 180.267 215.009 185.688 215.311C185.731 215.311 185.731 215.344 185.688 215.349C180.262 215.579 158.165 215.349 152.69 215.163C152.574 215.157 152.58 215.075 152.695 215.075Z" fill="#263238"/>
<path d="M155.477 210.537C156.089 210.52 156.698 210.631 157.265 210.863C157.832 211.096 158.344 211.444 158.768 211.886C159.535 212.671 159.971 213.719 159.986 214.816C159.986 214.849 159.92 214.849 159.915 214.816C159.736 213.735 159.211 212.74 158.42 211.982C157.629 211.224 156.614 210.742 155.526 210.608C155.517 210.615 155.505 210.617 155.494 210.615C155.482 210.613 155.472 210.607 155.466 210.597C155.459 210.588 155.457 210.576 155.459 210.565C155.461 210.553 155.467 210.543 155.477 210.537Z" fill="#263238"/>
<path d="M165.05 205.687C167.244 205.687 169.779 206.449 171.134 208.243C171.189 208.315 171.09 208.386 171.024 208.353C169.103 207.342 167.08 206.539 164.989 205.956C164.954 205.948 164.923 205.926 164.903 205.895C164.884 205.864 164.877 205.827 164.885 205.791C164.893 205.756 164.915 205.725 164.946 205.705C164.977 205.685 165.014 205.679 165.05 205.687Z" fill="#263238"/>
<path d="M163.354 206.34C165.548 206.34 168.083 207.102 169.438 208.902C169.493 208.968 169.394 209.045 169.328 209.006C167.409 207.994 165.385 207.192 163.294 206.614C163.263 206.601 163.237 206.578 163.222 206.548C163.206 206.519 163.202 206.485 163.209 206.452C163.216 206.419 163.235 206.39 163.261 206.37C163.288 206.349 163.32 206.339 163.354 206.34Z" fill="#263238"/>
<path d="M161.659 206.999C163.853 206.972 166.388 207.756 167.749 209.556C167.798 209.622 167.699 209.699 167.633 209.666C165.715 208.649 163.692 207.845 161.599 207.268C161.563 207.26 161.532 207.238 161.513 207.208C161.493 207.177 161.487 207.139 161.495 207.104C161.503 207.068 161.524 207.037 161.555 207.017C161.586 206.998 161.623 206.991 161.659 206.999Z" fill="#263238"/>
<path d="M159.964 207.652C162.158 207.652 164.698 208.409 166.053 210.208C166.103 210.274 166.004 210.351 165.938 210.318C164.02 209.302 161.996 208.498 159.903 207.921C159.868 207.913 159.837 207.891 159.817 207.86C159.798 207.829 159.791 207.792 159.799 207.756C159.807 207.72 159.829 207.689 159.86 207.67C159.891 207.65 159.928 207.644 159.964 207.652Z" fill="#263238"/>
<path d="M184.327 210.104C186.79 210.104 186.768 213.944 184.327 213.944C181.886 213.944 181.847 210.087 184.327 210.104Z" fill="#263238"/>
<path d="M162.866 203.044C164.04 204.575 165.84 205.546 167.398 206.626C167.434 206.647 167.475 206.659 167.517 206.661C167.559 206.663 167.601 206.655 167.64 206.638C167.678 206.621 167.712 206.595 167.738 206.563C167.765 206.53 167.784 206.492 167.793 206.451C167.801 206.453 167.81 206.453 167.819 206.45C167.827 206.448 167.835 206.444 167.841 206.438C167.848 206.432 167.853 206.424 167.856 206.416C167.859 206.408 167.86 206.399 167.859 206.391C167.706 204.379 167.027 202.444 165.889 200.778C165.209 199.818 163.816 198.919 162.702 199.835C161.588 200.751 162.175 202.155 162.866 203.044ZM162.768 201.228C162.998 198.847 165.143 200.68 165.615 201.409C165.912 201.885 166.178 202.38 166.41 202.891C166.872 203.954 167.281 205.04 167.634 206.144C166.904 205.562 166.125 205.047 165.374 204.498C164.479 203.845 162.647 202.545 162.768 201.228Z" fill="#263238"/>
<path d="M175.648 205.019C175.484 203.587 173.849 203.275 172.697 203.489C170.723 203.902 168.893 204.825 167.386 206.166C167.378 206.171 167.372 206.178 167.367 206.186C167.363 206.194 167.36 206.203 167.36 206.212C167.36 206.222 167.363 206.231 167.367 206.239C167.372 206.247 167.378 206.254 167.386 206.259C167.363 206.294 167.349 206.335 167.345 206.377C167.34 206.419 167.346 206.461 167.362 206.501C167.377 206.54 167.402 206.575 167.434 206.602C167.466 206.63 167.504 206.65 167.545 206.66C169.422 206.956 171.386 207.51 173.3 207.208C174.419 207.055 175.807 206.374 175.648 205.019ZM170.486 206.528C169.559 206.407 168.648 206.237 167.743 206.149C168.78 205.628 169.789 205.052 170.875 204.652C171.397 204.444 171.932 204.272 172.477 204.136C173.322 203.944 176.142 204.103 174.672 205.979C173.81 207.011 171.589 206.665 170.486 206.528Z" fill="#263238"/>
<path d="M223.079 103.496C223.079 103.496 197.718 146.637 197.038 149.666C195.995 154.323 190.455 200.284 190.455 200.284L164.067 199.812C164.067 199.812 168.615 159.282 172.922 145.935C176.027 136.318 198.404 104.423 198.404 104.423L223.079 103.496Z" fill="#37474F"/>
<path d="M166.476 195.763C170.267 195.735 183.696 195.587 188.738 196.053C188.748 196.053 188.758 196.058 188.765 196.065C188.772 196.072 188.776 196.082 188.776 196.092C188.776 196.102 188.772 196.112 188.765 196.119C188.758 196.126 188.748 196.13 188.738 196.13C187.004 196.377 170.267 195.988 166.476 195.867C166.468 195.87 166.459 195.87 166.45 195.869C166.442 195.868 166.434 195.864 166.427 195.859C166.419 195.854 166.414 195.848 166.41 195.84C166.406 195.832 166.404 195.824 166.404 195.815C166.404 195.806 166.406 195.798 166.41 195.79C166.414 195.782 166.419 195.775 166.427 195.77C166.434 195.765 166.442 195.762 166.45 195.761C166.459 195.759 166.468 195.76 166.476 195.763Z" fill="#263238"/>
<path d="M218.751 107.457C217.105 110.063 215.333 112.614 213.633 115.198C211.932 117.782 210.242 120.371 208.569 122.977C205.23 128.178 201.968 133.426 198.782 138.721C197.238 141.159 195.914 143.729 194.827 146.402C193.837 149.088 193.093 151.859 192.605 154.68C192.084 157.516 191.744 160.374 191.426 163.233C191.082 166.275 190.742 169.318 190.405 172.361C189.71 178.579 189.015 184.807 188.321 191.046C188.233 191.809 188.151 192.577 188.074 193.339C188.074 193.455 188.26 193.476 188.277 193.339C189.05 187.151 189.698 180.947 190.405 174.748L191.459 165.52C191.782 162.651 192.095 159.782 192.556 156.924C192.968 154.113 193.589 151.336 194.415 148.618C195.32 145.801 196.536 143.095 198.042 140.548C201.097 135.276 204.334 130.092 207.571 124.924C210.807 119.757 214.126 114.501 217.544 109.383C217.961 108.752 218.389 108.121 218.828 107.501C218.888 107.452 218.784 107.408 218.751 107.457Z" fill="#263238"/>
<path d="M200.658 220.006C201.86 220.083 234.271 211.542 235.28 210.466C235.324 210.401 235.351 210.325 235.357 210.247C235.483 209.183 233.826 205.205 232.663 200.109C232.592 199.785 231.983 198.238 231.127 196.148C228.774 190.415 224.577 180.562 224.577 180.562L203.418 185.994L211.208 201.656L212.261 205.337C212.261 205.337 201.558 213.9 200.582 215.212C199.605 216.523 199.462 219.919 200.658 220.006Z" fill="#EB9481"/>
<path d="M200.659 220.007C201.86 220.084 234.271 211.542 235.28 210.467C235.325 210.402 235.351 210.326 235.357 210.247C235.483 209.183 233.827 205.206 232.664 200.109C232.592 199.786 231.983 198.239 231.127 196.148L211.214 201.634L212.267 205.315C212.267 205.315 201.564 213.879 200.587 215.19C199.611 216.501 199.463 219.919 200.659 220.007Z" fill="white"/>
<path d="M200.659 220.001C201.86 220.089 234.271 211.542 235.28 210.467C235.664 210.061 234.825 205.678 232.664 200.109L212.267 205.343C212.267 205.343 201.564 213.896 200.587 215.218C199.611 216.54 199.463 219.919 200.659 220.001Z" fill="#1769FF"/>
<path d="M200.785 218.618C206.051 217.115 227.435 211.541 232.757 210.449C232.8 210.449 232.806 210.449 232.757 210.488C227.572 212.09 206.144 217.493 200.801 218.717C200.697 218.733 200.675 218.651 200.785 218.618Z" fill="#263238"/>
<path d="M202.327 213.528C202.912 213.359 203.525 213.313 204.129 213.395C204.732 213.476 205.312 213.682 205.832 213.999C206.771 214.564 207.458 215.467 207.752 216.523C207.752 216.556 207.697 216.572 207.686 216.523C207.235 215.519 206.47 214.69 205.506 214.158C204.543 213.627 203.433 213.423 202.343 213.577C202.34 213.582 202.335 213.586 202.329 213.589C202.324 213.591 202.317 213.592 202.311 213.591C202.305 213.59 202.299 213.588 202.295 213.584C202.29 213.58 202.286 213.575 202.284 213.569C202.282 213.563 202.282 213.557 202.284 213.551C202.285 213.545 202.288 213.54 202.293 213.535C202.297 213.531 202.302 213.528 202.308 213.527C202.314 213.525 202.321 213.526 202.327 213.528Z" fill="#263238"/>
<path d="M210.347 206.4C212.459 205.819 215.114 205.928 216.88 207.322C216.952 207.377 216.88 207.475 216.803 207.459C214.697 206.964 212.543 206.697 210.379 206.663C210.349 206.659 210.321 206.646 210.3 206.624C210.279 206.603 210.265 206.575 210.261 206.544C210.258 206.514 210.264 206.484 210.279 206.458C210.295 206.432 210.318 206.411 210.347 206.4Z" fill="#263238"/>
<path d="M208.876 207.464C210.988 206.883 213.644 206.993 215.41 208.386C215.481 208.441 215.41 208.54 215.328 208.523C213.22 208.039 211.066 207.783 208.904 207.761C208.864 207.764 208.825 207.752 208.795 207.727C208.765 207.702 208.745 207.666 208.742 207.626C208.738 207.587 208.75 207.548 208.776 207.518C208.801 207.487 208.837 207.468 208.876 207.464Z" fill="#263238"/>
<path d="M207.401 208.529C209.518 207.947 212.168 208.057 213.94 209.451C214.006 209.505 213.94 209.599 213.858 209.588C211.751 209.094 209.597 208.829 207.434 208.798C207.401 208.797 207.37 208.784 207.346 208.762C207.322 208.74 207.307 208.71 207.303 208.677C207.299 208.645 207.307 208.612 207.324 208.585C207.342 208.558 207.37 208.538 207.401 208.529Z" fill="#263238"/>
<path d="M205.93 209.589C208.042 209.013 210.698 209.123 212.464 210.516C212.535 210.571 212.464 210.665 212.387 210.648C210.28 210.16 208.126 209.897 205.963 209.864C205.927 209.868 205.89 209.858 205.861 209.835C205.833 209.812 205.814 209.779 205.81 209.743C205.805 209.707 205.815 209.67 205.838 209.641C205.861 209.612 205.894 209.594 205.93 209.589Z" fill="#263238"/>
<path d="M230.102 205.77C232.482 205.155 233.437 208.858 231.051 209.467C228.664 210.076 227.715 206.379 230.102 205.77Z" fill="#263238"/>
<path d="M207.56 204.398C209.091 205.577 211.077 206.043 212.854 206.707C212.895 206.718 212.937 206.72 212.979 206.712C213.02 206.703 213.059 206.685 213.092 206.659C213.125 206.633 213.152 206.599 213.169 206.561C213.187 206.523 213.196 206.481 213.194 206.438C213.203 206.438 213.212 206.436 213.22 206.431C213.228 206.427 213.234 206.421 213.239 206.413C213.244 206.406 213.247 206.397 213.248 206.388C213.249 206.379 213.247 206.37 213.243 206.362C212.584 204.452 211.434 202.749 209.908 201.424C209.008 200.673 207.428 200.151 206.584 201.325C205.739 202.499 206.671 203.712 207.56 204.398ZM207.011 202.67C206.627 200.305 209.167 201.539 209.809 202.121C210.219 202.504 210.602 202.914 210.956 203.35C211.676 204.257 212.348 205.202 212.969 206.181C212.113 205.807 211.23 205.511 210.363 205.166C209.321 204.76 207.22 203.97 207.006 202.67H207.011Z" fill="#263238"/>
<path d="M220.424 203.055C219.903 201.711 218.23 201.826 217.182 202.331C215.377 203.23 213.84 204.588 212.727 206.27C212.722 206.277 212.718 206.285 212.716 206.294C212.714 206.303 212.715 206.313 212.717 206.321C212.72 206.33 212.725 206.338 212.731 206.344C212.738 206.351 212.746 206.355 212.755 206.358C212.743 206.398 212.74 206.44 212.748 206.482C212.755 206.523 212.772 206.562 212.797 206.595C212.822 206.629 212.855 206.656 212.892 206.675C212.929 206.694 212.971 206.703 213.013 206.703C214.905 206.511 216.946 206.544 218.718 205.782C219.755 205.337 220.923 204.323 220.424 203.055ZM215.816 205.831C214.894 205.946 213.967 206.018 213.073 206.166C213.918 205.374 214.802 204.625 215.723 203.922C216.174 203.59 216.647 203.287 217.138 203.017C217.906 202.611 220.677 202.051 219.711 204.24C219.157 205.453 216.924 205.694 215.816 205.831Z" fill="#263238"/>
<path d="M209.76 200.63L233.47 194.408C233.47 194.408 210.769 149.737 210.978 146.654C211.142 143.911 227.606 119.948 228.533 115.461C230.02 108.115 226.443 101.554 222.976 97.4941L198.454 104.406C198.454 104.406 200.406 108.647 203.994 111.324C203.994 111.324 188.584 137.053 188.189 145.523C187.794 153.994 209.76 200.63 209.76 200.63Z" fill="#37474F"/>
<path d="M209.31 196.241C212.744 195.259 211.746 195.495 215.197 194.546C216.886 194.085 227.984 191.052 229.63 190.893C229.669 190.893 229.685 190.947 229.63 190.964C228.116 191.644 216.969 194.486 215.273 194.914C211.806 195.792 212.788 195.501 209.31 196.346C209.272 196.351 209.244 196.241 209.31 196.241Z" fill="#263238"/>
<path d="M200.192 110.353C202.542 111.225 204.812 112.297 206.978 113.557C206.996 113.565 207.009 113.581 207.015 113.599C207.022 113.618 207.02 113.638 207.011 113.655C207.003 113.673 206.987 113.686 206.969 113.692C206.95 113.698 206.93 113.697 206.913 113.688C204.625 112.69 202.288 111.735 200.061 110.616C200.03 110.596 200.008 110.566 199.998 110.531C199.989 110.496 199.992 110.458 200.009 110.426C200.025 110.393 200.053 110.368 200.087 110.354C200.121 110.341 200.158 110.34 200.192 110.353Z" fill="#263238"/>
<path d="M203.072 109.749C203.246 110.18 203.393 110.622 203.511 111.071C203.64 111.422 203.697 111.795 203.681 112.168C203.674 112.181 203.663 112.191 203.651 112.198C203.638 112.206 203.624 112.21 203.61 112.21C203.595 112.21 203.581 112.206 203.568 112.198C203.556 112.191 203.545 112.181 203.538 112.168C203.333 111.84 203.177 111.483 203.077 111.11C202.929 110.698 202.77 110.292 202.639 109.881C202.545 109.617 202.979 109.486 203.072 109.749Z" fill="#263238"/>
<path d="M203.072 107.528C202.974 107.15 202.875 106.776 202.771 106.398C202.666 106.019 202.524 105.63 202.447 105.235C202.447 105.175 202.337 105.202 202.354 105.235C202.447 105.613 202.491 106.008 202.557 106.392C202.623 106.776 202.699 107.16 202.776 107.539C202.921 108.258 203.104 108.968 203.325 109.668C202.939 109.639 202.564 109.525 202.228 109.333C201.9 109.062 201.666 108.696 201.558 108.285C201.405 107.857 201.268 107.424 201.108 107.001C200.911 106.538 200.753 106.059 200.637 105.57C200.637 105.504 200.527 105.531 200.538 105.57C200.727 106.604 201.019 107.616 201.41 108.592C201.58 108.976 201.706 109.371 202.085 109.558C202.501 109.734 202.95 109.822 203.402 109.816C203.451 109.816 203.528 109.816 203.517 109.744C203.402 109.042 203.259 108.269 203.072 107.528Z" fill="#263238"/>
<path d="M203.478 112.18C202.546 113.865 201.481 115.472 200.483 117.118C199.484 118.764 198.585 120.365 197.674 122.011C195.842 125.336 194.141 128.748 192.589 132.215C191.821 133.93 191.089 135.666 190.394 137.421C189.671 139.168 189.076 140.965 188.611 142.797C188.175 144.626 188.093 146.522 188.37 148.382C188.717 150.289 189.208 152.167 189.84 154C191.111 158.197 192.658 162.306 194.47 166.299C194.531 166.431 194.75 166.332 194.701 166.195C193.406 162.541 192.067 158.899 190.899 155.223C189.774 151.635 188.436 147.916 189.056 144.103C189.402 142.274 189.924 140.483 190.614 138.754C191.279 136.977 191.989 135.219 192.742 133.482C194.234 130.054 195.902 126.724 197.614 123.405C198.568 121.545 199.572 119.707 200.543 117.853C201.514 115.999 202.469 114.079 203.56 112.279C203.593 112.175 203.528 112.131 203.478 112.18Z" fill="#263238"/>
<path d="M221.335 108.581C220.89 108.51 220.237 108.664 218.323 108.532C217.79 108.485 217.262 108.399 216.743 108.274C216.216 108.192 215.714 107.989 215.278 107.682C214.583 107.024 214.015 106.242 213.605 105.377C213.092 104.486 212.699 103.53 212.436 102.536C212.436 102.475 212.332 102.503 212.343 102.563C212.447 103.112 212.502 103.66 212.65 104.242C212.791 104.764 212.975 105.274 213.199 105.767C213.551 106.742 214.141 107.613 214.916 108.301C215.783 108.954 216.995 109.075 218.043 109.152C218.652 109.196 221.038 109.152 221.335 108.79C221.422 108.729 221.417 108.598 221.335 108.581Z" fill="#263238"/>
<path d="M227.584 189.306C224.592 183.228 221.666 177.111 218.806 170.956C215.946 164.801 213.171 158.6 210.479 152.353C209.734 150.886 209.141 149.348 208.707 147.761C208.339 146.022 208.877 144.47 209.612 142.895C210.98 140.04 212.509 137.265 214.193 134.584C215.839 131.885 217.616 129.246 219.355 126.597C221.153 124.001 222.802 121.305 224.292 118.521C225.642 115.828 226.393 112.959 226.009 109.941C225.625 106.924 224.325 104.137 222.937 101.488C222.57 100.791 222.191 100.1 221.84 99.3974C221.813 99.348 221.73 99.3974 221.763 99.4468C223.31 102.223 224.797 105.136 225.521 108.224C225.894 109.764 226.009 111.354 225.861 112.931C225.668 114.523 225.22 116.074 224.534 117.523C223.245 120.354 221.445 122.965 219.75 125.56C218.055 128.155 216.25 130.854 214.56 133.542C212.844 136.233 211.267 139.01 209.837 141.864C209.212 143.142 208.526 144.475 208.372 145.907C208.208 147.482 208.773 148.985 209.382 150.406C212.015 156.583 214.791 162.71 217.61 168.805C220.43 174.9 223.354 181.017 226.322 187.073L227.419 189.361C227.491 189.487 227.628 189.399 227.584 189.306Z" fill="#263238"/>
<path d="M197.91 51.7425C198.458 49.2354 201.245 43.563 206.747 44.6711C214.603 46.2565 215.739 61.3922 219.65 66.1101C226.733 74.6572 226.963 83.1165 221.159 84.4715C214.653 85.9856 208.322 78.9856 208.541 63.8993C208.69 54.4525 206.029 50.2667 204.153 50.5465C202.276 50.8263 201.24 53.2127 201.24 53.2127L197.91 51.7425Z" fill="#263238"/>
<path d="M198.173 50.8038C198.561 49.6343 199.09 48.5162 199.747 47.4738C200.407 46.4058 201.281 45.4866 202.315 44.7748C203.385 44.0516 204.655 43.6832 205.946 43.7215C207.227 43.7601 208.478 44.1083 209.595 44.7364C210.683 45.3874 211.618 46.2649 212.338 47.3093C213.049 48.3354 213.639 49.4398 214.098 50.6008C214.97 52.9026 215.581 55.2947 215.92 57.7325C215.322 55.3756 214.548 53.0668 213.605 50.8257C213.115 49.7299 212.514 48.6876 211.811 47.7152C211.128 46.7555 210.249 45.9515 209.232 45.3563C208.215 44.7758 207.073 44.4467 205.903 44.3962C204.744 44.342 203.596 44.6404 202.611 45.252C201.6 45.8893 200.723 46.7165 200.027 47.6878C199.664 48.1727 199.328 48.6783 199.023 49.2019C198.716 49.7066 198.436 50.2497 198.173 50.8038Z" fill="#263238"/>
<path d="M208.514 58.6934C208.597 60.191 208.514 61.6942 208.482 63.1918C208.449 64.6895 208.388 66.1816 208.383 67.6738C208.377 69.166 208.427 70.6527 208.58 72.1284C208.705 73.5974 208.974 75.0508 209.381 76.4678C209.767 77.8757 210.417 79.1975 211.296 80.3628C212.218 81.4971 213.332 82.4608 214.587 83.21C215.844 83.9727 217.263 84.4276 218.729 84.5375C219.463 84.5942 220.2 84.5555 220.924 84.4223C221.296 84.3528 221.662 84.2574 222.021 84.1371C222.378 84.0314 222.718 83.8744 223.03 83.6708C222.419 84.1162 221.722 84.4317 220.984 84.5979C220.248 84.7897 219.49 84.8837 218.729 84.8777C217.962 84.8637 217.199 84.755 216.458 84.554C215.719 84.3462 215.007 84.0535 214.335 83.6817C213.662 83.3128 213.026 82.8792 212.437 82.3871L212.004 82.014L211.587 81.6245C211.304 81.358 211.04 81.072 210.797 80.7687C209.853 79.5451 209.153 78.1522 208.734 76.6652C207.974 73.7286 207.681 70.6905 207.867 67.6628C207.911 66.1597 208.026 64.662 208.158 63.1699C208.29 61.6777 208.465 60.191 208.514 58.6934Z" fill="#263238"/>
<path d="M197.46 51.7862C197.373 51.0895 197.795 50.1404 198.234 49.9704C198.673 49.8003 202.173 50.9249 202.54 51.7643C202.908 52.6036 201.493 53.4978 201.493 53.4978L197.46 51.7862Z" fill="#1769FF"/>
<path d="M201.651 76.4939C199.496 79.5715 183.905 92.3043 175.401 92.7761C171.561 92.9846 156.541 91.3498 153.194 89.9728C149.085 88.2831 157.21 78.1067 159.777 78.5401C162.992 79.0887 174.392 80.2901 176.663 80.3505C180.306 80.4437 191.475 74.316 198.996 72.7196C202.886 71.9022 203.319 74.124 201.651 76.4939Z" fill="#EB9481"/>
<path d="M201.481 77.0767C199.101 81.2295 190.696 88.3503 190.696 88.3503L189.264 85.706L184.524 76.9779C184.524 76.9779 192.49 73.8071 197.773 72.2655C198.393 72.0751 199.028 71.9357 199.671 71.8486C203.083 71.4097 203.528 73.5108 201.481 77.0767Z" fill="#DBDBDB"/>
<path d="M201.482 77.077C199.101 81.2298 190.696 88.3506 190.696 88.3506L189.264 85.7063L188.288 83.907L184.519 76.9837C184.519 76.9837 192.49 73.8019 197.773 72.2603C198.394 72.0752 199.029 71.9377 199.671 71.8489C199.739 71.8438 199.807 71.8438 199.874 71.8489C203.1 71.4978 203.495 73.5824 201.482 77.077Z" fill="#DBDBDB"/>
<path d="M191.547 74.8327C191.73 75.5898 191.73 76.3796 191.547 77.1368C191.364 76.3796 191.364 75.5898 191.547 74.8327ZM189.292 79.3531C188.905 79.3468 188.52 79.393 188.146 79.4902C188.52 79.5848 188.906 79.6309 189.292 79.6274C189.68 79.6305 190.067 79.5845 190.444 79.4902C190.068 79.3933 189.68 79.3472 189.292 79.3531ZM200.944 72.9126C200.556 72.9067 200.168 72.9529 199.792 73.0498C200.168 73.1466 200.556 73.1928 200.944 73.1869C201.331 73.1897 201.716 73.1437 202.091 73.0498C201.716 72.9559 201.331 72.9098 200.944 72.9126ZM196.457 78.6399C196.728 78.9161 197.034 79.1558 197.367 79.3531C197.17 79.0199 196.93 78.7138 196.654 78.4424C196.382 78.1676 196.076 77.928 195.744 77.7292C195.942 78.0614 196.182 78.3674 196.457 78.6399ZM192.03 84.1258C192.301 84.4037 192.607 84.6452 192.94 84.8445C192.745 84.5101 192.505 84.2038 192.227 83.9338C191.956 83.656 191.65 83.4144 191.316 83.2152C191.506 83.548 191.738 83.8542 192.008 84.1258H192.03Z" fill="white"/>
<path d="M192.161 86.4025C191.366 84.7951 187.855 78.3217 187.004 76.9721C186.944 76.8789 186.873 76.8899 186.916 76.9721C188.472 80.2065 190.2 83.3545 192.095 86.4025C192.117 86.4683 192.183 86.4463 192.161 86.4025Z" fill="#263238"/>
<path d="M201.482 77.076C199.101 81.2288 190.696 88.3496 190.696 88.3496L189.265 85.7053L188.288 83.906C192.847 79.4075 198.338 73.8722 199.874 71.8369C203.1 71.4968 203.495 73.5814 201.482 77.076Z" fill="#A6A6A6"/>
<path d="M193.707 96.2047L194.953 109.919C196.63 109.842 198.302 109.674 199.961 109.415C204.337 108.758 208.673 107.855 212.947 106.71C217.187 105.613 222.157 104.099 227.841 102.08C227.841 102.08 214.987 78.8966 206.117 72.5C205.914 72.3519 205.716 72.2147 205.513 72.0885C205.475 72.0556 205.436 72.0392 205.398 72.0117C201.366 69.4608 197.718 71.4632 195.699 74.3049C195.189 75.018 190.251 86.2422 190.498 90.0056C190.723 93.3136 193.707 96.2047 193.707 96.2047Z" fill="#DBDBDB"/>
<path d="M200.839 81.5244C200.937 81.8986 200.983 82.2843 200.977 82.6709C200.982 83.0594 200.936 83.4468 200.839 83.823C200.743 83.4468 200.696 83.0594 200.702 82.6709C200.699 82.2845 200.745 81.8991 200.839 81.5244ZM203.829 95.8865C203.826 96.2748 203.872 96.6619 203.966 97.0386C204.066 96.6629 204.112 96.2751 204.104 95.8865C204.109 95.4981 204.063 95.1107 203.966 94.7345C203.872 95.1112 203.826 95.4983 203.829 95.8865ZM213.402 87.7125C213.396 88.1009 213.442 88.4884 213.539 88.8646C213.722 88.1074 213.722 87.3176 213.539 86.5605C213.442 86.9366 213.396 87.3241 213.402 87.7125ZM195.847 94.1365C195.841 94.5249 195.888 94.9124 195.984 95.2886C196.167 94.5314 196.167 93.7416 195.984 92.9845C195.888 93.3607 195.841 93.7481 195.847 94.1365ZM206.907 84.026C206.519 84.0228 206.132 84.0689 205.755 84.1631C206.512 84.3459 207.302 84.3459 208.059 84.1631C207.684 84.0693 207.299 84.0233 206.912 84.026H206.907ZM215.07 94.2572C214.681 94.2486 214.294 94.2948 213.918 94.3944C214.675 94.5771 215.465 94.5771 216.222 94.3944C215.848 94.298 215.462 94.2519 215.075 94.2572H215.07ZM202.661 102.365C202.274 102.359 201.888 102.405 201.514 102.503C201.888 102.6 202.274 102.646 202.661 102.64C203.049 102.646 203.437 102.599 203.813 102.503C203.438 102.409 203.053 102.363 202.666 102.365H202.661ZM217.116 100.785C216.73 100.782 216.344 100.828 215.97 100.923C216.725 101.106 217.513 101.106 218.268 100.923C217.892 100.828 217.504 100.782 217.116 100.785ZM200.944 72.895C200.555 72.8892 200.168 72.9353 199.792 73.0322C200.168 73.1291 200.555 73.1752 200.944 73.1693C201.33 73.1722 201.715 73.1261 202.09 73.0322C201.715 72.9438 201.329 72.9033 200.944 72.9115V72.895ZM206.814 75.435C207.085 75.7129 207.391 75.9544 207.724 76.1537C207.53 75.8184 207.29 75.5119 207.011 75.243C206.74 74.9651 206.434 74.7236 206.1 74.5243C206.298 74.8636 206.54 75.1753 206.819 75.4515L206.814 75.435ZM218.8 88.2666C219.072 88.5444 219.378 88.786 219.711 88.9852C219.515 88.6512 219.275 88.3449 218.998 88.0746C218.725 87.798 218.42 87.5565 218.087 87.3559C218.283 87.6949 218.523 88.0066 218.8 88.283V88.2666ZM199.633 89.6381C199.904 89.9159 200.21 90.1575 200.543 90.3567C200.134 89.6848 199.569 89.1206 198.897 88.7109C199.099 89.0568 199.347 89.3741 199.633 89.6545V89.6381ZM210.659 98.9257C210.931 99.2036 211.237 99.4452 211.57 99.6444C211.16 98.9725 210.596 98.4082 209.924 97.9986C210.127 98.3387 210.374 98.6504 210.659 98.9257ZM196.484 78.6278C196.755 78.904 197.061 79.1437 197.394 79.341C197.197 79.0078 196.957 78.7017 196.681 78.4303C196.409 78.1555 196.103 77.9159 195.77 77.7172C195.96 78.0516 196.19 78.3612 196.456 78.6388L196.484 78.6278ZM195.705 85.8363C195.981 85.5639 196.223 85.258 196.423 84.9257C196.089 85.1212 195.783 85.3611 195.513 85.6388C195.235 85.9101 194.993 86.2162 194.794 86.5495C195.116 86.352 195.412 86.1162 195.677 85.8473L195.705 85.8363ZM221.735 95.6342C222.013 95.3642 222.253 95.0579 222.448 94.7235C221.775 95.1311 221.21 95.6958 220.803 96.3693C221.134 96.168 221.439 95.9246 221.708 95.6452L221.735 95.6342ZM197.125 99.5621C197.402 99.2907 197.641 98.9846 197.839 98.6514C197.165 99.059 196.6 99.6237 196.193 100.297C196.525 100.096 196.829 99.8525 197.098 99.5731L197.125 99.5621ZM211.817 80.6521C212.095 80.3809 212.336 80.0748 212.535 79.7415C212.201 79.9393 211.895 80.181 211.625 80.4601C211.347 80.7314 211.105 81.0375 210.906 81.3708C211.229 81.173 211.526 80.9352 211.789 80.6631L211.817 80.6521ZM208.174 105.284C208.453 105.014 208.695 104.708 208.893 104.373C208.559 104.571 208.252 104.813 207.982 105.092C207.704 105.363 207.463 105.669 207.263 106.003C207.586 105.805 207.883 105.567 208.147 105.295L208.174 105.284ZM208.174 90.4719C208.455 90.2032 208.697 89.8967 208.893 89.5613C208.221 89.9709 207.657 90.5351 207.247 91.207C207.583 91.0024 207.889 90.7533 208.158 90.4664L208.174 90.4719Z" fill="white"/>
<path d="M202.881 71.7764C202.804 72.325 200.62 75.8908 198.24 75.9841C197.461 76.0115 197.115 71.7873 197.115 71.7873L197.016 71.4801L195.661 67.1956L200.511 63.4816L201.218 62.9824C201.218 62.9824 201.509 64.1838 201.86 65.676L201.91 65.89C201.91 65.9723 201.953 66.0491 201.97 66.1313L202.135 66.8061C202.173 66.9817 202.211 67.1517 202.244 67.3547L202.359 67.9033C202.621 69.1809 202.795 70.475 202.881 71.7764Z" fill="#EB9481"/>
<path d="M201.882 65.676C201.547 66.9418 200.941 68.1194 200.104 69.1265C199.267 70.1337 198.221 70.9463 197.038 71.5076L195.683 67.223L200.511 63.4816L201.218 62.9824C201.218 62.9824 201.509 64.1564 201.882 65.676Z" fill="#263238"/>
<path d="M189.648 60.7396C189.61 68.6284 194.333 69.5445 196.034 69.55C197.575 69.55 202.836 69.3799 203.714 61.5351C204.592 53.6902 200.911 51.1831 197.383 50.9802C193.856 50.7772 189.687 52.8344 189.648 60.7396Z" fill="#EB9481"/>
<path d="M203.258 62.0675C201.969 62.1992 201.613 59.4946 201.613 59.4946C201.613 59.4946 198.985 59.5714 198.025 55.8081C198.127 56.9402 198.558 58.0177 199.265 58.9076C199.265 58.9076 194.607 58.5456 192.555 54.7054C192.555 54.7054 193.384 56.6639 194.13 57.3496C192.946 57.0155 191.908 56.2929 191.184 55.2979C191.184 55.2979 190.427 57.5581 189.818 58.189C189.818 58.189 188.918 54.2172 190.569 52.1545C194.048 47.7657 199.758 51.6059 199.758 51.6059C199.758 51.6059 202.951 52.0886 204.092 54.4805C205.853 58.1396 203.258 62.0675 203.258 62.0675Z" fill="#263238"/>
<path d="M202.43 62.1155C202.43 62.1155 203.944 59.5207 205.113 60.0418C206.281 60.563 205.277 64.2276 204.016 64.8201C203.86 64.9079 203.687 64.9634 203.51 64.9833C203.332 65.0032 203.152 64.987 202.98 64.9358C202.809 64.8846 202.649 64.7994 202.511 64.6853C202.374 64.5712 202.26 64.4304 202.178 64.2715L202.43 62.1155Z" fill="#EB9481"/>
<path d="M190.636 59.1423C190.821 59.1101 191.004 59.0661 191.184 59.0106C191.378 58.9889 191.559 58.9041 191.7 58.7693C191.739 58.72 191.76 58.6591 191.76 58.5965C191.76 58.5338 191.739 58.4729 191.7 58.4237C191.606 58.3414 191.492 58.2855 191.37 58.2614C191.248 58.2373 191.121 58.246 191.003 58.2865C190.752 58.3341 190.527 58.4729 190.372 58.676C190.342 58.7223 190.325 58.776 190.323 58.8312C190.322 58.8864 190.335 58.941 190.362 58.9891C190.389 59.0372 190.429 59.077 190.477 59.104C190.526 59.131 190.58 59.1442 190.636 59.1423Z" fill="#263238"/>
<path d="M195.782 59.7564C195.597 59.7381 195.414 59.7088 195.233 59.6686C195.032 59.6648 194.839 59.5933 194.684 59.4657C194.645 59.4168 194.623 59.3558 194.623 59.2929C194.623 59.2299 194.645 59.1689 194.684 59.12C194.77 59.0302 194.879 58.9655 194.999 58.9326C195.118 58.8998 195.245 58.9001 195.365 58.9335C195.619 58.9617 195.855 59.0805 196.028 59.2682C196.064 59.3133 196.086 59.3677 196.092 59.4249C196.097 59.4821 196.087 59.5397 196.061 59.591C196.035 59.6423 195.995 59.6851 195.945 59.7144C195.896 59.7437 195.839 59.7583 195.782 59.7564Z" fill="#263238"/>
<path d="M194.75 61.3691C194.75 61.3691 194.789 61.3691 194.789 61.4185C194.789 61.9671 194.86 62.5815 195.337 62.7516V62.7845C194.75 62.7077 194.635 61.8848 194.75 61.3691Z" fill="#263238"/>
<path d="M195.205 60.7997C196.072 60.7174 196.171 62.4455 195.364 62.5388C194.558 62.632 194.475 60.8656 195.205 60.7997Z" fill="#263238"/>
<path d="M195.551 60.8702C195.71 60.9635 195.869 61.1281 196.056 61.139C196.242 61.15 196.418 60.9525 196.549 60.7715H196.577C196.577 61.1061 196.489 61.4572 196.138 61.5285C195.787 61.5999 195.589 61.3091 195.458 60.98C195.441 60.9306 195.491 60.8373 195.551 60.8702Z" fill="#263238"/>
<path d="M191.727 61.3965C191.727 61.3965 191.683 61.4239 191.689 61.4459C191.738 61.9944 191.689 62.6144 191.228 62.8228C191.228 62.8228 191.228 62.8557 191.228 62.8228C191.826 62.7296 191.859 61.9012 191.727 61.3965Z" fill="#263238"/>
<path d="M191.206 60.8652C190.334 60.8652 190.378 62.5988 191.206 62.6098C192.035 62.6207 191.941 60.8762 191.206 60.8652Z" fill="#263238"/>
<path d="M190.849 60.9858C190.712 61.0845 190.581 61.2546 190.416 61.271C190.252 61.2875 190.076 61.101 189.95 60.9199H189.922C189.922 61.2546 190.043 61.6002 190.367 61.655C190.69 61.7099 190.866 61.4137 190.915 61.079C190.954 61.0406 190.91 60.9473 190.849 60.9858Z" fill="#263238"/>
<path d="M192.633 63.7896C192.633 63.7896 192.556 64.5795 192.556 64.98C193.295 64.9575 194.033 65.035 194.75 65.2104C194.921 65.2598 194.91 65.1171 194.718 65.0129C194.145 64.7047 193.494 64.573 192.847 64.6344C192.819 64.5302 192.99 63.3891 192.929 63.3891C192.635 63.4261 192.347 63.5036 192.073 63.6195C192.183 61.9243 192.567 60.2566 192.649 58.5669C192.649 58.5539 192.644 58.5413 192.635 58.532C192.626 58.5228 192.613 58.5176 192.6 58.5176C192.587 58.5176 192.574 58.5228 192.565 58.532C192.556 58.5413 192.551 58.5539 192.551 58.5669C192.087 60.3372 191.8 62.1491 191.695 63.9761C191.711 64.1791 192.485 63.8609 192.633 63.7896Z" fill="#263238"/>
<path d="M193.45 64.9795C193.725 65.3407 194.11 65.6026 194.547 65.7256C195.211 65.7914 195.255 65.177 194.514 64.8972C194.158 64.8267 193.79 64.8551 193.45 64.9795Z" fill="#263238"/>
<path d="M194.558 65.7266C194.308 65.6847 194.075 65.5746 193.883 65.4084C194.004 65.1945 194.311 64.9531 195.035 65.2987C195.151 65.5511 194.98 65.7705 194.558 65.7266Z" fill="#FF99BA"/>
<path d="M201.723 70.832C202.689 70.832 204.313 71.0734 206.507 72.7411C206.507 72.7411 201.932 76.4222 197.675 76.4222C196.155 76.4222 195.7 74.2991 195.7 74.2991C195.7 74.2991 197.746 70.8649 201.723 70.832Z" fill="#EB9481"/>
<path d="M274 228.785H256.077C243.054 228.785 235.088 219.782 233.656 203.44C232.949 195.381 232.515 185.627 232.06 175.302C230.655 143.577 228.73 100.145 216.381 100.145H202.189V96.8535H216.381C231.873 96.8535 233.64 136.665 235.346 175.165C235.801 185.457 236.235 195.178 236.937 203.143C237.831 213.336 241.874 225.487 256.077 225.487H274V228.785Z" fill="#1769FF"/>
<path opacity="0.2" d="M212.612 96.8418L211.91 100.133H202.189V96.8418H212.612Z" fill="black"/>
<path d="M175.44 78.7871H169.702V118.884H175.44V78.7871Z" fill="#1769FF"/>
<path d="M169.707 81.75H147.89V115.51H169.707V81.75Z" fill="#1769FF"/>
<path opacity="0.2" d="M169.701 81.7559V115.516H164.281L161.851 81.7559H169.701Z" fill="black"/>
<path d="M131.146 87.8125H147.884V92.8595H131.146C130.573 92.8595 130.023 92.6318 129.618 92.2265C129.213 91.8211 128.985 91.2713 128.985 90.6981V89.9794C128.984 89.6951 129.04 89.4135 129.148 89.1506C129.256 88.8877 129.415 88.6488 129.616 88.4475C129.817 88.2462 130.055 88.0865 130.318 87.9775C130.581 87.8686 130.862 87.8125 131.146 87.8125Z" fill="#DBDBDB"/>
<path d="M147.884 87.8125H142.008V92.8541H147.884V87.8125Z" fill="#A6A6A6"/>
<path d="M131.146 104.406H147.884V109.453H131.146C130.573 109.453 130.023 109.226 129.618 108.82C129.213 108.415 128.985 107.865 128.985 107.292V106.573C128.984 106.289 129.04 106.007 129.148 105.744C129.256 105.481 129.415 105.243 129.616 105.041C129.817 104.84 130.055 104.68 130.318 104.571C130.581 104.462 130.862 104.406 131.146 104.406Z" fill="#DBDBDB"/>
<path d="M147.884 104.406H142.008V109.448H147.884V104.406Z" fill="#A6A6A6"/>
<path d="M209.348 95.4102H192.303V102.141H209.348V95.4102Z" fill="#1769FF"/>
<path d="M209.348 95.4141H192.303V102.145H209.348V95.4141Z" fill="#1769FF"/>
<path opacity="0.2" d="M198.288 95.4141L197.729 102.145H192.303V95.4141H198.288Z" fill="black"/>
<path d="M175.44 83.0215H188.93C189.825 83.0215 190.683 83.3769 191.316 84.0097C191.948 84.6424 192.304 85.5005 192.304 86.3953V110.868C192.304 111.763 191.948 112.621 191.316 113.254C190.683 113.886 189.825 114.242 188.93 114.242H175.44V83.0215Z" fill="#1769FF"/>
<path opacity="0.2" d="M182.615 83.0215L180.185 114.242H175.445V83.0215H182.615Z" fill="black"/>
<g opacity="0.2">
<path d="M181.359 89.3301H180.284V107.927H181.359V89.3301Z" fill="black"/>
<path d="M184.409 89.3301H183.334V107.927H184.409V89.3301Z" fill="black"/>
<path d="M187.46 89.3301H186.384V107.927H187.46V89.3301Z" fill="black"/>
</g>
<path d="M207.768 76.5774C209.655 81.8714 206.951 101.264 203.753 105.373C199.002 111.462 189.615 117.064 186.028 118.814C184.459 119.576 177.431 108.341 178.962 107.293C182.253 105.038 192.737 99.6567 193.626 98.587C194.514 97.5172 199.298 87.2421 201.213 81.4654C203.786 73.7083 206.819 73.9058 207.768 76.5774Z" fill="#EB9481"/>
<path d="M186.016 118.847C181.041 121.688 171.139 121.271 169.789 120.86L168.044 120.311C165.965 119.724 165.406 118.578 165.406 118.578C165.406 118.578 162.805 118.611 162.52 117.042C162.202 115.281 165.916 115.577 168.061 114.491C172.998 112.006 179.263 107.09 180.607 106.234L186.016 118.847Z" fill="#EB9481"/>
<path d="M175.045 115.51C173.616 116.258 172.137 116.905 170.617 117.446C168.922 117.938 167.193 118.304 165.444 118.543C165.436 118.546 165.429 118.552 165.423 118.559C165.418 118.567 165.416 118.575 165.416 118.584C165.416 118.593 165.418 118.602 165.423 118.609C165.429 118.617 165.436 118.622 165.444 118.626C168.877 118.532 172.218 117.5 175.105 115.641C175.176 115.597 175.116 115.477 175.045 115.51Z" fill="#263238"/>
<path d="M176.976 118.259C175.516 118.863 172.943 119.905 168.039 120.267C168.039 120.267 168.039 120.295 168.039 120.3C171.154 120.515 174.267 119.86 177.031 118.407C177.118 118.342 177.074 118.221 176.976 118.259Z" fill="#263238"/>
<path d="M173.794 111.126C174.304 110.578 174.002 110.281 172.653 110.523C171.303 110.764 166.174 112.882 165.587 111.033C165 109.184 172.285 106.298 174.562 106.063C176.619 105.956 178.681 106.017 180.728 106.244C179.422 107.088 176.328 109.436 173.794 111.126Z" fill="#EB9481"/>
<path d="M202.475 77.9104C205.794 70.9268 208.822 72.7755 209.113 79.6823C209.21 84.4787 208.994 89.2764 208.465 94.0445L196.435 90.5993C196.435 90.5993 200.352 82.3814 202.475 77.9104Z" fill="#DBDBDB"/>
<path d="M205.47 73.8398C206.142 74.2494 206.706 74.8137 207.115 75.4856C206.443 75.076 205.879 74.5117 205.47 73.8398ZM200.702 82.6832C200.696 83.0716 200.743 83.459 200.839 83.8352C200.936 83.459 200.982 83.0716 200.977 82.6832C200.983 82.2965 200.937 81.9108 200.839 81.5366C200.745 81.9113 200.699 82.2967 200.702 82.6832ZM206.912 84.0382C206.524 84.035 206.137 84.0811 205.76 84.1753C206.518 84.3581 207.307 84.3581 208.064 84.1753C207.688 84.0774 207.301 84.0276 206.912 84.0272V84.0382ZM199.633 89.6558C199.904 89.9336 200.21 90.1752 200.543 90.3744C200.134 89.7025 199.569 89.1382 198.897 88.7286C199.101 89.0687 199.348 89.3804 199.633 89.6558ZM208.158 90.4677C208.438 90.199 208.68 89.8925 208.876 89.557C208.204 89.9666 207.64 90.5309 207.231 91.2028C207.572 91.0011 207.884 90.7538 208.158 90.4677Z" fill="white"/>
<path d="M201.334 80.039C200.884 80.9551 200.412 81.8548 199.94 82.7819C200.021 82.354 200.086 81.9206 200.138 81.4818H200.105C200.039 81.8219 199.957 82.162 199.891 82.5022C199.863 82.6667 199.83 82.8313 199.798 82.9959C199.798 83.0288 199.798 83.0617 199.798 83.1001C199.43 83.8023 199.068 84.51 198.7 85.2232C198.283 86.079 197.894 86.9403 197.499 87.8016C197.104 88.6629 196.736 89.7162 196.292 90.5884C196.67 90.7459 197.064 90.8635 197.466 90.9395C197.57 90.9779 197.625 90.8737 197.515 90.8572C197.406 90.8408 196.506 90.4842 196.495 90.4787C196.89 89.6064 197.378 88.7835 197.795 87.9277C198.212 87.0719 198.64 86.2271 199.04 85.3658C199.852 83.6213 200.566 81.8274 201.372 80.0774C201.372 80.0335 201.334 80.017 201.334 80.039Z" fill="#263238"/>
<path d="M209.611 84.1967C209.501 84.5533 209.375 84.9099 209.282 85.2939C209.249 85.4475 209.211 85.5956 209.172 85.7492C209.216 84.4984 209.256 83.2513 209.293 82.0078C209.123 84.0486 208.947 86.0839 208.816 88.1246C208.625 90.079 208.535 92.0419 208.547 94.0055C208.186 93.9201 207.819 93.8632 207.45 93.8355C207.849 94.005 208.267 94.1247 208.695 94.192C208.997 92.2171 209.019 90.0337 209.117 88.0478C209.145 87.4992 209.161 86.9506 209.183 86.3636C209.249 86.018 209.348 85.6779 209.441 85.3378C209.534 84.9976 209.606 84.6027 209.682 84.2406C209.655 84.1857 209.617 84.1747 209.611 84.1967Z" fill="#263238"/>
<path d="M207.977 92.2228C206.282 91.6193 199.26 89.403 197.713 89.0245C197.603 88.9971 197.559 89.0574 197.669 89.0958C201.035 90.3466 204.467 91.4106 207.95 92.2831C207.994 92.2996 208.021 92.2338 207.977 92.2228Z" fill="#263238"/>
<path d="M148.997 90.3634C150.643 90.8681 150.308 88.6189 150.308 88.6189C150.308 88.6189 151.598 91.7349 153.512 91.5977C155.427 91.4606 154.834 88.756 154.801 88.5585C154.867 88.7231 156.129 91.5539 158.038 91.2192C159.947 90.8846 159.031 88.2404 158.965 88.0758C159.08 88.2074 160.611 89.9575 162.015 89.3705C164.407 88.361 160.589 83.7748 160.869 81.6902L164.232 81.7889C164.342 81.7782 164.452 81.7618 164.561 81.7395L164.687 80.0224C163.612 79.5862 162.574 79.0652 161.582 78.4644C160.315 77.7513 159.091 77.1039 158.181 77.082C157.772 77.0602 157.367 77.1706 157.026 77.3969C156.686 77.6232 156.427 77.9533 156.288 78.3383C156.288 78.3383 155.301 76.7803 153.786 76.9997C153.013 77.1149 152.508 78.459 152.508 78.459C152.265 78.1148 151.931 77.845 151.544 77.6793C151.156 77.5137 150.731 77.4589 150.314 77.5209C149.25 77.7403 148.909 79.0569 148.909 79.0569C148.909 79.0569 147.56 78.2615 146.545 78.843C144.51 79.9731 145.442 89.2662 148.997 90.3634Z" fill="#EB9481"/>
<path d="M161.286 81.4916L164.216 81.7604C164.326 81.7497 164.436 81.7332 164.545 81.711C168.242 81.0417 170.546 76.8066 167.836 76.5049C165.801 76.269 163.596 78.9735 161.538 78.4304L161.286 81.4916Z" fill="#EB9481"/>
<path d="M148.838 79.2266H148.789C148.322 82.4716 148.854 85.7817 150.314 88.7172C150.363 88.8105 150.533 88.7666 150.5 88.6569C149.491 85.6109 148.931 82.4341 148.838 79.2266Z" fill="#263238"/>
<path d="M152.509 78.3862C152.509 78.3478 152.449 78.3478 152.443 78.3862C151.949 81.9642 152.751 85.6008 154.703 88.6394C154.775 88.7436 154.945 88.7656 154.868 88.6394C153.65 86.5219 152.509 81.398 152.509 78.3862Z" fill="#263238"/>
<path d="M159.185 88.208C157.293 85.2236 156.541 81.9321 156.261 78.443C156.261 78.3991 156.195 78.4101 156.184 78.443C155.861 80.1875 156.272 82.3929 156.733 84.0825C157.136 85.6582 157.943 87.1011 159.076 88.2683C159.13 88.3177 159.229 88.2738 159.185 88.208Z" fill="#263238"/>
<path d="M112.845 213.249C111.71 213.628 79.1948 213.535 77.955 212.75C77.4886 212.454 77.2253 207.714 77.0717 201.981C77.0333 200.747 77.0114 199.469 76.9894 198.168C76.9894 196.632 76.9455 195.074 76.9346 193.56C76.8962 186.769 76.9894 180.789 76.9894 180.789H98.1596V193.56V198.168L98.0499 201.981C98.0499 201.981 110.481 207.588 111.765 208.597C113.048 209.607 113.981 212.898 112.845 213.249Z" fill="#AD6359"/>
<path d="M112.845 213.25C111.71 213.628 79.1948 213.535 77.955 212.75C77.4886 212.454 77.2253 207.714 77.0717 201.981C77.0333 200.747 77.0114 199.469 76.9894 198.169C76.9894 196.633 76.9455 195.075 76.9346 193.561H98.1486V198.169L98.0389 201.981C98.0389 201.981 110.47 207.588 111.754 208.597C113.037 209.607 113.981 212.898 112.845 213.25Z" fill="white"/>
<path d="M112.944 213.321C112.204 213.568 98.357 213.617 88.2574 213.409C85.9204 213.354 83.7864 213.293 82.0693 213.217C79.6939 213.107 78.103 212.981 77.8451 212.816C77.2691 212.449 77.0003 205.493 76.8687 198.152H98.1376L98.0279 201.992C98.0279 201.992 110.53 207.632 111.803 208.647C113.076 209.662 114.107 212.937 112.944 213.321Z" fill="#1769FF"/>
<path d="M112.462 212.015C106.976 211.861 84.8673 211.773 79.4362 212.042C79.3923 212.042 79.3923 212.069 79.4362 212.075C84.8673 212.344 106.981 212.251 112.462 212.102C112.593 212.097 112.599 212.015 112.462 212.015Z" fill="#263238"/>
<path d="M98.8237 200.774C96.6677 200.368 94.029 200.691 92.3777 202.222C92.3119 202.282 92.3777 202.37 92.471 202.348C94.5337 201.687 96.6618 201.251 98.8182 201.048C98.8545 201.049 98.8897 201.035 98.916 201.01C98.9422 200.984 98.9573 200.95 98.9581 200.913C98.9588 200.877 98.945 200.842 98.9198 200.816C98.8946 200.789 98.86 200.774 98.8237 200.774Z" fill="#263238"/>
<path d="M100.392 201.728C98.2362 201.316 95.5975 201.64 93.9407 203.176C93.8804 203.231 93.9407 203.324 94.034 203.302C96.1 202.638 98.2317 202.198 100.392 201.991C100.421 201.983 100.446 201.966 100.463 201.942C100.481 201.918 100.491 201.889 100.491 201.86C100.491 201.83 100.481 201.801 100.463 201.777C100.446 201.754 100.421 201.736 100.392 201.728Z" fill="#263238"/>
<path d="M101.934 202.662C99.7782 202.25 97.1394 202.574 95.4882 204.104C95.4223 204.165 95.4882 204.258 95.5759 204.236C97.6394 203.577 99.7671 203.139 101.923 202.93C101.955 202.926 101.983 202.91 102.004 202.886C102.025 202.862 102.038 202.832 102.039 202.801C102.04 202.769 102.031 202.738 102.011 202.712C101.992 202.687 101.965 202.669 101.934 202.662Z" fill="#263238"/>
<path d="M103.486 203.605C101.33 203.194 98.6916 203.517 97.0403 205.048C96.9745 205.108 97.0403 205.201 97.1336 205.179C99.1943 204.517 101.321 204.08 103.475 203.874C103.507 203.869 103.535 203.853 103.556 203.83C103.578 203.806 103.59 203.776 103.591 203.744C103.592 203.712 103.583 203.681 103.564 203.656C103.544 203.63 103.517 203.612 103.486 203.605Z" fill="#263238"/>
<path d="M102.823 195.8C101.978 194.631 100.398 195.152 99.4982 195.904C97.9727 197.229 96.8224 198.931 96.1628 200.841C96.1592 200.849 96.1577 200.858 96.1584 200.867C96.1591 200.876 96.162 200.885 96.1669 200.893C96.1718 200.9 96.1785 200.907 96.1864 200.911C96.1943 200.915 96.2031 200.918 96.2122 200.918C96.2122 201.083 96.3658 201.258 96.5468 201.187C98.3297 200.534 100.321 200.057 101.846 198.872C102.74 198.18 103.624 196.908 102.823 195.8ZM99.0484 199.64C98.1816 199.98 97.2984 200.282 96.4426 200.655C97.0649 199.675 97.7369 198.729 98.4559 197.818C98.8078 197.381 99.191 196.971 99.6025 196.59C100.244 196.003 102.79 194.768 102.4 197.138C102.186 198.438 100.085 199.228 99.0484 199.64Z" fill="#263238"/>
<path d="M90.6827 200.254C92.4546 201.016 94.5228 200.983 96.388 201.175C96.43 201.175 96.4714 201.165 96.5089 201.146C96.5465 201.128 96.5792 201.101 96.6047 201.067C96.6301 201.034 96.6476 200.995 96.6557 200.954C96.6637 200.913 96.6623 200.87 96.6514 200.83C96.6582 200.825 96.6637 200.818 96.6675 200.81C96.6713 200.803 96.6733 200.794 96.6733 200.786C96.6733 200.777 96.6713 200.769 96.6675 200.761C96.6637 200.754 96.6582 200.747 96.6514 200.742C95.5443 199.061 94.016 197.699 92.2187 196.792C91.1545 196.287 89.4758 196.178 88.9711 197.522C88.4664 198.866 89.6458 199.809 90.6827 200.254ZM89.7117 198.718C88.7461 196.523 91.5165 197.072 92.2846 197.483C92.777 197.756 93.2516 198.061 93.7054 198.394C94.6289 199.095 95.5151 199.844 96.3606 200.638C95.439 200.49 94.5119 200.418 93.5847 200.303C92.4766 200.166 90.2438 199.924 89.7117 198.718Z" fill="#263238"/>
<path d="M101.166 196.66L74.9322 197.132C74.9322 197.132 71.3609 173.921 69.0129 159.488C68.1242 154.062 67.422 149.871 67.1367 148.609C66.4565 145.597 53.1641 97.793 53.1641 97.793L72.2331 97.7656H78.7504C78.7504 97.7656 78.3335 105.759 78.5804 106.598C81.9816 118.168 88.9323 138.685 91.1047 145.833C94.4347 156.822 101.166 196.66 101.166 196.66Z" fill="#A6A6A6"/>
<path d="M98.7799 192.638C95.0165 192.61 81.6638 192.462 76.6496 192.928C76.6425 192.931 76.6364 192.936 76.6321 192.943C76.6278 192.949 76.6255 192.956 76.6255 192.964C76.6255 192.972 76.6278 192.979 76.6321 192.986C76.6364 192.992 76.6425 192.997 76.6496 193C78.3777 193.247 95.0165 192.863 98.7853 192.742C98.7937 192.744 98.8025 192.744 98.8109 192.743C98.8194 192.741 98.8273 192.737 98.834 192.732C98.8408 192.726 98.8461 192.719 98.8496 192.711C98.8531 192.703 98.8547 192.695 98.8543 192.686C98.8538 192.677 98.8513 192.669 98.847 192.662C98.8427 192.654 98.8366 192.648 98.8294 192.643C98.8221 192.638 98.8139 192.635 98.8052 192.634C98.7966 192.633 98.7879 192.635 98.7799 192.638Z" fill="#263238"/>
<path d="M75.3604 172.856C74.4533 166.855 73.4421 160.868 72.3266 154.895C71.778 151.96 71.1801 149.031 70.4121 146.118C69.644 143.205 68.6675 140.325 67.6691 137.467C65.7051 131.783 63.8289 126.072 62.068 120.323C60.307 114.574 58.6667 108.803 57.1306 102.982C56.9331 102.247 56.7411 101.512 56.5272 100.788C56.5272 100.727 56.4229 100.755 56.4339 100.788C57.0319 103.717 57.8054 106.619 58.546 109.516C59.2866 112.412 60.0821 115.298 60.9104 118.173C62.5781 123.944 64.3867 129.675 66.336 135.365C67.307 138.196 68.3164 141.021 69.1777 143.891C70.039 146.76 70.7083 149.667 71.3063 152.597C72.5186 158.543 73.55 164.529 74.5045 170.514C75.4591 176.499 76.2765 182.583 77.0774 188.617C77.1817 189.38 77.2804 190.148 77.3792 190.916C77.4066 191.13 77.7467 191.13 77.7248 190.916C77.1049 184.898 76.2546 178.869 75.3604 172.856Z" fill="#263238"/>
<path d="M72.2331 97.7539L69.0129 159.487C68.1242 154.061 67.422 149.87 67.1367 148.608C66.4565 145.597 53.1641 97.7923 53.1641 97.7923L72.2331 97.7539Z" fill="#263238"/>
<path d="M80.3083 218.45C79.1727 218.829 46.6577 218.736 45.4178 217.946C44.9515 217.655 44.6882 212.915 44.5346 207.182C44.4962 205.943 44.4743 204.67 44.4523 203.37C44.4523 201.828 44.4084 200.276 44.3975 198.761C44.3591 191.97 44.4523 185.99 44.4523 185.99H65.617V203.375L65.5073 207.188C65.5073 207.188 77.9384 212.794 79.2221 213.804C80.5058 214.813 81.4439 218.077 80.3083 218.45Z" fill="#AD6359"/>
<path d="M80.3088 218.451C79.1732 218.829 46.6582 218.736 45.4183 217.946C44.952 217.655 44.6887 212.915 44.5351 207.183C44.4967 205.943 44.4748 204.67 44.4528 203.37C44.4528 201.828 44.4089 200.276 44.3979 198.762H65.612V203.375L65.5023 207.188C65.5023 207.188 77.9334 212.795 79.2171 213.804C80.5008 214.814 81.4444 218.078 80.3088 218.451Z" fill="white"/>
<path d="M80.4074 218.499C79.6668 218.74 65.8148 218.789 55.7207 218.581C53.3892 218.532 51.2552 218.466 49.5326 218.394C47.1627 218.285 45.5717 218.153 45.3084 217.988C44.7598 217.621 44.4636 210.67 44.3374 203.33H65.6063L65.4966 207.17C65.4966 207.17 78.01 212.804 79.2827 213.797C80.5555 214.79 81.5484 218.115 80.4074 218.499Z" fill="#1769FF"/>
<path d="M79.941 217.189C74.4551 217.04 52.3413 216.947 46.9157 217.216C46.8718 217.216 46.8718 217.249 46.9157 217.254C52.3413 217.518 74.4606 217.43 79.941 217.282C80.0562 217.276 80.0562 217.194 79.941 217.189Z" fill="#263238"/>
<path d="M66.2862 205.953C64.1302 205.541 61.4915 205.865 59.8402 207.395C59.7744 207.456 59.8402 207.549 59.928 207.527C61.9915 206.868 64.1192 206.43 66.2752 206.221C66.3066 206.217 66.3352 206.201 66.3564 206.177C66.3775 206.154 66.3897 206.123 66.391 206.092C66.3923 206.06 66.3826 206.029 66.3635 206.003C66.3443 205.978 66.317 205.96 66.2862 205.953Z" fill="#263238"/>
<path d="M67.8393 206.896C65.6833 206.485 63.0446 206.808 61.3933 208.339C61.3275 208.399 61.3933 208.492 61.4866 208.47C63.5491 207.808 65.6772 207.37 67.8338 207.165C67.8649 207.159 67.8932 207.143 67.9137 207.119C67.9343 207.095 67.9459 207.064 67.9465 207.033C67.9472 207.001 67.9368 206.97 67.9173 206.945C67.8977 206.92 67.8702 206.903 67.8393 206.896Z" fill="#263238"/>
<path d="M69.3966 207.834C67.2406 207.428 64.6019 207.752 62.9451 209.282C62.8848 209.343 62.9451 209.431 63.0384 209.409C65.1019 208.751 67.2297 208.315 69.3856 208.108C69.422 208.11 69.4574 208.097 69.4842 208.072C69.5109 208.047 69.5268 208.013 69.5282 207.977C69.5297 207.94 69.5166 207.905 69.492 207.878C69.4673 207.851 69.433 207.836 69.3966 207.834Z" fill="#263238"/>
<path d="M70.9498 208.778C68.7938 208.372 66.1551 208.695 64.5038 210.226C64.438 210.286 64.5038 210.374 64.5916 210.352C66.6552 209.695 68.7829 209.259 70.9388 209.052C70.9752 209.053 71.0106 209.04 71.0374 209.016C71.0641 208.991 71.08 208.957 71.0814 208.92C71.0829 208.884 71.0698 208.848 71.0451 208.822C71.0204 208.795 70.9861 208.779 70.9498 208.778Z" fill="#263238"/>
<path d="M70.2854 200.977C69.4405 199.803 67.8606 200.325 66.9554 201.082C65.4299 202.406 64.2796 204.109 63.62 206.019C63.6175 206.028 63.617 206.037 63.6186 206.046C63.6201 206.055 63.6236 206.063 63.6289 206.071C63.6342 206.078 63.6411 206.084 63.649 206.088C63.657 206.093 63.6658 206.095 63.6748 206.096C63.6724 206.138 63.68 206.18 63.697 206.218C63.7141 206.256 63.7401 206.29 63.7728 206.317C63.8056 206.343 63.8441 206.361 63.8853 206.369C63.9265 206.378 63.9691 206.376 64.0095 206.365C65.7924 205.712 67.7783 205.234 69.3089 204.05C70.2196 203.375 71.0808 202.08 70.2854 200.977ZM66.5111 204.818C65.6388 205.163 64.7611 205.459 63.9053 205.838C64.5581 204.878 65.167 203.896 65.9131 203.002C66.2679 202.566 66.6509 202.153 67.0597 201.767C67.707 201.186 70.247 199.952 69.863 202.316C69.671 203.616 67.5479 204.406 66.5111 204.812V204.818Z" fill="#263238"/>
<path d="M58.1505 205.432C59.9279 206.194 61.9907 206.161 63.8614 206.353C63.9039 206.354 63.9459 206.344 63.9839 206.325C64.0219 206.306 64.0548 206.278 64.08 206.244C64.1051 206.209 64.1218 206.17 64.1286 206.128C64.1354 206.086 64.1322 206.043 64.1192 206.002C64.1277 205.999 64.1355 205.995 64.142 205.988C64.1484 205.982 64.1534 205.975 64.1566 205.966C64.1597 205.958 64.161 205.949 64.1602 205.94C64.1594 205.931 64.1567 205.922 64.1521 205.914C63.0343 204.235 61.4967 202.877 59.6921 201.976C58.6278 201.471 56.9491 201.361 56.4444 202.705C55.9397 204.049 57.1027 204.987 58.1505 205.432ZM57.185 203.89C56.2195 201.696 58.9899 202.244 59.7579 202.661C60.2514 202.931 60.7261 203.233 61.1787 203.567C62.1009 204.271 62.9871 205.022 63.8339 205.816C62.9068 205.662 61.9797 205.596 61.0526 205.481C59.9389 205.344 57.7061 205.103 57.174 203.89H57.185Z" fill="#263238"/>
<path d="M68.5744 201.526H42.9058C42.9058 201.526 48.4849 121.936 47.5853 117.476C46.1095 110.174 47.0915 101.786 50.5477 97.7266H73.3856C73.3856 97.7266 73.8409 104.134 71.4819 107.963C71.4819 107.963 69.3369 109.318 68.3001 109.916L68.5744 201.526Z" fill="#A6A6A6"/>
<path d="M66.1821 197.373C62.6272 197.285 63.6531 197.258 60.0928 197.208C58.3537 197.181 46.9265 197.022 45.2808 197.28C45.2424 197.28 45.2424 197.346 45.2808 197.351C46.9265 197.631 58.3482 197.592 60.0928 197.581C63.6476 197.581 62.6272 197.532 66.1821 197.477C66.1931 197.474 66.2027 197.467 66.2094 197.457C66.2162 197.448 66.2199 197.437 66.2199 197.425C66.2199 197.414 66.2162 197.402 66.2094 197.393C66.2027 197.384 66.1931 197.377 66.1821 197.373Z" fill="#263238"/>
<path d="M72.9077 106.96C70.6623 108.042 68.5132 109.314 66.4837 110.762C66.467 110.772 66.455 110.788 66.4503 110.807C66.4457 110.826 66.4488 110.846 66.459 110.863C66.4692 110.88 66.4856 110.892 66.5046 110.897C66.5237 110.901 66.5438 110.898 66.5605 110.888C68.7549 109.686 70.9492 108.523 73.0558 107.207C73.0886 107.187 73.1122 107.155 73.1214 107.118C73.1307 107.081 73.1248 107.042 73.1052 107.009C73.0856 106.977 73.0537 106.953 73.0167 106.944C72.9796 106.934 72.9404 106.94 72.9077 106.96Z" fill="#263238"/>
<path d="M69.995 106.63C69.8648 107.073 69.7622 107.524 69.6878 107.98C69.5946 108.338 69.5704 108.71 69.6165 109.077C69.6165 109.148 69.7317 109.143 69.7646 109.077C69.9367 108.731 70.0551 108.361 70.1157 107.98C70.2254 107.557 70.3461 107.14 70.4393 106.718C70.5052 106.449 70.0828 106.356 69.995 106.63Z" fill="#263238"/>
<path d="M69.7915 104.43C69.8518 104.046 69.9122 103.668 69.9835 103.289C70.0548 102.91 70.1535 102.499 70.1919 102.104C70.1919 102.038 70.3017 102.06 70.2907 102.104C70.2303 102.488 70.2249 102.883 70.1919 103.267C70.159 103.651 70.1261 104.041 70.0877 104.425C70.0105 105.148 69.8969 105.868 69.7476 106.581C70.1265 106.516 70.4863 106.368 70.8009 106.147C71.0925 105.847 71.2841 105.464 71.3495 105.05C71.4592 104.611 71.5579 104.172 71.6731 103.733C71.8285 103.258 71.9405 102.77 72.0078 102.274C72.0078 102.208 72.1175 102.23 72.1065 102.274C72.0173 103.317 71.8225 104.348 71.525 105.352C71.4609 105.75 71.2566 106.112 70.949 106.372C70.5529 106.583 70.1181 106.712 69.6708 106.751C69.6214 106.751 69.5446 106.751 69.5501 106.69C69.593 105.933 69.6736 105.179 69.7915 104.43Z" fill="#263238"/>
<path d="M51.2932 117.184C51.1286 115.505 50.8543 113.838 50.6733 112.159C50.3303 108.798 50.534 105.404 51.2768 102.109C51.2768 102.048 51.1945 102.021 51.1835 102.109C50.5339 105.003 50.2319 107.964 50.2838 110.93C50.4319 113.893 50.9586 116.811 51.0025 119.779C51.0463 122.747 50.8159 125.786 50.6239 128.781C50.4319 131.777 50.2344 134.816 50.0424 137.828C49.2634 149.946 48.5448 162.064 47.8042 174.188C47.5994 177.568 47.4019 180.951 47.2117 184.337C47.0142 187.777 46.7728 191.222 46.6631 194.673C46.6631 194.969 47.091 194.947 47.1184 194.673C47.6341 188.589 47.9303 182.483 48.3198 176.399C48.7093 170.315 49.055 164.33 49.417 158.296C49.7791 152.261 50.1467 146.227 50.5142 140.192C50.6898 137.178 50.8726 134.165 51.0628 131.151C51.2383 128.15 51.4578 125.144 51.5017 122.138C51.5258 120.484 51.4562 118.83 51.2932 117.184Z" fill="#263238"/>
<path d="M59.3798 101.885C59.3748 101.877 59.368 101.871 59.3598 101.866C59.3517 101.862 59.3425 101.859 59.3331 101.859C59.3238 101.859 59.3146 101.862 59.3065 101.866C59.2983 101.871 59.2914 101.877 59.2865 101.885C59.1503 102.283 59.078 102.699 59.0726 103.12C59.0015 103.569 58.897 104.013 58.7599 104.447C58.508 105.32 58.0357 106.114 57.3884 106.751C55.9511 108.095 54.0255 108.595 52.1713 109.044C52.159 109.048 52.1483 109.056 52.1406 109.066C52.133 109.077 52.1289 109.089 52.1289 109.102C52.1289 109.115 52.133 109.127 52.1406 109.138C52.1483 109.148 52.159 109.156 52.1713 109.16C53.273 109.209 54.3736 109.038 55.408 108.655C56.3306 108.373 57.1819 107.896 57.9041 107.256C58.5936 106.6 59.0647 105.748 59.2536 104.815C59.3516 104.327 59.4031 103.831 59.4072 103.334C59.4072 103.098 59.4072 102.862 59.4072 102.62C59.4465 102.376 59.4372 102.126 59.3798 101.885Z" fill="#263238"/>
<path d="M70.1316 71.097C70.6034 74.8274 77.9107 88.6958 85.6897 94.8401C88.5424 97.0948 103.667 98.4279 107.452 98.1316C111.88 97.7915 112.543 87.253 110.064 86.4301C106.964 85.4043 92.6239 84.137 89.8097 83.1386C86.3864 81.8988 80.1544 73.9387 74.2296 69.0123C71.1849 66.4614 69.7696 68.2278 70.1316 71.097Z" fill="#AD6359"/>
<path d="M107.453 98.1388C108.852 98.1004 115.254 97.3652 116.993 96.7618C118.732 96.1583 123.576 94.0627 123.269 92.6857C122.961 91.3088 121.469 91.808 121.469 91.808C121.469 91.808 123.384 90.5956 122.929 89.2406C122.473 87.8856 120.186 88.7414 120.186 88.7414C120.186 88.7414 122.062 87.3534 121.508 86.0313C120.954 84.7092 118.82 85.9545 118.82 85.9545C118.82 85.9545 120.597 84.7641 119.686 83.8644C118.589 82.7672 115.561 85.3511 113.597 85.8722C113.147 85.9929 104.37 87.6332 104.37 87.6332L107.453 98.1388Z" fill="#AD6359"/>
<path d="M119.045 85.8494C116.812 87.7256 115.512 88.1645 112.67 88.554C112.66 88.5574 112.652 88.5637 112.646 88.572C112.64 88.5804 112.637 88.5904 112.637 88.6006C112.637 88.6109 112.64 88.6209 112.646 88.6292C112.652 88.6376 112.66 88.6439 112.67 88.6473C115.484 88.5156 117.196 88.2029 119.138 85.9537C119.22 85.844 119.132 85.7617 119.045 85.8494Z" fill="#263238"/>
<path d="M120.378 88.5871C117.892 90.3645 116.488 90.8198 113.559 91.4617C113.52 91.4617 113.531 91.544 113.559 91.5385C116.499 91.16 118.2 90.8089 120.454 88.7352C120.548 88.6309 120.493 88.5048 120.378 88.5871Z" fill="#263238"/>
<path d="M121.316 91.8348C118.787 93.3544 117.267 93.9524 114.327 94.1992C114.312 94.1992 114.298 94.205 114.288 94.2153C114.278 94.2256 114.272 94.2395 114.272 94.2541C114.272 94.2686 114.278 94.2826 114.288 94.2929C114.298 94.3032 114.312 94.309 114.327 94.309C116.891 94.4634 119.412 93.6044 121.349 91.9171C121.497 91.8019 121.475 91.7415 121.316 91.8348Z" fill="#263238"/>
<path d="M102.34 86.4806C103.818 85.5257 105.363 84.6804 106.964 83.9515C108.512 83.403 115.04 83.403 115.111 84.8183C115.21 86.6397 111.441 87.3693 109.548 87.49C109.548 87.49 109.784 91.6977 107.189 92.8113C104.595 93.925 102.34 86.4806 102.34 86.4806Z" fill="#AD6359"/>
<path d="M114.98 85.3282C113.883 87.0508 111.376 87.0453 109.549 87.2977C109.521 87.2991 109.494 87.3074 109.471 87.322C109.447 87.3365 109.428 87.3567 109.414 87.3808C109.4 87.4048 109.393 87.4319 109.393 87.4596C109.392 87.4873 109.399 87.5146 109.412 87.5391C109.412 89.311 108.863 91.8016 107.3 92.8494C107.25 92.8824 107.3 92.9537 107.338 92.9262C109.154 92.0266 109.889 89.6347 109.785 87.6762C111.661 87.4513 114.173 87.3471 114.996 85.3337C115.002 85.3228 114.985 85.3173 114.98 85.3282Z" fill="#263238"/>
<path d="M94.385 97.9357C94.385 97.9357 86.6389 95.8181 85.6953 95.0775C84.6658 94.2683 83.684 93.4 82.7549 92.4772C75.7055 85.5484 71.4484 76.1017 70.2963 72.8101C69.0785 69.3046 70.1976 65.9472 73.4617 68.2074C73.7244 68.3934 73.9771 68.593 74.2188 68.8054C78.0589 72.1518 88.3286 82.3282 89.5794 82.8494C90.8302 83.3705 96.8592 84.1605 96.8592 84.1605L94.385 97.9357Z" fill="#455A64"/>
<path d="M82.7549 92.4772C75.7055 85.5484 71.4484 76.1017 70.2963 72.8101C69.0785 69.3046 70.1976 65.9472 73.4617 68.2074L82.7549 92.4772Z" fill="#263238"/>
<path d="M94.3582 83.9185C93.9975 84.9773 93.6989 86.0562 93.464 87.1497C93.1951 88.2469 92.9154 89.3441 92.6904 90.4413C92.202 92.5931 91.8357 94.7708 91.5933 96.964C91.5933 96.9771 91.5985 96.9897 91.6077 96.9989C91.617 97.0082 91.6295 97.0134 91.6426 97.0134C91.6557 97.0134 91.6683 97.0082 91.6775 96.9989C91.6868 96.9897 91.692 96.9771 91.692 96.964C92.2845 94.8135 92.7234 92.6137 93.1732 90.4303C93.3981 89.3331 93.6011 88.2688 93.826 87.1936C94.051 86.1184 94.3198 84.9992 94.4404 83.935C94.4426 83.924 94.4404 83.9127 94.4342 83.9035C94.428 83.8942 94.4184 83.8878 94.4075 83.8856C94.3966 83.8834 94.3853 83.8856 94.376 83.8918C94.3668 83.898 94.3603 83.9076 94.3582 83.9185Z" fill="#263238"/>
<path d="M77.6481 78.6956C77.8291 79.5076 77.9718 80.3414 78.0815 81.1972C78.0788 81.1644 78.0788 81.1313 78.0815 81.0985C78.1254 80.6322 78.1583 80.1549 78.2406 79.6941C78.2406 79.6941 78.2845 79.6666 78.2845 79.6941C78.3128 80.1684 78.2944 80.6443 78.2296 81.1149C78.2022 81.3399 78.1747 81.5648 78.1418 81.7842C78.1802 82.1627 78.2131 82.5413 78.2351 82.9143C78.279 83.6275 78.4161 86.6722 78.3997 87.1933C78.3997 87.3031 78.2735 87.314 78.2461 87.1933C78.1418 86.6447 77.8675 83.5233 77.7907 82.8046C77.6471 81.4342 77.5775 80.0571 77.5823 78.6792C77.5932 78.6627 77.6371 78.6682 77.6481 78.6956Z" fill="#263238"/>
<path d="M78.5202 101.484C77.423 102.471 76.0844 103.914 68.3822 104.452C67.8994 104.452 67.4057 104.49 66.9119 104.452C59.495 104.243 49.0882 98.4171 48.4683 97.9563C48.4683 97.9563 56.4613 76.3308 67.0326 68.0306C68.5413 66.8402 71.778 67.4272 73.8023 68.6505C74.5264 69.0894 76.9183 73.0886 77.401 76.7313C77.8838 80.3739 79.6119 100.496 78.5202 101.484Z" fill="#455A64"/>
<path d="M72.513 74.0721C70.6478 74.2257 67.9761 70.9999 67.0984 68.5861C67.038 68.4216 67.5208 66.8471 68.0145 64.9051C68.3108 63.7256 68.6125 62.409 68.799 61.1856C68.8374 60.9333 69.6219 61.5257 69.6219 61.5257L71.147 62.1511L76.194 64.2248C75.5197 65.6878 75.0278 67.2281 74.7293 68.8111C74.7131 68.9826 74.7131 69.1552 74.7293 69.3267C74.7317 69.3541 74.7317 69.3816 74.7293 69.409C74.7129 70.38 74.3124 73.9075 72.513 74.0721Z" fill="#AD6359"/>
<path d="M74.7076 69.3202C74.71 69.3476 74.71 69.3751 74.7076 69.4025C74.4407 69.3991 74.1747 69.3734 73.9121 69.3257C68.7554 68.4205 69.1229 61.7441 69.1229 61.7441L71.1527 62.1446L76.1997 64.2183C75.5254 65.6812 75.0335 67.2215 74.735 68.8045C74.7097 68.9752 74.7005 69.1478 74.7076 69.3202Z" fill="#263238"/>
<path d="M68.2775 53.1491C67.2955 55.8592 68.3433 63.8796 70.2085 65.7667C72.9131 68.5097 77.5487 68.965 79.9022 65.6625C82.1898 62.4697 80.6373 52.0355 78.5362 50.3019C75.4366 47.7619 69.7258 49.1499 68.2775 53.1491Z" fill="#AD6359"/>
<path d="M75.5848 58.6992C75.5848 58.6992 75.5464 58.7321 75.5519 58.7541C75.6342 59.3027 75.6451 59.9226 75.1733 60.164C75.1733 60.164 75.1733 60.1969 75.1733 60.1914C75.7713 60.0323 75.7548 59.193 75.5848 58.6992Z" fill="#263238"/>
<path d="M75.0314 58.1959C74.1537 58.2398 74.3073 59.9898 75.1192 59.9514C75.9311 59.913 75.7665 58.1575 75.0314 58.1959Z" fill="#263238"/>
<path d="M78.9094 58.3379C78.9094 58.3379 78.9533 58.3379 78.9533 58.3818C78.9862 58.9304 79.1124 59.5448 79.6171 59.6874C78.9971 59.6819 78.849 58.8591 78.9094 58.3379Z" fill="#263238"/>
<path d="M79.3481 57.7284C80.2149 57.5912 80.4453 59.3358 79.6279 59.4674C78.8105 59.5991 78.6185 57.8491 79.3481 57.7284Z" fill="#263238"/>
<path d="M74.3508 56.9012C74.5812 56.8189 74.7842 56.7037 75.0091 56.5995C75.2539 56.5282 75.468 56.3777 75.6181 56.1716C75.6546 56.0978 75.6652 56.0139 75.6483 55.9333C75.6314 55.8527 75.5879 55.7802 75.5248 55.7272C75.3822 55.6449 75.2205 55.6016 75.0558 55.6016C74.8911 55.6016 74.7293 55.6449 74.5867 55.7272C74.2719 55.8461 74.0133 56.0792 73.8626 56.3801C73.8351 56.4497 73.8279 56.5256 73.8419 56.5991C73.8559 56.6726 73.8905 56.7406 73.9417 56.7952C73.9929 56.8499 74.0585 56.8888 74.1309 56.9076C74.2033 56.9263 74.2796 56.9241 74.3508 56.9012Z" fill="#263238"/>
<path d="M79.897 57.1363C79.6572 57.1099 79.4191 57.0696 79.1839 57.0156C78.9272 57.0074 78.6805 56.9148 78.4817 56.7523C78.4327 56.6875 78.4062 56.6086 78.4063 56.5274C78.4062 56.4462 78.4327 56.3672 78.4817 56.3025C78.5945 56.1825 78.7379 56.0957 78.8964 56.0512C79.055 56.0067 79.2226 56.0064 79.3814 56.0501C79.7172 56.0849 80.0281 56.2432 80.2536 56.4945C80.301 56.5564 80.3292 56.6308 80.3349 56.7086C80.3406 56.7863 80.3234 56.864 80.2856 56.9322C80.2477 57.0003 80.1908 57.0559 80.1218 57.0922C80.0527 57.1285 79.9746 57.1438 79.897 57.1363Z" fill="#263238"/>
<path d="M78.1467 61.2881C78.2017 61.6828 78.2365 62.0802 78.2509 62.4785C77.5089 62.4815 76.7708 62.5849 76.0565 62.7857C75.892 62.8406 75.892 62.6979 76.0565 62.5882C76.6153 62.2557 77.262 62.1007 77.9108 62.1439C77.9108 62.0396 77.7243 60.904 77.7846 60.8986C78.0793 60.9285 78.3688 60.9968 78.6459 61.1015C78.4758 59.4119 78.037 57.7606 77.8888 56.0764C77.8888 56.0161 77.9711 55.9941 77.9876 56.049C78.5177 57.8029 78.8687 59.606 79.0354 61.4307C79.0848 61.6446 78.3003 61.3484 78.1467 61.2881Z" fill="#263238"/>
<path d="M68.8593 59.8346C70.2417 59.7359 70.0662 56.3565 70.0662 56.3565C70.0662 56.3565 72.1728 55.9506 73.1657 53.065C73.1657 53.065 75.9087 54.7108 78.1744 54.2938C81.7293 53.6026 81.5757 48.967 80.2316 48.0399C78.3225 46.7233 74.9761 48.7146 74.9761 48.7146C74.9761 48.7146 69.8632 47.3596 68.393 50.8267C67.7329 50.8808 67.1179 51.1832 66.672 51.6729C66.226 52.1626 65.9824 52.8032 65.9902 53.4655C65.8585 55.9616 67.8334 59.9059 68.8593 59.8346Z" fill="#263238"/>
<path d="M69.5776 56.7636C70.6005 56.5743 71.531 56.0492 72.2218 55.2715C72.5929 54.851 72.857 54.3471 72.9917 53.8027C73.1264 53.2583 73.1276 52.6895 72.9953 52.1445C72.9987 52.1348 73.005 52.1264 73.0134 52.1205C73.0217 52.1145 73.0317 52.1113 73.042 52.1113C73.0522 52.1113 73.0622 52.1145 73.0706 52.1205C73.0789 52.1264 73.0852 52.1348 73.0886 52.1445C73.2528 52.7151 73.2887 53.3149 73.1939 53.9011C73.099 54.4872 72.8757 55.0451 72.54 55.5348C72.2046 55.9989 71.7539 56.3676 71.2325 56.6042C70.711 56.8409 70.1368 56.9375 69.5666 56.8843C69.5337 56.8569 69.5173 56.7746 69.5776 56.7636Z" fill="#263238"/>
<path d="M74.8387 48.8688C75.2793 48.1414 75.9696 47.5993 76.7807 47.3438C77.7669 47.0639 78.8217 47.1576 79.7431 47.6071C80.1096 47.7992 80.4191 48.0843 80.6406 48.4338C80.8621 48.7834 80.9877 49.185 81.0049 49.5985C81.0159 50.5577 80.6963 51.4914 80.0997 52.2427C80.0997 52.2427 80.0503 52.2427 80.0668 52.2427C80.5428 51.5335 80.7863 50.6937 80.7635 49.8399C80.7486 49.4336 80.6192 49.0398 80.3901 48.704C80.161 48.3681 79.8416 48.1039 79.4688 47.9417C77.9986 47.3108 75.8591 47.4425 74.9155 48.9402C74.8881 48.9731 74.8058 48.9182 74.8387 48.8688Z" fill="#263238"/>
<path d="M69.6714 59.708C69.6714 59.708 67.9543 57.0803 66.7638 57.6892C65.5734 58.2982 66.8187 62.078 68.1737 62.6265C68.3424 62.7089 68.5259 62.7564 68.7134 62.7661C68.9008 62.7758 69.0883 62.7475 69.2645 62.6829C69.4408 62.6184 69.6022 62.5189 69.739 62.3904C69.8758 62.2619 69.9853 62.1071 70.0609 61.9353L69.6714 59.708Z" fill="#AD6359"/>
<path d="M67.1201 58.7598C67.1201 58.7598 67.1201 58.7872 67.1201 58.7982C67.5538 59.0314 67.9337 59.3531 68.2351 59.7424C68.5366 60.1318 68.7529 60.5801 68.8701 61.0584C68.8176 60.9599 68.7442 60.874 68.6551 60.8067C68.566 60.7395 68.4633 60.6925 68.3541 60.669C68.245 60.6455 68.132 60.646 68.0231 60.6707C67.9142 60.6953 67.812 60.7433 67.7236 60.8115C67.7236 60.8115 67.7236 60.8664 67.7236 60.8609C67.894 60.8125 68.0752 60.8181 68.2422 60.8771C68.4093 60.9361 68.5539 61.0454 68.6562 61.19C68.8264 61.4336 68.9699 61.6947 69.0841 61.969C69.128 62.0568 69.2816 62.0129 69.2541 61.9142C69.3309 60.6689 68.4313 58.9243 67.1201 58.7598Z" fill="#263238"/>
<path d="M17.9225 228.785H0V225.493H17.9225C32.1201 225.493 36.1687 213.342 37.0629 203.149C37.7651 195.167 38.193 185.446 38.6483 175.171C40.3545 136.671 42.1209 96.8594 57.6132 96.8594H71.8108V100.151H57.6022C45.2589 100.151 43.3388 143.594 41.9289 175.308C41.4681 185.638 41.0347 195.392 40.3325 203.451C38.9062 219.782 30.9461 228.785 17.9225 228.785Z" fill="#1769FF"/>
<path opacity="0.2" d="M71.8108 96.8438V100.135H60.4878L59.7856 96.8438H71.8108Z" fill="black"/>
<path d="M121.063 119.752H127.108V77.5213H121.063V119.752Z" fill="#1769FF"/>
<path d="M121.063 79.5234H98.0879V117.31H121.063V79.5234Z" fill="#1769FF"/>
<path opacity="0.2" d="M121.063 79.5234V117.31H115.358L112.796 79.5234H121.063Z" fill="black"/>
<path d="M63.2858 101.852H80.3306V95.1203H63.2858V101.852Z" fill="#1769FF"/>
<path d="M80.3309 95.125H63.2861V101.856H80.3309V95.125Z" fill="#1769FF"/>
<path opacity="0.2" d="M74.3457 101.851L74.9053 95.125H80.3308V101.851H74.3457Z" fill="black"/>
<path d="M98.0879 115.074H83.7038C82.809 115.074 81.9508 114.719 81.3181 114.086C80.6854 113.453 80.3299 112.595 80.3299 111.7V85.5654C80.3299 84.6706 80.6854 83.8125 81.3181 83.1798C81.9508 82.547 82.809 82.1916 83.7038 82.1916H98.0879V115.074Z" fill="#1769FF"/>
<path opacity="0.2" d="M90.5288 115.072L93.0907 82.1953H98.0884V115.072H90.5288Z" fill="black"/>
<g opacity="0.2">
<path d="M91.8507 108.422H92.9863V88.8371H91.8507V108.422Z" fill="black"/>
<path d="M88.6413 108.422H89.7769V88.8371H88.6413V108.422Z" fill="black"/>
<path d="M85.4269 108.422H86.5625V88.8371H85.4269V108.422Z" fill="black"/>
</g>
<path d="M62.2377 75.6347C61.6891 83.5564 61.0637 99.6905 64.5637 104.425C69.1554 110.635 82.1186 114.404 85.9588 115.534C87.6046 116.022 91.549 105.111 90.5725 103.542C89.596 101.973 76.2158 98.6042 75.1625 97.6826C74.1092 96.761 70.7738 83.902 69.1883 77.3518C67.1366 69.09 62.4626 72.5077 62.2377 75.6347Z" fill="#AD6359"/>
<path d="M100.458 107.733C102.57 108.238 105.774 107.152 105.878 108.77C105.971 110.207 103.684 110.739 103.684 110.739C103.684 110.739 106.46 110.975 106.12 112.55C105.779 114.124 103.146 114.196 103.146 114.196C103.146 114.196 105.692 114.541 105.236 116.088C104.781 117.635 102.34 117.849 102.34 117.849C102.34 117.849 102.982 118.326 102.17 119.276C101.012 120.636 97.15 120.477 95.1586 119.917C93.1673 119.358 86.2714 115.825 85.2236 115.26L88.7182 102.423C88.7182 102.423 92.7284 101.786 94.8021 101.71C96.8757 101.633 103.772 103.279 103.481 105.001C103.19 106.724 98.335 105.495 97.0787 105.451C95.8224 105.407 95.603 105.687 96.1516 106.148C96.5082 106.471 99.5199 107.508 100.458 107.733Z" fill="#AD6359"/>
<path d="M103.557 110.712C100.315 111.261 98.8012 110.899 95.8278 109.615C95.7675 109.587 95.7181 109.67 95.7784 109.703C98.5763 111.211 100.414 111.897 103.59 110.86C103.749 110.816 103.717 110.69 103.557 110.712Z" fill="#263238"/>
<path d="M103.272 114.14C99.8545 114.387 98.2142 114.042 94.9994 112.934C94.9556 112.934 94.9226 112.994 94.9665 113.016C98.0332 114.36 99.8764 115.013 103.261 114.316C103.415 114.289 103.431 114.13 103.272 114.14Z" fill="#263238"/>
<path d="M102.296 117.827C98.966 117.827 97.1501 117.519 94.1658 116.049C94.152 116.042 94.1362 116.041 94.1215 116.046C94.1069 116.05 94.0944 116.06 94.0867 116.073C94.0791 116.086 94.0767 116.102 94.0802 116.117C94.0837 116.132 94.0927 116.145 94.1054 116.153C97.002 117.953 99.2677 118.348 102.285 117.931C102.488 117.898 102.504 117.827 102.296 117.827Z" fill="#263238"/>
<path d="M75.8378 112.961C75.8378 112.961 65.3761 107.706 63.7688 103.679C61.7938 98.6539 60.9874 84.001 61.7554 76.4852C62.5235 68.9695 67.757 69.9021 69.4357 76.5456C71.0815 83.03 74.7955 95.9822 75.1795 96.5912C75.6677 97.3757 81.6364 98.8514 81.6364 98.8514" fill="#455A64"/>
<path d="M74.7898 94.9118C74.6088 94.2919 74.2906 92.893 74.1095 92.2895C73.742 91.0826 73.3744 89.8702 73.0124 88.6633C72.6503 87.4564 72.2608 86.244 71.8603 85.0426C71.789 84.8396 71.7232 84.6311 71.6573 84.4282C71.6903 84.2965 71.5421 82.7056 71.5531 82.3161C71.5531 82.2557 71.4544 82.2503 71.4598 82.3161C71.4745 82.706 71.4616 83.0965 71.4215 83.4846C71.4215 83.5559 71.4215 83.6327 71.4215 83.704C71.1691 82.9141 70.9167 82.1296 70.6589 81.3615C70.6589 81.3067 70.5492 81.3286 70.5656 81.3615C71.0594 83.0073 71.3008 84.0442 71.6628 85.3772C72.0249 86.7103 72.3979 87.9501 72.76 89.2174C73.1221 90.4846 73.5445 91.7738 73.945 93.0575C74.1702 93.8183 74.4339 94.5672 74.7349 95.3013C74.9654 95.795 74.9763 95.5646 74.7898 94.9118Z" fill="#263238"/>
<path d="M62.9893 99.3396C62.7754 97.9846 62.5614 96.5966 62.3968 95.2581C62.0622 92.5151 61.8482 89.816 61.7275 87.0731C61.6562 85.5041 61.541 83.9461 61.4532 82.3826C61.4532 82.3666 61.4469 82.3513 61.4356 82.3399C61.4243 82.3286 61.4089 82.3223 61.3929 82.3223C61.3769 82.3223 61.3615 82.3286 61.3502 82.3399C61.3389 82.3513 61.3326 82.3666 61.3326 82.3826C61.3326 83.776 61.2832 85.164 61.3326 86.5574C61.3326 86.7604 61.3326 86.9634 61.3326 87.1663L61.2667 86.8811C61.0637 86.0856 60.7785 85.3066 60.6029 84.5002C60.5981 84.4909 60.5902 84.4836 60.5805 84.4796C60.5708 84.4757 60.56 84.4753 60.55 84.4786C60.5401 84.4819 60.5317 84.4887 60.5263 84.4977C60.5209 84.5067 60.5189 84.5173 60.5206 84.5276C60.7181 85.3286 60.8224 86.1734 61.0089 86.9579C61.1076 87.3583 61.2064 87.7588 61.3161 88.1593L61.371 88.3294C61.4039 89.1303 61.4423 89.9312 61.4971 90.7322C61.6459 93.481 61.9628 96.2181 62.4462 98.9282C62.7776 100.7 63.2566 102.442 63.878 104.134C63.8811 104.143 63.8868 104.15 63.8941 104.155C63.9015 104.16 63.9102 104.163 63.9192 104.163C63.9281 104.163 63.9369 104.16 63.9442 104.155C63.9516 104.15 63.9572 104.143 63.9603 104.134C63.6366 102.779 63.2087 100.695 62.9893 99.3396Z" fill="#263238"/>
<path d="M79.6945 98.8459C79.1216 99.8308 78.6086 100.849 78.1585 101.896C77.6757 102.927 77.1874 103.959 76.7321 105.001C75.8089 107.054 75.0012 109.156 74.3128 111.299C74.3115 111.311 74.3142 111.323 74.3205 111.333C74.3267 111.344 74.3362 111.352 74.3475 111.356C74.3587 111.36 74.3711 111.361 74.3827 111.358C74.3943 111.354 74.4044 111.347 74.4116 111.337C75.4319 109.308 76.3042 107.195 77.1929 105.105C77.6318 104.074 78.0542 103.032 78.4876 102C78.921 100.969 79.4147 99.9321 79.7494 98.8678C79.7603 98.8349 79.711 98.8185 79.6945 98.8459Z" fill="#263238"/>
<path d="M137.235 70.4567C137.162 70.4567 137.093 70.4278 137.041 70.3764C136.99 70.325 136.961 70.2552 136.961 70.1824V62.4637C136.961 62.391 136.99 62.3212 137.041 62.2698C137.093 62.2184 137.162 62.1895 137.235 62.1895C137.308 62.1895 137.378 62.2184 137.429 62.2698C137.481 62.3212 137.51 62.391 137.51 62.4637V70.1824C137.51 70.2552 137.481 70.325 137.429 70.3764C137.378 70.4278 137.308 70.4567 137.235 70.4567Z" fill="#263238"/>
<path d="M123.268 74.1546C123.22 74.1548 123.172 74.1422 123.129 74.1181C123.087 74.0941 123.052 74.0594 123.027 74.0175L119.187 67.3302C119.164 67.2991 119.148 67.2637 119.14 67.2262C119.132 67.1886 119.132 67.1498 119.14 67.1123C119.148 67.0747 119.164 67.0392 119.186 67.0081C119.209 66.977 119.238 66.951 119.271 66.9317C119.304 66.9124 119.341 66.9003 119.379 66.8961C119.417 66.892 119.456 66.8959 119.492 66.9076C119.529 66.9193 119.562 66.9385 119.591 66.9641C119.62 66.9896 119.643 67.0209 119.659 67.0559L123.499 73.7432C123.517 73.774 123.529 73.8083 123.534 73.8439C123.54 73.8795 123.537 73.9158 123.528 73.9506C123.519 73.9854 123.503 74.018 123.481 74.0464C123.459 74.0749 123.431 74.0986 123.4 74.1162C123.36 74.1407 123.315 74.154 123.268 74.1546Z" fill="#263238"/>
<path d="M119.253 129.19C119.204 129.19 119.157 129.177 119.116 129.151C119.085 129.131 119.059 129.105 119.038 129.075C119.018 129.045 119.004 129.011 118.997 128.975C118.991 128.939 118.991 128.902 118.999 128.866C119.007 128.83 119.023 128.797 119.044 128.767L122.884 122.085C122.902 122.054 122.926 122.027 122.955 122.004C122.984 121.982 123.016 121.966 123.051 121.957C123.086 121.947 123.123 121.945 123.158 121.95C123.194 121.954 123.229 121.966 123.26 121.984C123.291 122.002 123.319 122.026 123.341 122.055C123.363 122.083 123.379 122.116 123.389 122.151C123.398 122.186 123.401 122.222 123.396 122.258C123.391 122.294 123.38 122.328 123.362 122.36L119.521 129.042C119.497 129.09 119.458 129.13 119.41 129.157C119.362 129.183 119.307 129.195 119.253 129.19Z" fill="#263238"/>
<path d="M137.059 134.006C136.987 134.006 136.917 133.977 136.865 133.926C136.814 133.875 136.785 133.805 136.785 133.732V126.024C136.785 125.952 136.814 125.882 136.865 125.83C136.917 125.779 136.987 125.75 137.059 125.75C137.132 125.751 137.201 125.781 137.252 125.832C137.303 125.883 137.332 125.952 137.334 126.024V133.743C137.331 133.814 137.301 133.881 137.25 133.93C137.198 133.979 137.13 134.006 137.059 134.006Z" fill="#263238"/>
<path d="M154.889 129.276C154.842 129.276 154.795 129.263 154.753 129.239C154.712 129.215 154.678 129.181 154.654 129.139L150.813 122.457C150.795 122.426 150.784 122.391 150.779 122.356C150.774 122.32 150.777 122.283 150.786 122.248C150.796 122.213 150.812 122.181 150.834 122.152C150.856 122.124 150.884 122.1 150.915 122.082C150.946 122.064 150.981 122.052 151.017 122.047C151.053 122.043 151.089 122.045 151.124 122.054C151.159 122.064 151.191 122.08 151.22 122.102C151.249 122.124 151.273 122.152 151.291 122.183L155.131 128.865C155.149 128.896 155.162 128.93 155.167 128.966C155.172 129.001 155.17 129.037 155.16 129.072C155.151 129.107 155.135 129.14 155.113 129.168C155.091 129.197 155.064 129.22 155.032 129.238C154.989 129.264 154.94 129.278 154.889 129.276Z" fill="#263238"/>
<path d="M151.181 74.2411C151.133 74.2414 151.085 74.2281 151.044 74.2026C151.013 74.185 150.985 74.1613 150.963 74.1328C150.941 74.1044 150.925 74.0718 150.916 74.037C150.906 74.0022 150.904 73.9659 150.909 73.9303C150.915 73.8947 150.927 73.8604 150.945 73.8296L154.785 67.1423C154.825 67.0873 154.884 67.0492 154.951 67.0352C155.017 67.0212 155.086 67.0323 155.145 67.0665C155.204 67.1006 155.248 67.1553 155.268 67.22C155.289 67.2846 155.285 67.3547 155.257 67.4166L151.417 74.1039C151.392 74.1447 151.358 74.1786 151.317 74.2025C151.275 74.2265 151.229 74.2397 151.181 74.2411Z" fill="#263238"/>
</svg>
