<svg width="280" height="71" viewBox="0 0 280 71" fill="none" xmlns="http://www.w3.org/2000/svg">
<g clip-path="url(#clip0_2677_1482)">
<path d="M115.165 41.9622C115.12 39.5617 115.546 37.1756 116.417 34.9377C117.177 33.0073 118.343 31.2614 119.836 29.8175C121.301 28.4317 123.04 27.3657 124.941 26.6874C126.977 25.9606 129.126 25.5992 131.289 25.62C133.451 25.6002 135.6 25.9615 137.636 26.6874C139.542 27.3698 141.288 28.4351 142.764 29.8175C144.271 31.2551 145.447 33.0021 146.21 34.9377C147.082 37.1756 147.507 39.5617 147.462 41.9622C147.505 44.3688 147.09 46.7618 146.237 49.0137C145.495 50.9547 144.336 52.71 142.841 54.1566C141.37 55.5472 139.623 56.615 137.713 57.2911C135.647 58.0178 133.47 58.379 131.28 58.3586C129.088 58.3788 126.911 58.0081 124.85 57.264C122.943 56.581 121.203 55.5018 119.745 54.0978C118.27 52.6402 117.122 50.8874 116.376 48.9549C115.528 46.7227 115.117 44.3489 115.165 41.9622ZM124.352 41.9622C124.352 45.053 124.982 47.3613 126.242 48.8871C126.85 49.6378 127.625 50.2361 128.506 50.6343C129.387 51.0325 130.349 51.2195 131.316 51.1804C132.287 51.2195 133.254 51.0327 134.14 50.6347C135.026 50.2367 135.807 49.6384 136.421 48.8871C137.682 47.3613 138.312 45.053 138.312 41.9622C138.312 38.8713 137.691 36.5796 136.448 35.087C135.84 34.3368 135.063 33.7391 134.181 33.3417C133.3 32.9443 132.337 32.7582 131.37 32.7982C130.407 32.7626 129.448 32.9479 128.568 33.34C127.687 33.7321 126.909 34.3205 126.292 35.0598C124.998 36.5736 124.352 38.8743 124.352 41.9622Z" fill="black"/>
<path d="M165.013 41.7298C165.013 40.6714 164.711 39.8964 164.106 39.4049C163.408 38.8788 162.546 38.6161 161.672 38.6631C160.989 38.6633 160.31 38.7499 159.649 38.9209C159.035 39.0662 158.454 39.3256 157.936 39.6853V57.4116C157.406 57.5537 156.866 57.6565 156.321 57.7192C155.57 57.8234 154.813 57.8748 154.054 57.873C153.377 57.8793 152.701 57.8279 152.032 57.7192C151.487 57.6393 150.969 57.4299 150.522 57.1086C150.099 56.7833 149.772 56.3506 149.575 55.8556C149.331 55.1946 149.219 54.4925 149.244 53.7885V38.4596C149.206 37.6635 149.411 36.8747 149.833 36.198C150.267 35.5759 150.813 35.0391 151.443 34.6149C152.782 33.7135 154.262 33.0395 155.823 32.6202C157.734 32.0937 159.711 31.8409 161.694 31.8693C165.551 31.8693 168.523 32.7121 170.608 34.3978C172.694 36.0834 173.735 38.4249 173.732 41.4223V57.4116C173.203 57.5537 172.663 57.6565 172.118 57.7192C171.367 57.8234 170.609 57.8748 169.851 57.873C169.174 57.8793 168.497 57.8279 167.829 57.7192C167.284 57.6393 166.766 57.4299 166.319 57.1086C165.896 56.7833 165.569 56.3506 165.371 55.8556C165.128 55.1946 165.015 54.4925 165.04 53.7885L165.013 41.7298Z" fill="black"/>
<path d="M189.234 58.2893C188.654 58.2893 187.974 58.2893 187.185 58.2396C186.396 58.1898 185.589 58.14 184.755 58.036C183.92 57.932 183.091 57.8053 182.27 57.6516C181.495 57.5126 180.736 57.299 180.003 57.0138C178.126 56.2991 177.187 55.0568 177.187 53.2867V29.418C177.169 29.1153 177.211 28.8119 177.313 28.526C177.414 28.24 177.572 27.9773 177.777 27.7535C178.237 27.3221 178.789 26.9991 179.391 26.8081C180.803 26.3424 182.263 26.0389 183.744 25.9035C185.53 25.7149 187.325 25.6213 189.121 25.6231C193.486 25.6231 196.849 26.3543 199.209 27.8168C201.57 29.2793 202.747 31.5409 202.741 34.6015C202.774 36.0349 202.304 37.4346 201.413 38.5593C200.479 39.6984 199.233 40.5422 197.826 40.9882C199.474 41.427 200.959 42.3318 202.102 43.5936C203.264 44.8979 203.878 46.5988 203.816 48.3429C203.816 51.7172 202.562 54.2124 200.053 55.8287C197.544 57.445 193.938 58.2652 189.234 58.2893ZM185.906 38.6226H189.647C191.112 38.6226 192.182 38.3512 192.848 37.8039C193.188 37.5071 193.455 37.136 193.628 36.7194C193.801 36.3028 193.876 35.852 193.846 35.4021C193.855 34.9686 193.754 34.5398 193.553 34.1555C193.351 33.7711 193.056 33.4438 192.694 33.2039C191.923 32.6611 190.77 32.3897 189.234 32.3897C188.722 32.3897 188.133 32.3897 187.471 32.4394C186.947 32.4603 186.424 32.5117 185.906 32.5932V38.6226ZM185.906 51.0884C186.51 51.245 187.129 51.339 187.752 51.3689C188.5 51.4186 189.216 51.4458 189.901 51.4458C191.093 51.49 192.273 51.1984 193.306 50.6045C193.75 50.3296 194.112 49.9395 194.351 49.4759C194.591 49.0123 194.7 48.4925 194.666 47.972C194.666 46.8457 194.294 46.0451 193.542 45.5702C192.789 45.0953 191.647 44.8555 190.109 44.8555H185.911L185.906 51.0884Z" fill="black"/>
<path d="M205.421 32.9924C205.95 32.8547 206.488 32.752 207.031 32.6849C207.782 32.5846 208.539 32.5347 209.298 32.5356C209.975 32.5299 210.651 32.5799 211.32 32.6849C211.865 32.7663 212.383 32.9772 212.83 33.3C213.254 33.6239 213.582 34.0571 213.777 34.5529C214.023 35.2137 214.137 35.9158 214.113 36.62V47.6067C214.113 49.0059 214.454 50.0025 215.138 50.5965C215.818 51.1891 216.811 51.5012 218.107 51.5012C218.753 51.5169 219.398 51.4485 220.025 51.2976C220.422 51.1976 220.809 51.0613 221.182 50.8906V32.9924C221.711 32.8547 222.248 32.752 222.791 32.6849C223.543 32.5846 224.3 32.5347 225.058 32.5356C225.735 32.5299 226.412 32.5799 227.08 32.6849C227.626 32.7663 228.144 32.9772 228.59 33.3C229.014 33.6239 229.342 34.0571 229.538 34.5529C229.783 35.2137 229.897 35.9158 229.873 36.62V52.1525C229.908 52.9278 229.724 53.6973 229.344 54.3743C228.963 55.0512 228.401 55.6086 227.72 55.9836C226.398 56.7854 224.954 57.3645 223.444 57.6979C221.673 58.0997 219.86 58.2955 218.044 58.2814C216.326 58.297 214.613 58.0918 212.948 57.6708C211.495 57.3116 210.128 56.669 208.926 55.7801C207.789 54.9198 206.89 53.785 206.314 52.4827C205.665 50.9411 205.356 49.2781 205.407 47.6067L205.421 32.9924Z" fill="black"/>
<path d="M253.663 50.0586C253.663 52.6458 252.69 54.6722 250.743 56.1377C248.797 57.6032 245.925 58.3359 242.129 58.3359C240.791 58.3427 239.455 58.2398 238.134 58.0284C237.045 57.8665 235.985 57.5481 234.987 57.083C234.187 56.7149 233.484 56.1631 232.938 55.4728C232.436 54.813 232.174 54.0029 232.194 53.175C232.169 52.4518 232.346 51.7358 232.707 51.1079C233.026 50.5673 233.442 50.0904 233.936 49.7012C235.024 50.288 236.164 50.7755 237.341 51.1577C238.774 51.6049 240.269 51.8203 241.77 51.7955C242.607 51.8432 243.442 51.688 244.205 51.3431C244.45 51.2429 244.66 51.0734 244.81 50.8557C244.96 50.638 245.043 50.3814 245.049 50.1174C245.054 49.8928 245 49.6708 244.891 49.4738C244.783 49.2768 244.625 49.1119 244.432 48.9956C243.802 48.6521 243.113 48.4296 242.401 48.3398L240.864 48.0322C237.892 47.4532 235.681 46.5486 234.23 45.3183C232.779 44.088 232.054 42.3074 232.054 39.9764C232.037 38.7861 232.319 37.6105 232.875 36.5569C233.424 35.5316 234.214 34.6546 235.178 34.0013C236.265 33.2756 237.469 32.7402 238.737 32.4182C240.227 32.0168 241.764 31.8145 243.308 31.8167C244.5 31.8109 245.691 31.9062 246.867 32.1016C247.864 32.2534 248.837 32.5363 249.76 32.9429C250.514 33.2679 251.181 33.7671 251.705 34.3994C252.187 35.0004 252.442 35.7512 252.426 36.5207C252.437 37.2195 252.281 37.911 251.972 38.5381C251.7 39.0724 251.325 39.5486 250.87 39.9403C250.48 39.7207 250.068 39.5419 249.642 39.4065C249.093 39.2211 248.495 39.0492 247.828 38.8954C247.161 38.7416 246.522 38.615 245.856 38.5109C245.256 38.4152 244.65 38.3638 244.042 38.3572C243.155 38.3208 242.269 38.4512 241.43 38.7416C241.171 38.8194 240.944 38.9776 240.781 39.1931C240.618 39.4086 240.528 39.6703 240.524 39.9403C240.527 40.1217 240.575 40.2994 240.665 40.4574C240.754 40.6154 240.882 40.7485 241.036 40.8449C241.64 41.1785 242.299 41.4036 242.981 41.5098L244.568 41.8671C247.848 42.6119 250.178 43.6417 251.56 44.9564C252.253 45.6093 252.799 46.4019 253.162 47.2816C253.525 48.1613 253.696 49.1079 253.663 50.0586Z" fill="black"/>
<path d="M279.884 57.4118C279.354 57.5534 278.815 57.6562 278.27 57.7194C277.519 57.8234 276.761 57.8748 276.003 57.8732C275.326 57.8795 274.649 57.8281 273.981 57.7194C273.436 57.6395 272.918 57.4301 272.471 57.1087C272.047 56.7848 271.719 56.3516 271.523 55.8558C271.278 55.195 271.164 54.493 271.188 53.7887V42.4582C271.188 41.0606 270.838 40.0836 270.14 39.5182C269.403 38.946 268.489 38.6484 267.556 38.6769C266.897 38.6735 266.241 38.7603 265.606 38.9347C265.084 39.0641 264.585 39.2698 264.124 39.5453V57.4254C263.594 57.567 263.054 57.6698 262.509 57.7329C261.758 57.837 261.001 57.8883 260.242 57.8867C259.565 57.8931 258.889 57.8416 258.22 57.7329C257.675 57.6531 257.157 57.4436 256.71 57.1223C256.287 56.7971 255.96 56.3643 255.763 55.8694C255.519 55.2083 255.407 54.5062 255.432 53.8023V24.153C255.803 24.0852 256.338 23.9947 257.096 23.8726C257.832 23.753 258.576 23.6925 259.322 23.6917C259.999 23.6874 260.675 23.7388 261.344 23.8454C261.89 23.9268 262.407 24.1378 262.854 24.4606C263.278 24.7845 263.606 25.2177 263.802 25.7135C264.048 26.374 264.162 27.0763 264.137 27.7806V32.7877C264.8 32.5539 265.475 32.3576 266.159 32.1997C267.141 31.97 268.148 31.8591 269.156 31.8695C272.536 31.8695 275.173 32.7123 277.068 34.398C278.964 36.0836 279.911 38.5955 279.911 41.9336L279.884 57.4118Z" fill="black"/>
<path d="M93.4792 42.3272C93.0135 42.3275 92.5564 42.2014 92.157 41.9624C91.7577 41.7233 91.431 41.3804 91.2122 40.9703C88.9965 36.9155 85.7998 33.4777 81.9128 30.9696C78.9043 29.0422 75.5462 27.7222 72.0285 27.0842C71.6969 27.0243 71.3805 26.8997 71.0973 26.7176C70.8141 26.5355 70.5697 26.2995 70.378 26.023C70.1864 25.7465 70.0513 25.4351 69.9805 25.1065C69.9097 24.7779 69.9046 24.4385 69.9655 24.1079C70.0261 23.777 70.1514 23.4612 70.3344 23.1787C70.5174 22.8961 70.7544 22.6523 71.0319 22.4612C71.3094 22.27 71.6219 22.1354 71.9516 22.0648C72.2814 21.9942 72.6218 21.9892 72.9534 22.0499C77.1293 22.8085 81.1158 24.3759 84.6876 26.6635C89.2972 29.6355 93.088 33.711 95.7145 38.5187C96.0408 39.1143 96.1167 39.8149 95.9254 40.4663C95.7341 41.1177 95.2913 41.6667 94.6943 41.9925C94.3237 42.2036 93.9059 42.3187 93.4792 42.3272Z" fill="#1769FF"/>
<path d="M96.0274 37.751C95.3518 37.5158 92.7402 37.8188 91.5387 38.6556C89.1447 40.3382 91.0853 41.9711 90.9311 42.6269C90.7906 43.2059 88.7457 44.4045 88.2107 46.6978C87.5804 49.3302 89.6933 51.2616 91.3573 50.5877C93.375 49.769 91.4934 48.0366 92.1372 47.1908C92.4727 46.7385 93.2435 46.6344 94.2093 47.8693C95.633 49.6785 93.4611 49.6785 92.7946 50.1715C90.6636 51.7094 94.7624 55.9069 96.372 53.3061C97.2471 55.8436 100.085 55.1154 101.033 52.501C101.165 53.1614 102.085 53.4056 102.67 53.0754C104.547 52.0125 104.565 45.9469 99.9131 42.4505C99.0471 41.7992 97.7277 41.3197 97.3695 40.2477C97.0295 39.2933 97.2516 38.1761 96.0274 37.751Z" fill="white"/>
<path d="M98.2491 55.1516C97.8328 55.1423 97.4281 55.0131 97.0838 54.7796C96.7395 54.546 96.4702 54.2181 96.3085 53.8353C96.1023 54.0573 95.8436 54.2241 95.5561 54.3205C95.2685 54.4169 94.9613 54.4398 94.6626 54.3871C94.0324 54.2369 93.4535 53.9223 92.9851 53.4757C92.5167 53.0291 92.1756 52.4664 91.9966 51.8451C91.8957 51.5059 91.904 51.1436 92.0203 50.8093C92.1366 50.475 92.3551 50.1855 92.645 49.9816C92.8796 49.8366 93.1327 49.724 93.3976 49.6469C93.851 49.4931 94.3044 49.3212 94.4087 49.0227C94.4767 48.8011 94.3362 48.4663 94.0052 48.0457C93.4022 47.2722 92.9624 47.141 92.7538 47.141C92.6742 47.1414 92.5958 47.1604 92.5249 47.1966C92.454 47.2327 92.3926 47.285 92.3457 47.3491C92.1734 47.5753 92.2777 47.9552 92.4001 48.394C92.6178 49.1719 92.9125 50.2394 91.4616 50.8274C91.0493 50.9804 90.6024 51.0153 90.1714 50.9282C89.7403 50.841 89.3423 50.6354 89.0222 50.3344C88.5212 49.8768 88.1572 49.2896 87.9707 48.638C87.7842 47.9864 87.7825 47.296 87.9658 46.6435C88.3512 45.0378 89.4167 43.9613 90.124 43.2466C90.3489 43.0475 90.5443 42.8175 90.7044 42.5636C90.6764 42.3595 90.6086 42.1628 90.5049 41.9847C90.1331 41.1614 89.5074 39.7819 91.4117 38.443C92.6359 37.5791 95.3246 37.2127 96.1362 37.4932C97.1745 37.8595 97.3196 38.6873 97.4466 39.42C97.4854 39.6738 97.5414 39.9247 97.6143 40.1709C97.8455 40.8584 98.5665 41.2971 99.2602 41.7223C99.5368 41.8897 99.8224 42.0616 100.072 42.247C101.359 43.1932 102.397 44.4361 103.099 45.8696C103.8 47.3032 104.143 48.8847 104.098 50.4791C104.007 51.8361 103.536 52.8854 102.801 53.3016C102.593 53.4121 102.362 53.4737 102.126 53.4815C101.891 53.4894 101.656 53.4433 101.441 53.3468C101.302 53.2833 101.174 53.1961 101.065 53.089C100.435 54.3464 99.3554 55.1516 98.2491 55.1516ZM96.3539 53.0709H96.3811C96.43 53.0759 96.4764 53.0948 96.515 53.1252C96.5535 53.1557 96.5826 53.1965 96.5987 53.2428C96.907 54.1474 97.5055 54.6359 98.2355 54.6404C99.2511 54.6404 100.289 53.7358 100.761 52.4331C100.781 52.3805 100.817 52.3356 100.864 52.3054C100.912 52.2752 100.968 52.2613 101.024 52.2658C101.079 52.2704 101.132 52.2927 101.173 52.3294C101.215 52.3661 101.244 52.4151 101.255 52.4693C101.279 52.5639 101.324 52.6516 101.388 52.7254C101.452 52.7992 101.532 52.8572 101.622 52.8945C101.765 52.9604 101.922 52.9923 102.079 52.9875C102.236 52.9828 102.391 52.9417 102.529 52.8674C103.101 52.5462 103.49 51.6461 103.568 50.4565C103.609 48.9474 103.283 47.4508 102.617 46.095C101.951 44.7392 100.966 43.5647 99.7453 42.6722C99.5141 42.5003 99.2511 42.342 98.9745 42.1701C98.2355 41.7178 97.4012 41.2112 97.111 40.3608C97.0276 40.0917 96.9654 39.8164 96.9251 39.5376C96.7982 38.8275 96.703 38.2666 95.9458 38.0043C95.3835 37.8098 92.8717 38.0586 91.6883 38.9089C90.1331 40.008 90.5865 41.0122 90.9537 41.8218C91.1261 42.0908 91.2072 42.408 91.185 42.7265C91.0205 43.0798 90.7751 43.3897 90.4686 43.6311C89.8021 44.305 88.8001 45.3228 88.4464 46.7973C88.2919 47.3573 88.2948 47.9488 88.4547 48.5073C88.6147 49.0657 88.9255 49.5695 89.3532 49.9635C89.6017 50.2021 89.9121 50.3667 90.2495 50.4387C90.5868 50.5106 90.9375 50.487 91.2621 50.3706C92.2414 49.9725 92.1417 49.4207 91.9014 48.5613C91.7563 48.0412 91.6067 47.4984 91.9331 47.0732C92.027 46.9463 92.1492 46.8431 92.2901 46.7716C92.431 46.7001 92.5867 46.6625 92.7447 46.6616C93.1165 46.6616 93.7014 46.8516 94.3997 47.7472C94.8531 48.3171 95.0117 48.7875 94.8939 49.1855C94.7306 49.7373 94.1095 49.9545 93.5608 50.1489C93.3422 50.2122 93.132 50.3018 92.9351 50.4158C92.7279 50.5608 92.5722 50.7678 92.4907 51.0068C92.4092 51.2459 92.406 51.5047 92.4817 51.7456C92.6344 52.269 92.9221 52.7432 93.3159 53.121C93.7097 53.4988 94.1959 53.7669 94.7261 53.8986C95.0039 53.949 95.2906 53.9095 95.5443 53.7858C95.798 53.6621 96.0054 53.4608 96.1362 53.2111C96.1565 53.1704 96.1875 53.1359 96.2257 53.1113C96.264 53.0866 96.3083 53.0726 96.3539 53.0709Z" fill="#1769FF"/>
<path d="M93.3702 40.9291C93.324 40.9299 93.2785 40.9181 93.2386 40.895C93.1987 40.8719 93.1658 40.8383 93.1435 40.798C93.1109 40.7385 93.1031 40.6686 93.1218 40.6034C93.1404 40.5382 93.1841 40.483 93.2433 40.4497C93.9339 40.0702 94.7354 39.9422 95.5103 40.0878C95.5435 40.0938 95.5752 40.1063 95.6034 40.1246C95.6317 40.1429 95.6561 40.1666 95.6751 40.1944C95.6941 40.2222 95.7073 40.2535 95.7141 40.2864C95.7208 40.3194 95.7209 40.3534 95.7143 40.3864C95.7001 40.453 95.6604 40.5115 95.6037 40.5495C95.547 40.5875 95.4778 40.602 95.4106 40.5899C94.749 40.4629 94.0638 40.5718 93.4745 40.8975C93.4426 40.9157 93.4069 40.9265 93.3702 40.9291Z" fill="#1769FF"/>
<path d="M96.3536 53.5816C96.3016 53.5826 96.2507 53.5667 96.2085 53.5363C96.1529 53.4972 96.115 53.4376 96.1031 53.3707C96.0912 53.3038 96.1063 53.2349 96.145 53.179C97.5053 51.2703 97.3511 49.9133 96.7572 47.4753C96.7421 47.4094 96.7536 47.3402 96.7893 47.2827C96.8249 47.2251 96.8817 47.1838 96.9476 47.1677C96.98 47.1596 97.0138 47.158 97.0468 47.163C97.0799 47.1679 97.1117 47.1793 97.1404 47.1965C97.169 47.2138 97.194 47.2365 97.2138 47.2634C97.2336 47.2902 97.2479 47.3208 97.2559 47.3532C97.8136 49.6555 98.0675 51.3245 96.5622 53.473C96.5385 53.5063 96.5072 53.5335 96.471 53.5524C96.4347 53.5712 96.3945 53.5812 96.3536 53.5816Z" fill="#1769FF"/>
<path d="M101.019 52.7753H100.965C100.898 52.7612 100.84 52.7214 100.803 52.6647C100.766 52.608 100.752 52.5388 100.766 52.4723C101.219 50.274 100.865 48.501 99.6547 47.0445C99.6115 46.9916 99.5912 46.9239 99.598 46.8561C99.6048 46.7883 99.6382 46.7259 99.6909 46.6827C99.7436 46.641 99.8105 46.6215 99.8774 46.6283C99.9443 46.635 100.006 46.6675 100.049 46.7188C101.35 48.2793 101.758 50.2469 101.269 52.5718C101.257 52.6293 101.226 52.681 101.181 52.7181C101.135 52.7552 101.078 52.7754 101.019 52.7753Z" fill="#1769FF"/>
<path d="M6.46582 35.4471C6.46582 29.7027 7.37264 24.6216 9.18627 20.204C10.8398 16.0215 13.3686 12.2389 16.604 9.10874C19.7804 6.10436 23.5499 3.79362 27.6717 2.32401C32.0917 0.74621 36.7565 -0.0393495 41.4508 0.00362556C46.1449 -0.0385891 50.8097 0.746948 55.2298 2.32401C59.3648 3.80256 63.1518 6.11176 66.3564 9.10874C69.6189 12.2264 72.1664 16.0115 73.8241 20.204C75.6377 24.6247 76.5445 29.7057 76.5445 35.4471C76.5445 41.1885 75.6589 46.2861 73.8876 50.7399C72.2757 54.9541 69.7594 58.7657 66.5151 61.9075C63.3225 64.9203 59.5321 67.2316 55.3885 68.6923C50.9111 70.2726 46.1908 71.058 41.4417 71.0127C36.6879 71.0582 31.9644 70.254 27.4949 68.638C23.357 67.1458 19.5843 64.793 16.4272 61.7357C13.2318 58.5743 10.7426 54.7747 9.12278 50.5861C7.35147 46.1624 6.46582 41.1161 6.46582 35.4471ZM26.3886 35.4471C26.3886 42.1414 27.7488 47.147 30.4692 50.464C33.1897 53.7809 36.8426 55.4394 41.4281 55.4394C46.077 55.4394 49.7662 53.7809 52.4958 50.464C55.2253 47.147 56.5855 42.1414 56.5764 35.4471C56.5764 28.8131 55.2283 23.8376 52.532 20.5207C49.8358 17.2037 46.1662 15.5452 41.5233 15.5452C36.9439 15.5452 33.2728 17.1826 30.51 20.4573C27.7473 23.7321 26.3734 28.7287 26.3886 35.4471Z" fill="#1769FF"/>
<path d="M8.56055 35.6016C8.55995 35.1379 8.651 34.6786 8.82846 34.25C9.00592 33.8215 9.26631 33.432 9.59478 33.1039C9.92324 32.7758 10.3133 32.5156 10.7427 32.338C11.1721 32.1604 11.6323 32.069 12.0971 32.069C12.5619 32.069 13.0222 32.1604 13.4516 32.338C13.8809 32.5156 14.271 32.7758 14.5995 33.1039C14.9279 33.432 15.1883 33.8215 15.3658 34.25C15.5433 34.6786 15.6343 35.1379 15.6337 35.6016C15.6337 36.5373 15.2611 37.4346 14.5979 38.0963C13.9346 38.7579 13.0351 39.1296 12.0971 39.1296C11.1592 39.1296 10.2596 38.7579 9.59638 38.0963C8.93314 37.4346 8.56055 36.5373 8.56055 35.6016ZM14.1511 52.9976C13.2131 52.9976 12.3136 52.6259 11.6503 51.9643C10.9871 51.3026 10.6145 50.4053 10.6145 49.4696C10.6145 48.5339 10.9871 47.6365 11.6503 46.9748C12.3136 46.3132 13.2131 45.9415 14.1511 45.9415C15.089 45.9415 15.9886 46.3132 16.6518 46.9748C17.315 47.6365 17.6876 48.5339 17.6876 49.4696C17.6876 50.4053 17.315 51.3026 16.6518 51.9643C15.9886 52.6259 15.089 52.9976 14.1511 52.9976ZM14.1511 25.0852C13.2131 25.0852 12.3136 24.7135 11.6503 24.0519C10.9871 23.3902 10.6145 22.4928 10.6145 21.5571C10.6115 21.0917 10.7007 20.6303 10.8771 20.1994C11.0534 19.7685 11.3134 19.3766 11.642 19.0462C11.9706 18.7159 12.3615 18.4535 12.7921 18.2743C13.2227 18.0951 13.6845 18.0025 14.1511 18.002C14.6176 18.0025 15.0795 18.0951 15.5101 18.2743C15.9406 18.4535 16.3315 18.7159 16.6601 19.0462C16.9888 19.3766 17.2487 19.7685 17.4251 20.1994C17.6014 20.6303 17.6906 21.0917 17.6876 21.5571C17.6876 22.4928 17.315 23.3902 16.6518 24.0519C15.9886 24.7135 15.089 25.0852 14.1511 25.0852Z" fill="#0A4EEB" stroke="#0B51DB" stroke-width="0.92" stroke-miterlimit="10"/>
<path d="M11.9245 18.7793H5.80353C4.16835 18.7793 2.84277 20.1017 2.84277 21.7329C2.84277 23.3642 4.16835 24.6865 5.80353 24.6865H11.9245C13.5597 24.6865 14.8853 23.3642 14.8853 21.7329C14.8853 20.1017 13.5597 18.7793 11.9245 18.7793Z" fill="#88C9FF"/>
<path d="M11.9245 46.5078H5.80353C4.16835 46.5078 2.84277 47.8302 2.84277 49.4614C2.84277 51.0927 4.16835 52.4151 5.80353 52.4151H11.9245C13.5597 52.4151 14.8853 51.0927 14.8853 49.4614C14.8853 47.8302 13.5597 46.5078 11.9245 46.5078Z" fill="#88C9FF"/>
<path d="M9.08176 32.6445H2.96075C1.32557 32.6445 0 33.9669 0 35.5982C0 37.2294 1.32557 38.5518 2.96075 38.5518H9.08176C10.7169 38.5518 12.0425 37.2294 12.0425 35.5982C12.0425 33.9669 10.7169 32.6445 9.08176 32.6445Z" fill="#88C9FF"/>
<path d="M77.814 20.3313L76.9752 48.6779C76.9716 49.0766 77.1266 49.4605 77.4062 49.7453C77.6858 50.0302 78.0673 50.1929 78.4669 50.1977L84.4157 50.3741C84.8153 50.3788 85.1968 50.5415 85.4764 50.8264C85.756 51.1113 85.911 51.4951 85.9074 51.8938C85.8981 52.0909 85.8498 52.2842 85.7654 52.4627C85.681 52.6411 85.562 52.8011 85.4154 52.9335C85.2688 53.0659 85.0973 53.1681 84.911 53.2342C84.7246 53.3003 84.527 53.329 84.3295 53.3186L78.3808 53.1468C78.1831 53.137 77.9853 53.1663 77.799 53.2329C77.6126 53.2995 77.4412 53.4021 77.2947 53.5349C77.1481 53.6677 77.0292 53.828 76.9448 54.0066C76.8605 54.1853 76.8122 54.3788 76.8029 54.5761L76.7667 55.8742C76.7649 56.072 76.8024 56.2681 76.877 56.4513C76.9516 56.6346 77.0619 56.8012 77.2014 56.9417C77.3409 57.0821 77.507 57.1936 77.69 57.2697C77.8729 57.3458 78.0692 57.385 78.2674 57.385L85.8439 57.6066C86.2425 57.625 86.6321 57.4848 86.9271 57.2168C87.2221 56.9488 87.3984 56.5749 87.4172 56.1773L88.4646 20.6343C88.4676 20.4369 88.4314 20.2409 88.3582 20.0575C88.285 19.8742 88.1761 19.707 88.0379 19.5658C87.8997 19.4246 87.7348 19.312 87.5528 19.2345C87.3708 19.1571 87.1753 19.1163 86.9774 19.1145L79.401 18.8929C79.2018 18.8819 79.0024 18.9106 78.8144 18.9772C78.6264 19.0438 78.4535 19.147 78.3058 19.2809C78.1582 19.4147 78.0387 19.5765 77.9542 19.7568C77.8698 19.9371 77.8221 20.1324 77.814 20.3313Z" fill="#88C9FF"/>
<path d="M88.5961 15.7723C88.5961 15.1391 88.3059 14.6144 87.9069 14.6054L78.7118 14.334C78.3128 14.334 77.9727 14.827 77.9546 15.4602C77.9546 16.098 78.2448 16.6227 78.6438 16.6318L87.8434 16.9031C88.2424 16.9077 88.5779 16.4056 88.5961 15.7723Z" fill="#0A4EEB"/>
<path d="M81.07 6.89021C79.4999 6.84322 78.1889 8.07385 78.1419 9.63889C78.0948 11.2039 79.3294 12.5107 80.8995 12.5577L85.8598 12.7062C87.4299 12.7532 88.7408 11.5225 88.7879 9.9575C88.8349 8.39246 87.6003 7.08565 86.0302 7.03866L81.07 6.89021Z" fill="#1769FF"/>
<path d="M85.9206 60.0991C86.074 60.1025 86.2237 60.1463 86.3547 60.226C86.4857 60.3057 86.5932 60.4186 86.6664 60.5531C86.7396 60.6877 86.7758 60.8391 86.7714 60.9921C86.7671 61.1451 86.7222 61.2942 86.6415 61.4244L84.8006 64.4006L82.9598 67.3768C82.8797 67.5083 82.7661 67.6164 82.6307 67.69C82.4952 67.7636 82.3427 67.8003 82.1885 67.7961C82.0343 67.792 81.8839 67.7473 81.7527 67.6665C81.6214 67.5857 81.5138 67.4718 81.4409 67.3362L79.7769 64.2559L78.1129 61.1756C78.0404 61.0406 78.0049 60.889 78.0097 60.736C78.0146 60.583 78.0597 60.4339 78.1405 60.3038C78.2214 60.1736 78.3351 60.067 78.4703 59.9945C78.6055 59.9221 78.7575 59.8864 78.9109 59.891L82.4157 59.9951L85.9206 60.0991Z" fill="#1769FF"/>
</g>
<defs>
<clipPath id="clip0_2677_1482">
<rect width="279.884" height="71" fill="white"/>
</clipPath>
</defs>
</svg>
