<svg width="26" height="26" viewBox="0 0 26 26" fill="none" xmlns="http://www.w3.org/2000/svg">
<path d="M14.2 2.2L16.281 7.61063C16.6194 8.49051 16.7886 8.93045 17.0518 9.3005C17.285 9.62848 17.5715 9.91503 17.8995 10.1482C18.2696 10.4114 18.7095 10.5806 19.5894 10.919L25 13L19.5894 15.081C18.7095 15.4194 18.2696 15.5886 17.8995 15.8518C17.5715 16.085 17.285 16.3715 17.0518 16.6995C16.7886 17.0696 16.6194 17.5095 16.281 18.3894L14.2 23.8L12.119 18.3894C11.7806 17.5095 11.6114 17.0696 11.3482 16.6995C11.115 16.3715 10.8285 16.085 10.5005 15.8518C10.1304 15.5886 9.69051 15.4194 8.81064 15.081L3.4 13L8.81063 10.919C9.69051 10.5806 10.1304 10.4114 10.5005 10.1482C10.8285 9.91503 11.115 9.62848 11.3482 9.3005C11.6114 8.93045 11.7806 8.49051 12.119 7.61064L14.2 2.2Z" fill="#1769FF"/>
<path d="M4 25V19M4 7V1M1 4H7M1 22H7M14.2 2.2L12.119 7.61064C11.7806 8.49051 11.6114 8.93045 11.3482 9.3005C11.115 9.62848 10.8285 9.91503 10.5005 10.1482C10.1304 10.4114 9.69051 10.5806 8.81063 10.919L3.4 13L8.81064 15.081C9.69051 15.4194 10.1304 15.5886 10.5005 15.8518C10.8285 16.085 11.115 16.3715 11.3482 16.6995C11.6114 17.0696 11.7806 17.5095 12.119 18.3894L14.2 23.8L16.281 18.3894C16.6194 17.5095 16.7886 17.0696 17.0518 16.6995C17.285 16.3715 17.5715 16.085 17.8995 15.8518C18.2696 15.5886 18.7095 15.4194 19.5894 15.081L25 13L19.5894 10.919C18.7095 10.5806 18.2696 10.4114 17.8995 10.1482C17.5715 9.91503 17.285 9.62848 17.0518 9.3005C16.7886 8.93045 16.6194 8.49051 16.281 7.61063L14.2 2.2Z" stroke="#1769FF" stroke-width="2" stroke-linecap="round" stroke-linejoin="round"/>
</svg>
