<svg width="25" height="28" viewBox="0 0 25 28" fill="none" xmlns="http://www.w3.org/2000/svg">
<path d="M12.5002 24.2083C14.1043 24.2083 15.4776 23.6372 16.62 22.4948C17.7623 21.3524 18.3335 19.9792 18.3335 18.375V12.5417C18.3335 10.9375 17.7623 9.56424 16.62 8.42187C15.4776 7.27951 14.1043 6.70833 12.5002 6.70833C10.896 6.70833 9.52273 7.27951 8.38037 8.42187C7.23801 9.56424 6.66683 10.9375 6.66683 12.5417V18.375C6.66683 19.9792 7.23801 21.3524 8.38037 22.4948C9.52273 23.6372 10.896 24.2083 12.5002 24.2083ZM9.5835 19.8333H15.4168V16.9167H9.5835V19.8333ZM9.5835 14H15.4168V11.0833H9.5835V14ZM12.5002 27.125C10.9203 27.125 9.45589 26.7361 8.10693 25.9583C6.75798 25.1806 5.69461 24.1111 4.91683 22.75H0.833496V19.8333H3.896C3.82308 19.3472 3.78054 18.8611 3.76839 18.375C3.75624 17.8889 3.75016 17.4028 3.75016 16.9167H0.833496V14H3.75016C3.75016 13.5139 3.75624 13.0278 3.76839 12.5417C3.78054 12.0556 3.82308 11.5694 3.896 11.0833H0.833496V8.16667H4.91683C5.25711 7.60764 5.63992 7.08507 6.06527 6.59896C6.49061 6.11285 6.9828 5.6875 7.54183 5.32292L5.2085 2.91667L7.25016 0.875L10.3856 4.01042C11.0661 3.79167 11.7588 3.68229 12.4637 3.68229C13.1686 3.68229 13.8613 3.79167 14.5418 4.01042L17.7502 0.875L19.7918 2.91667L17.3856 5.32292C17.9446 5.6875 18.4489 6.10677 18.8986 6.58073C19.3483 7.05469 19.7432 7.58333 20.0835 8.16667H24.1668V11.0833H21.1043C21.1772 11.5694 21.2198 12.0556 21.2319 12.5417C21.2441 13.0278 21.2502 13.5139 21.2502 14H24.1668V16.9167H21.2502C21.2502 17.4028 21.2441 17.8889 21.2319 18.375C21.2198 18.8611 21.1772 19.3472 21.1043 19.8333H24.1668V22.75H20.0835C19.3057 24.1111 18.2424 25.1806 16.8934 25.9583C15.5444 26.7361 14.08 27.125 12.5002 27.125Z" fill="black"/>
</svg>
