<svg width="30" height="28" viewBox="0 0 30 28" fill="none" xmlns="http://www.w3.org/2000/svg">
<path d="M20.5558 22.3333L23.3336 25.1111L28.8891 19.5556M15.0002 18.1667H9.44466C6.8561 18.1667 5.56182 18.1667 4.54086 18.5896C3.1796 19.1534 2.09807 20.2349 1.53422 21.5962C1.11133 22.6172 1.11133 23.9114 1.11133 26.5M19.8613 1.90383C21.8973 2.72798 23.3336 4.72404 23.3336 7.05556C23.3336 9.38707 21.8973 11.3831 19.8613 12.2073M17.0836 7.05556C17.0836 10.1238 14.5962 12.6111 11.528 12.6111C8.45975 12.6111 5.97244 10.1238 5.97244 7.05556C5.97244 3.98731 8.45975 1.5 11.528 1.5C14.5962 1.5 17.0836 3.98731 17.0836 7.05556Z" stroke="#11255A" stroke-width="2" stroke-linecap="round" stroke-linejoin="round"/>
</svg>
