<svg width="28" height="28" viewBox="0 0 28 28" fill="none" xmlns="http://www.w3.org/2000/svg">
<path d="M10.9959 15.2584C11.5363 15.9808 12.2257 16.5786 13.0175 17.0112C13.8092 17.4438 14.6848 17.701 15.5847 17.7654C16.4846 17.8299 17.3878 17.7 18.2331 17.3847C19.0784 17.0694 19.8461 16.576 20.4839 15.9379L24.259 12.1628C25.4051 10.9761 26.0393 9.38682 26.0249 7.73713C26.0106 6.08744 25.3489 4.50938 24.1823 3.34283C23.0158 2.17628 21.4377 1.51457 19.788 1.50024C18.1383 1.4859 16.549 2.12008 15.3624 3.26618L13.198 5.41798M16.0293 12.7416C15.4889 12.0192 14.7994 11.4214 14.0077 10.9888C13.2159 10.5562 12.3404 10.299 11.4405 10.2346C10.5406 10.1701 9.63735 10.3 8.79204 10.6153C7.94672 10.9306 7.17911 11.424 6.54127 12.0621L2.76618 15.8372C1.62008 17.0239 0.985902 18.6132 1.00024 20.2629C1.01457 21.9126 1.67628 23.4906 2.84283 24.6572C4.00938 25.8237 5.58744 26.4854 7.23713 26.4998C8.88682 26.5141 10.4761 25.8799 11.6628 24.7338L13.8146 22.582" stroke="#11255A" stroke-width="2" stroke-linecap="round" stroke-linejoin="round"/>
</svg>
