<svg width="24" height="28" viewBox="0 0 24 28" fill="none" xmlns="http://www.w3.org/2000/svg">
<path d="M21 10.875V7.5C21 5.3998 21 4.3497 20.5913 3.54754C20.2317 2.84193 19.6581 2.26825 18.9525 1.90873C18.1503 1.5 17.1002 1.5 15 1.5H7C4.8998 1.5 3.8497 1.5 3.04754 1.90873C2.34193 2.26825 1.76825 2.84193 1.40873 3.54754C1 4.3497 1 5.3998 1 7.5V20.5C1 22.6002 1 23.6503 1.40873 24.4525C1.76825 25.1581 2.34193 25.7317 3.04754 26.0913C3.8497 26.5 4.8998 26.5 7 26.5H13.5M13.5 12.75H6M8.5 17.75H6M16 7.75H6M16.625 17.7528C16.8452 17.1267 17.28 16.5988 17.8522 16.2625C18.4244 15.9262 19.0971 15.8033 19.7513 15.9155C20.4054 16.0277 20.9988 16.3678 21.4262 16.8755C21.8536 17.3833 22.0875 18.0259 22.0866 18.6896C22.0866 20.5632 19.2761 21.5 19.2761 21.5M19.3124 25.25H19.3249" stroke="#11255A" stroke-width="2" stroke-linecap="round" stroke-linejoin="round"/>
</svg>
