<svg width="30" height="28" viewBox="0 0 30 28" fill="none" xmlns="http://www.w3.org/2000/svg">
<path d="M20.4444 22.3333L23.2222 25.1111L28.7778 19.5556M14.8889 18.1667H9.33333C6.74477 18.1667 5.45049 18.1667 4.42954 18.5896C3.06827 19.1534 1.98675 20.2349 1.42289 21.5962C1 22.6172 1 23.9114 1 26.5M19.75 1.90383C21.786 2.72798 23.2222 4.72404 23.2222 7.05556C23.2222 9.38707 21.786 11.3831 19.75 12.2073M16.9722 7.05556C16.9722 10.1238 14.4849 12.6111 11.4167 12.6111C8.34842 12.6111 5.86111 10.1238 5.86111 7.05556C5.86111 3.98731 8.34842 1.5 11.4167 1.5C14.4849 1.5 16.9722 3.98731 16.9722 7.05556Z" stroke="white" stroke-width="2" stroke-linecap="round" stroke-linejoin="round"/>
</svg>
