<svg width="33" height="33" viewBox="0 0 33 33" fill="none" xmlns="http://www.w3.org/2000/svg">
<path d="M16.3322 30.3316C24.0637 30.3316 30.3313 24.0639 30.3313 16.3324C30.3313 8.60088 24.0637 2.33325 16.3322 2.33325C8.60064 2.33325 2.33301 8.60088 2.33301 16.3324C2.33301 24.0639 8.60064 30.3316 16.3322 30.3316Z" stroke="#141718" stroke-width="3.06231" stroke-linecap="round" stroke-linejoin="round"/>
<path d="M12.3716 12.2494C12.6916 11.3398 13.3231 10.5727 14.1545 10.0842C14.9858 9.5956 15.9632 9.417 16.9136 9.58002C17.864 9.74304 18.726 10.2371 19.347 10.9748C19.9679 11.7125 20.3078 12.6462 20.3064 13.6104C20.3064 16.3325 16.2233 17.6935 16.2233 17.6935" stroke="#141718" stroke-width="3.06231" stroke-linecap="round" stroke-linejoin="round"/>
<path d="M16.3325 23.1375H16.3454" stroke="#141718" stroke-width="3.06231" stroke-linecap="round" stroke-linejoin="round"/>
</svg>
