<svg width="25" height="26" viewBox="0 0 25 26" fill="none" xmlns="http://www.w3.org/2000/svg">
<path fill-rule="evenodd" clip-rule="evenodd" d="M12.4702 2.3763C6.67313 2.3763 1.95707 7.09237 1.95707 12.8894C1.95707 18.6865 6.67313 23.4026 12.4702 23.4026C18.2673 23.4026 22.9833 18.6865 22.9833 12.8894C22.9833 7.09237 18.2673 2.3763 12.4702 2.3763ZM12.4702 25.2578C5.65027 25.2578 0.101807 19.7093 0.101807 12.8894C0.101807 6.06946 5.65027 0.520996 12.4702 0.520996C19.2901 0.520996 24.8386 6.06946 24.8386 12.8894C24.8386 19.7093 19.2901 25.2578 12.4702 25.2578Z" fill="#9E9E9E"/>
<path fill-rule="evenodd" clip-rule="evenodd" d="M16.714 17.4563C16.552 17.4563 16.3888 17.4143 16.2391 17.3265L11.5762 14.5448C11.2967 14.3766 11.1235 14.0736 11.1235 13.7471V7.75087C11.1235 7.23882 11.5391 6.82324 12.0512 6.82324C12.5645 6.82324 12.9788 7.23882 12.9788 7.75087V13.2202L17.1902 15.731C17.6293 15.9944 17.774 16.5634 17.5118 17.0037C17.3374 17.2943 17.0294 17.4563 16.714 17.4563Z" fill="#9E9E9E"/>
</svg>
