<svg width="33" height="33" viewBox="0 0 33 33" fill="none" xmlns="http://www.w3.org/2000/svg">
<g clip-path="url(#clip0_2206_1130)">
<path fill-rule="evenodd" clip-rule="evenodd" d="M20.3684 1.47249C14.5713 1.47249 9.85526 6.18856 9.85526 11.9856C9.85526 17.7827 14.5713 22.4988 20.3684 22.4988C26.1655 22.4988 30.8815 17.7827 30.8815 11.9856C30.8815 6.18856 26.1655 1.47249 20.3684 1.47249ZM20.3684 24.354C13.5485 24.354 8 18.8055 8 11.9856C8 5.16565 13.5485 -0.382812 20.3684 -0.382812C27.1883 -0.382812 32.7368 5.16565 32.7368 11.9856C32.7368 18.8055 27.1883 24.354 20.3684 24.354Z" fill="#141718"/>
<path fill-rule="evenodd" clip-rule="evenodd" d="M24.6122 16.5525C24.4502 16.5525 24.287 16.5105 24.1373 16.4227L19.4744 13.641C19.1949 13.4728 19.0217 13.1698 19.0217 12.8433V6.84706C19.0217 6.33501 19.4373 5.91943 19.9494 5.91943C20.4626 5.91943 20.877 6.33501 20.877 6.84706V12.3164L25.0884 14.8272C25.5275 15.0906 25.6722 15.6595 25.41 16.0999C25.2356 16.3905 24.9276 16.5525 24.6122 16.5525Z" fill="#141718"/>
</g>
<defs>
<clipPath id="clip0_2206_1130">
<rect width="32.6647" height="32.6647" fill="white"/>
</clipPath>
</defs>
</svg>
