<svg width="29" height="30" viewBox="0 0 29 30" fill="none" xmlns="http://www.w3.org/2000/svg">
<path fill-rule="evenodd" clip-rule="evenodd" d="M3.64911 11.413C2.88969 12.0965 2.45605 13.0701 2.45605 14.0919V23.2988C2.45605 25.2893 4.06963 26.9028 6.06006 26.9028H22.8787C24.8692 26.9028 26.4827 25.2893 26.4827 23.2988V14.0919C26.4827 13.0701 26.0491 12.0965 25.2897 11.413L16.8804 3.8446C15.5098 2.61104 13.429 2.61104 12.0584 3.84461L3.64911 11.413ZM13.2681 16.0908C11.9411 16.0908 10.8654 17.1664 10.8654 18.4934V23.2988C10.8654 23.9623 11.4033 24.5001 12.0667 24.5001H16.8721C17.5356 24.5001 18.0734 23.9623 18.0734 23.2988V18.4934C18.0734 17.1664 16.9977 16.0908 15.6707 16.0908H13.2681Z" fill="#9E9E9E"/>
</svg>
