<svg width="29" height="28" viewBox="0 0 29 28" fill="none" xmlns="http://www.w3.org/2000/svg">
<path d="M14.1579 19.9211C14.1579 23.5545 17.1034 26.5 20.7368 26.5C24.3703 26.5 27.3158 23.5545 27.3158 19.9211C27.3158 16.2876 24.3703 13.3421 20.7368 13.3421C17.1034 13.3421 14.1579 16.2876 14.1579 19.9211ZM14.1579 19.9211C14.1579 18.4397 14.6475 17.0727 15.4737 15.973V4.13158M14.1579 19.9211C14.1579 21.007 14.421 22.0316 14.887 22.9344C13.7785 23.8707 11.2182 24.5263 8.23684 24.5263C4.24004 24.5263 1 23.3481 1 21.8947V4.13158M15.4737 4.13158C15.4737 5.58496 12.2336 6.76316 8.23684 6.76316C4.24004 6.76316 1 5.58496 1 4.13158M15.4737 4.13158C15.4737 2.6782 12.2336 1.5 8.23684 1.5C4.24004 1.5 1 2.6782 1 4.13158M1 15.9737C1 17.4271 4.24004 18.6053 8.23684 18.6053C11.1171 18.6053 13.6044 17.9934 14.7693 17.1076M15.4737 10.0526C15.4737 11.506 12.2336 12.6842 8.23684 12.6842C4.24004 12.6842 1 11.506 1 10.0526" stroke="#1769FF" stroke-width="2" stroke-linecap="round" stroke-linejoin="round"/>
</svg>
