<svg xmlns="http://www.w3.org/2000/svg" width="134" height="134" viewBox="0 0 134 134">
<g>
<path d="M 57.38,133.00 L 55.13,132.67 L 50.69,131.64 L 48.48,131.06 L 44.14,129.55 L 41.99,128.74 L 37.82,126.79 L 35.76,125.77 L 31.79,123.41 L 29.84,122.18 L 26.14,119.45 L 24.32,118.04 L 20.93,114.96 L 19.28,113.37 L 16.25,109.98 L 12.18,104.57 L 11.06,102.90 L 9.07,99.48 L 8.11,97.76 L 6.44,94.24 L 5.64,92.48 L 4.29,88.89 L 3.66,87.09 L 2.62,83.45 L 2.15,81.62 L 1.43,77.94 L 1.11,76.10 L 0.71,72.40 L 0.55,70.55 L 0.46,66.85 L 0.45,65.00 L 0.68,61.31 L 0.83,59.48 L 1.36,55.83 L 1.66,54.01 L 2.51,50.41 L 2.97,48.63 L 4.12,45.10 L 4.73,43.35 L 6.19,39.92 L 6.95,38.21 L 8.71,34.89 L 9.63,33.24 L 11.69,30.04 L 12.76,28.45 L 15.13,25.40 L 19.01,21.00 L 20.61,19.34 L 23.99,16.32 L 25.70,14.86 L 29.30,12.24 L 31.12,10.98 L 34.90,8.77 L 36.81,7.71 L 40.75,5.90 L 42.73,5.05 L 46.79,3.64 L 48.84,2.99 L 52.99,1.99 L 55.08,1.53 L 59.29,0.94 L 61.41,0.69 L 65.65,0.50 L 67.78,0.45 L 72.02,0.67 L 74.14,0.83 L 78.36,1.45 L 80.46,1.81 L 84.61,2.84 L 86.68,3.41 L 90.74,4.85 L 92.75,5.62 L 96.68,7.47 L 98.63,8.44 L 102.41,10.70 L 104.28,11.88 L 107.86,14.55 L 113.00,19.01 L 114.91,20.84 L 118.31,24.74 L 119.94,26.72 L 122.81,30.88 L 124.18,33.00 L 126.51,37.38 L 127.61,39.60 L 129.42,44.16 L 130.26,46.46 L 131.54,51.15 L 132.12,53.51 L 132.88,58.28 L 133.20,60.67 L 133.45,65.48 L 133.51,67.88 L 133.24,72.68 L 133.04,75.07 L 132.27,79.81 L 131.82,82.17 L 130.54,86.80 L 129.84,89.10 L 128.06,93.57 L 127.11,95.79 L 124.83,100.07 L 123.63,102.18 L 120.86,106.21 L 119.42,108.19 L 116.16,111.93 L 114.47,113.76 L 110.73,117.16 L 104.57,121.82 L 102.76,123.04 L 99.05,125.19 L 97.18,126.22 L 93.38,128.00 L 91.46,128.84 L 87.58,130.25 L 85.62,130.91 L 81.67,131.95 L 79.68,132.42 L 75.67,133.07 L 73.66,133.35 L 69.61,133.63 L 67.58,133.72 L 63.51,133.61 L 61.47,133.50 M 73.77,81.93 L 76.34,80.00 L 81.04,76.40 L 82.16,75.54 L 84.22,73.93 L 85.22,73.15 L 87.00,71.74 L 87.85,71.07 L 89.29,69.89 L 89.96,69.34 L 91.02,68.45 L 91.50,68.04 L 92.12,67.46 L 92.50,67.00 L 92.50,66.95 L 92.09,66.54 L 91.81,66.29 L 90.91,65.52 L 90.41,65.09 L 89.09,64.02 L 88.38,63.45 L 86.72,62.12 L 85.85,61.43 L 83.91,59.91 L 82.91,59.13 L 80.77,57.46 L 78.59,55.77 L 73.91,52.19 L 71.57,50.40 L 67.01,46.96 L 65.90,46.13 L 63.80,44.56 L 62.78,43.80 L 60.91,42.42 L 60.00,41.75 L 58.42,40.61 L 57.68,40.07 L 56.46,39.21 L 55.90,38.83 L 55.12,38.32 L 54.52,38.00 L 54.48,38.00 L 54.41,38.59 L 54.38,38.98 L 54.32,40.29 L 54.29,41.02 L 54.23,42.97 L 54.20,44.02 L 54.15,46.52 L 54.13,47.83 L 54.09,50.81 L 54.07,52.36 L 54.04,55.74 L 54.03,57.47 L 54.01,61.17 L 54.00,67.00 L 54.00,68.99 L 54.01,72.83 L 54.02,74.71 L 54.04,78.26 L 54.05,79.99 L 54.09,83.19 L 54.11,84.73 L 54.15,87.48 L 54.18,88.80 L 54.23,91.03 L 54.26,92.07 L 54.32,93.71 L 54.35,94.45 L 54.41,95.41 L 54.52,96.00 L 54.55,96.00 L 55.00,95.71 L 55.29,95.52 L 56.20,94.89 L 56.70,94.53 L 58.02,93.59 L 58.72,93.08 L 60.39,91.87 L 61.26,91.23 L 63.22,89.78 L 64.24,89.03 L 66.45,87.39 L 68.72,85.71 Z" fill="rgba(185,104,19,1)"/>
</g>
</svg>