<svg width="30" height="28" viewBox="0 0 30 28" fill="none" xmlns="http://www.w3.org/2000/svg">
<path d="M16.157 20.9444H26.1208M16.157 20.9444L13.5 26.5M16.157 20.9444L20.1365 12.6236C20.4572 11.9532 20.6175 11.6179 20.8369 11.512C21.0277 11.4198 21.2501 11.4198 21.4409 11.512C21.6603 11.6179 21.8206 11.9532 22.1413 12.6236L26.1208 20.9444M26.1208 20.9444L28.7778 26.5M1 4.27778H9.33333M9.33333 4.27778H14.1944M9.33333 4.27778V1.5M14.1944 4.27778H17.6667M14.1944 4.27778C13.5054 8.38512 11.9064 12.1058 9.56326 15.2284M12.1111 16.7778C11.2604 16.3956 10.3926 15.864 9.56326 15.2284M9.56326 15.2284C7.68475 13.7886 6.00384 11.8148 5.16667 9.83333M9.56326 15.2284C7.33453 18.1985 4.43255 20.6275 1 22.3333" stroke="#11255A" stroke-width="2" stroke-linecap="round" stroke-linejoin="round"/>
</svg>
