<svg width="17" height="19" viewBox="0 0 17 19" fill="none" xmlns="http://www.w3.org/2000/svg">
<path fill-rule="evenodd" clip-rule="evenodd" d="M0 9.33025C0 8.94696 0.292746 8.63623 0.653868 8.63623H11.9876C12.3487 8.63623 12.6414 8.94696 12.6414 9.33025C12.6414 9.71355 12.3487 10.0243 11.9876 10.0243H0.653868C0.292746 10.0243 0 9.71355 0 9.33025Z" fill="#141718"/>
<path fill-rule="evenodd" clip-rule="evenodd" d="M8.0377 4.2128C8.29306 3.94176 8.70706 3.94176 8.96241 4.2128L13.2599 8.77419C13.5493 9.08135 13.5493 9.57938 13.2599 9.88655L8.96241 14.4479C8.70706 14.719 8.29306 14.719 8.0377 14.4479C7.78235 14.1769 7.78235 13.7375 8.0377 13.4664L11.9345 9.33037L8.0377 5.19429C7.78235 4.92326 7.78235 4.48383 8.0377 4.2128Z" fill="#141718"/>
<path fill-rule="evenodd" clip-rule="evenodd" d="M11.6232 0.693985C11.6232 0.310708 11.916 0 12.2771 0H16.2584C16.6677 0 16.9995 0.352137 16.9995 0.786516V17.874C16.9995 18.3083 16.6677 18.6605 16.2584 18.6605H11.6959C11.3347 18.6605 11.042 18.3498 11.042 17.9665C11.042 17.5832 11.3347 17.2725 11.6959 17.2725H15.6917V1.38797H12.2771C11.916 1.38797 11.6232 1.07726 11.6232 0.693985Z" fill="#141718"/>
</svg>
