<svg width="27" height="28" viewBox="0 0 27 28" fill="none" xmlns="http://www.w3.org/2000/svg">
<path d="M11 17.75L7.15593 21.6421C6.61973 22.185 6.35163 22.4565 6.12119 22.4756C5.92127 22.4922 5.72552 22.4119 5.59495 22.2596C5.44444 22.084 5.44444 21.7025 5.44444 20.9394V18.9895C5.44444 18.3049 4.88384 17.8096 4.2065 17.7104V17.7104C2.56718 17.4703 1.27972 16.1828 1.03959 14.5435C1 14.2732 1 13.9506 1 13.3056V7.5C1 5.3998 1 4.3497 1.40873 3.54754C1.76825 2.84193 2.34193 2.26825 3.04754 1.90873C3.8497 1.5 4.8998 1.5 7 1.5H16.25C18.3502 1.5 19.4003 1.5 20.2025 1.90873C20.9081 2.26825 21.4817 2.84193 21.8413 3.54754C22.25 4.3497 22.25 5.3998 22.25 7.5V12.75M22.25 26.5L19.5295 24.6086C19.1471 24.3427 18.9559 24.2098 18.7478 24.1155C18.5631 24.0319 18.3689 23.971 18.1695 23.9343C17.9448 23.8929 17.7119 23.8929 17.2461 23.8929H15C13.5999 23.8929 12.8998 23.8929 12.365 23.6204C11.8946 23.3807 11.5122 22.9982 11.2725 22.5278C11 21.9931 11 21.293 11 19.8929V16.75C11 15.3499 11 14.6498 11.2725 14.115C11.5122 13.6446 11.8946 13.2622 12.365 13.0225C12.8998 12.75 13.5999 12.75 15 12.75H22C23.4001 12.75 24.1002 12.75 24.635 13.0225C25.1054 13.2622 25.4878 13.6446 25.7275 14.115C26 14.6498 26 15.3499 26 16.75V20.1429C26 21.3077 26 21.8901 25.8097 22.3496C25.556 22.9621 25.0693 23.4488 24.4567 23.7026C23.9973 23.8929 23.4149 23.8929 22.25 23.8929V26.5Z" stroke="black" stroke-width="2" stroke-linecap="round" stroke-linejoin="round"/>
</svg>
