<svg width="27" height="28" viewBox="0 0 27 28" fill="none" xmlns="http://www.w3.org/2000/svg">
<path d="M24.9285 25.8533H14.5811M1 26.5L8.1776 23.7394C8.63669 23.5628 8.86624 23.4745 9.081 23.3592C9.27175 23.2568 9.45361 23.1387 9.62465 23.0059C9.81722 22.8565 9.99113 22.6826 10.3389 22.3348L24.9285 7.74524C26.3572 6.31656 26.3572 4.0002 24.9285 2.57151C23.4998 1.14283 21.1835 1.14283 19.7548 2.57151L5.16521 17.1611C4.8174 17.5089 4.6435 17.6828 4.49407 17.8753C4.36133 18.0464 4.24315 18.2282 4.14075 18.419C4.02547 18.6338 3.93719 18.8633 3.76061 19.3224L1 26.5ZM1 26.5L3.66204 19.5788C3.85253 19.0835 3.94778 18.8359 4.11114 18.7224C4.25391 18.6233 4.43057 18.5858 4.6013 18.6184C4.79665 18.6557 4.98426 18.8433 5.35949 19.2186L8.28147 22.1405C8.65669 22.5158 8.8443 22.7034 8.88161 22.8987C8.91421 23.0695 8.87672 23.2461 8.77759 23.3889C8.66416 23.5523 8.41652 23.6475 7.92124 23.838L1 26.5Z" stroke="#11255A" stroke-width="2" stroke-linecap="round" stroke-linejoin="round"/>
</svg>
