<svg width="30" height="28" viewBox="0 0 30 28" fill="none" xmlns="http://www.w3.org/2000/svg">
<path d="M20.6666 22.3333L23.4444 25.1111L28.9999 19.5556M15.1111 18.1667H9.5555C6.96694 18.1667 5.67265 18.1667 4.6517 18.5896C3.29044 19.1534 2.20891 20.2349 1.64506 21.5962C1.22217 22.6172 1.22217 23.9114 1.22217 26.5M19.9722 1.90383C22.0082 2.72798 23.4444 4.72404 23.4444 7.05556C23.4444 9.38707 22.0082 11.3831 19.9722 12.2073M17.1944 7.05556C17.1944 10.1238 14.7071 12.6111 11.6388 12.6111C8.57059 12.6111 6.08328 10.1238 6.08328 7.05556C6.08328 3.98731 8.57059 1.5 11.6388 1.5C14.7071 1.5 17.1944 3.98731 17.1944 7.05556Z" stroke="#1769FF" stroke-width="2" stroke-linecap="round" stroke-linejoin="round"/>
</svg>
