<svg width="25" height="28" viewBox="0 0 25 28" fill="none" xmlns="http://www.w3.org/2000/svg">
<path fill-rule="evenodd" clip-rule="evenodd" d="M12.5516 2.29615C10.2066 2.29615 8.30568 4.1971 8.30568 6.54203C8.30568 8.88697 10.2066 10.7879 12.5516 10.7879C14.8965 10.7879 16.7974 8.88697 16.7974 6.54203C16.7974 4.1971 14.8965 2.29615 12.5516 2.29615ZM6.50439 6.54203C6.50439 3.20228 9.2118 0.494873 12.5516 0.494873C15.8913 0.494873 18.5987 3.20228 18.5987 6.54203C18.5987 9.88179 15.8913 12.5892 12.5516 12.5892C9.2118 12.5892 6.50439 9.88179 6.50439 6.54203Z" fill="#9E9E9E"/>
<path fill-rule="evenodd" clip-rule="evenodd" d="M3.31701 20.4068C5.18703 18.4089 8.22833 16.905 12.8952 16.905C17.562 16.905 20.6033 18.4089 22.4734 20.4068C24.3198 22.3795 24.9466 24.7523 24.9466 26.3832C24.9466 26.8806 24.5434 27.2838 24.046 27.2838H1.74439C1.24698 27.2838 0.84375 26.8806 0.84375 26.3832C0.84375 24.7523 1.47054 22.3795 3.31701 20.4068ZM2.72162 25.4826H23.0687C22.8813 24.3265 22.327 22.8864 21.1583 21.6377C19.6831 20.0616 17.149 18.7063 12.8952 18.7063C8.6414 18.7063 6.10731 20.0616 4.63209 21.6377C3.46332 22.8864 2.90905 24.3265 2.72162 25.4826Z" fill="#9E9E9E"/>
</svg>
